STARTFONT 2.1
FONT -Galmuri14-Regular-R-Regular--21-21-75-75-c-80-iso10646-1
SIZE 21 75 75
FONTBOUNDINGBOX 16 22 -1 -4
STARTPROPERTIES 10
FAMILY_NAME "Galmuri14"
WEIGHT_NAME "Regular"
FONT_VERSION "2.392"
COPYRIGHT "Copyright (c) 2019-2023 Minseo Lee (itoupluk427@gmail.com)"
FOUNDRY "Made with Bits'n'Picas by Kreative Software"
FONT_ASCENT 18
FONT_DESCENT 3
POINT_SIZE 15
X_HEIGHT 10
CAP_HEIGHT 14
ENDPROPERTIES
CHARS 19186
STARTCHAR U+0020
ENCODING 32
SWIDTH 375 0
DWIDTH 6 0
BBX 0 0 0 0
BITMAP
ENDCHAR
STARTCHAR U+0021
ENCODING 33
SWIDTH 312 0
DWIDTH 5 0
BBX 1 14 2 0
BITMAP
80
80
80
80
80
80
80
80
80
80
00
00
80
80
ENDCHAR
STARTCHAR U+0022
ENCODING 34
SWIDTH 312 0
DWIDTH 5 0
BBX 3 3 1 11
BITMAP
A0
A0
A0
ENDCHAR
STARTCHAR U+0023
ENCODING 35
SWIDTH 687 0
DWIDTH 11 0
BBX 9 14 1 0
BITMAP
1100
1100
1100
7F80
2200
2200
2200
2200
2200
FF00
4400
4400
4400
4400
ENDCHAR
STARTCHAR U+0024
ENCODING 36
SWIDTH 562 0
DWIDTH 9 0
BBX 7 14 1 0
BITMAP
10
10
7C
92
90
90
7C
12
12
12
92
7C
10
10
ENDCHAR
STARTCHAR U+0025
ENCODING 37
SWIDTH 750 0
DWIDTH 12 0
BBX 10 12 1 1
BITMAP
7000
8840
8880
8900
7200
0400
0800
1380
2440
4440
8440
0380
ENDCHAR
STARTCHAR U+0026
ENCODING 38
SWIDTH 812 0
DWIDTH 13 0
BBX 11 14 1 0
BITMAP
1800
2400
4200
4200
4400
2800
1000
2800
4440
8280
8100
8280
8440
7820
ENDCHAR
STARTCHAR U+0027
ENCODING 39
SWIDTH 312 0
DWIDTH 5 0
BBX 1 3 2 11
BITMAP
80
80
80
ENDCHAR
STARTCHAR U+0028
ENCODING 40
SWIDTH 312 0
DWIDTH 5 0
BBX 4 14 1 0
BITMAP
10
20
40
40
80
80
80
80
80
80
40
40
20
10
ENDCHAR
STARTCHAR U+0029
ENCODING 41
SWIDTH 312 0
DWIDTH 5 0
BBX 4 14 0 0
BITMAP
80
40
20
20
10
10
10
10
10
10
20
20
40
80
ENDCHAR
STARTCHAR U+002A
ENCODING 42
SWIDTH 562 0
DWIDTH 9 0
BBX 7 7 1 3
BITMAP
10
92
54
38
54
92
10
ENDCHAR
STARTCHAR U+002B
ENCODING 43
SWIDTH 562 0
DWIDTH 9 0
BBX 7 7 1 3
BITMAP
10
10
10
FE
10
10
10
ENDCHAR
STARTCHAR U+002C
ENCODING 44
SWIDTH 312 0
DWIDTH 5 0
BBX 2 3 1 -2
BITMAP
40
40
80
ENDCHAR
STARTCHAR U+002D
ENCODING 45
SWIDTH 500 0
DWIDTH 8 0
BBX 6 1 1 6
BITMAP
FC
ENDCHAR
STARTCHAR U+002E
ENCODING 46
SWIDTH 312 0
DWIDTH 5 0
BBX 1 1 2 0
BITMAP
80
ENDCHAR
STARTCHAR U+002F
ENCODING 47
SWIDTH 562 0
DWIDTH 9 0
BBX 7 14 1 0
BITMAP
02
02
04
04
08
08
10
10
20
20
40
40
80
80
ENDCHAR
STARTCHAR U+0030
ENCODING 48
SWIDTH 625 0
DWIDTH 10 0
BBX 8 14 1 0
BITMAP
3C
42
81
81
81
81
81
81
81
81
81
81
42
3C
ENDCHAR
STARTCHAR U+0031
ENCODING 49
SWIDTH 375 0
DWIDTH 6 0
BBX 3 14 1 0
BITMAP
20
60
A0
20
20
20
20
20
20
20
20
20
20
20
ENDCHAR
STARTCHAR U+0032
ENCODING 50
SWIDTH 625 0
DWIDTH 10 0
BBX 8 14 1 0
BITMAP
3C
42
81
81
01
01
02
04
08
10
20
40
80
FF
ENDCHAR
STARTCHAR U+0033
ENCODING 51
SWIDTH 625 0
DWIDTH 10 0
BBX 8 14 1 0
BITMAP
3C
42
81
81
01
02
1C
02
01
01
81
81
42
3C
ENDCHAR
STARTCHAR U+0034
ENCODING 52
SWIDTH 625 0
DWIDTH 10 0
BBX 9 14 1 0
BITMAP
0600
0A00
0A00
1200
1200
2200
2200
4200
4200
8200
FF80
0200
0200
0200
ENDCHAR
STARTCHAR U+0035
ENCODING 53
SWIDTH 625 0
DWIDTH 10 0
BBX 8 14 1 0
BITMAP
FF
80
80
80
80
BC
C2
81
01
01
81
81
42
3C
ENDCHAR
STARTCHAR U+0036
ENCODING 54
SWIDTH 625 0
DWIDTH 10 0
BBX 8 14 1 0
BITMAP
0E
30
40
40
80
BC
C2
81
81
81
81
81
42
3C
ENDCHAR
STARTCHAR U+0037
ENCODING 55
SWIDTH 625 0
DWIDTH 10 0
BBX 8 14 1 0
BITMAP
FF
01
01
02
02
04
04
08
08
10
10
20
20
20
ENDCHAR
STARTCHAR U+0038
ENCODING 56
SWIDTH 625 0
DWIDTH 10 0
BBX 8 14 1 0
BITMAP
3C
42
81
81
81
42
3C
42
81
81
81
81
42
3C
ENDCHAR
STARTCHAR U+0039
ENCODING 57
SWIDTH 625 0
DWIDTH 10 0
BBX 8 14 1 0
BITMAP
3C
42
81
81
81
81
81
43
3D
01
02
02
0C
70
ENDCHAR
STARTCHAR U+003A
ENCODING 58
SWIDTH 312 0
DWIDTH 5 0
BBX 1 7 2 3
BITMAP
80
80
00
00
00
80
80
ENDCHAR
STARTCHAR U+003B
ENCODING 59
SWIDTH 312 0
DWIDTH 5 0
BBX 2 8 1 2
BITMAP
40
40
00
00
00
40
40
80
ENDCHAR
STARTCHAR U+003C
ENCODING 60
SWIDTH 437 0
DWIDTH 7 0
BBX 5 9 1 2
BITMAP
08
10
20
40
80
40
20
10
08
ENDCHAR
STARTCHAR U+003D
ENCODING 61
SWIDTH 500 0
DWIDTH 8 0
BBX 6 4 1 5
BITMAP
FC
00
00
FC
ENDCHAR
STARTCHAR U+003E
ENCODING 62
SWIDTH 437 0
DWIDTH 7 0
BBX 5 9 1 2
BITMAP
80
40
20
10
08
10
20
40
80
ENDCHAR
STARTCHAR U+003F
ENCODING 63
SWIDTH 562 0
DWIDTH 9 0
BBX 7 14 1 0
BITMAP
38
44
82
82
02
04
08
10
10
10
00
00
10
10
ENDCHAR
STARTCHAR U+0040
ENCODING 64
SWIDTH 937 0
DWIDTH 15 0
BBX 13 14 1 0
BITMAP
0F80
3060
4010
4010
8688
8988
8888
8888
8888
8770
4000
4010
3060
0F80
ENDCHAR
STARTCHAR U+0041
ENCODING 65
SWIDTH 687 0
DWIDTH 11 0
BBX 9 14 1 0
BITMAP
0800
0800
1400
1400
1400
2200
2200
2200
4100
7F00
4100
8080
8080
8080
ENDCHAR
STARTCHAR U+0042
ENCODING 66
SWIDTH 625 0
DWIDTH 10 0
BBX 8 14 1 0
BITMAP
FC
82
81
81
81
82
FC
82
81
81
81
81
82
FC
ENDCHAR
STARTCHAR U+0043
ENCODING 67
SWIDTH 687 0
DWIDTH 11 0
BBX 9 14 1 0
BITMAP
3E00
4100
8080
8080
8000
8000
8000
8000
8000
8000
8080
8080
4100
3E00
ENDCHAR
STARTCHAR U+0044
ENCODING 68
SWIDTH 625 0
DWIDTH 10 0
BBX 8 14 1 0
BITMAP
FC
82
81
81
81
81
81
81
81
81
81
81
82
FC
ENDCHAR
STARTCHAR U+0045
ENCODING 69
SWIDTH 562 0
DWIDTH 9 0
BBX 7 14 1 0
BITMAP
FE
80
80
80
80
80
FE
80
80
80
80
80
80
FE
ENDCHAR
STARTCHAR U+0046
ENCODING 70
SWIDTH 562 0
DWIDTH 9 0
BBX 7 14 1 0
BITMAP
FE
80
80
80
80
80
FE
80
80
80
80
80
80
80
ENDCHAR
STARTCHAR U+0047
ENCODING 71
SWIDTH 687 0
DWIDTH 11 0
BBX 9 14 1 0
BITMAP
3E00
4100
8080
8080
8000
8000
8780
8080
8080
8080
8080
8080
4100
3E00
ENDCHAR
STARTCHAR U+0048
ENCODING 72
SWIDTH 625 0
DWIDTH 10 0
BBX 8 14 1 0
BITMAP
81
81
81
81
81
81
FF
81
81
81
81
81
81
81
ENDCHAR
STARTCHAR U+0049
ENCODING 73
SWIDTH 312 0
DWIDTH 5 0
BBX 3 14 1 0
BITMAP
E0
40
40
40
40
40
40
40
40
40
40
40
40
E0
ENDCHAR
STARTCHAR U+004A
ENCODING 74
SWIDTH 562 0
DWIDTH 9 0
BBX 7 14 1 0
BITMAP
02
02
02
02
02
02
02
02
02
02
82
82
44
38
ENDCHAR
STARTCHAR U+004B
ENCODING 75
SWIDTH 625 0
DWIDTH 10 0
BBX 8 14 1 0
BITMAP
81
81
82
82
84
84
F8
88
84
84
82
82
81
81
ENDCHAR
STARTCHAR U+004C
ENCODING 76
SWIDTH 562 0
DWIDTH 9 0
BBX 7 14 1 0
BITMAP
80
80
80
80
80
80
80
80
80
80
80
80
80
FE
ENDCHAR
STARTCHAR U+004D
ENCODING 77
SWIDTH 687 0
DWIDTH 11 0
BBX 9 14 1 0
BITMAP
8080
8080
C180
C180
C180
A280
A280
A280
9480
9480
9480
8880
8880
8080
ENDCHAR
STARTCHAR U+004E
ENCODING 78
SWIDTH 625 0
DWIDTH 10 0
BBX 8 14 1 0
BITMAP
81
C1
C1
A1
A1
91
91
89
89
85
85
83
83
81
ENDCHAR
STARTCHAR U+004F
ENCODING 79
SWIDTH 687 0
DWIDTH 11 0
BBX 9 14 1 0
BITMAP
3E00
4100
8080
8080
8080
8080
8080
8080
8080
8080
8080
8080
4100
3E00
ENDCHAR
STARTCHAR U+0050
ENCODING 80
SWIDTH 625 0
DWIDTH 10 0
BBX 8 14 1 0
BITMAP
FC
82
81
81
81
81
81
82
FC
80
80
80
80
80
ENDCHAR
STARTCHAR U+0051
ENCODING 81
SWIDTH 687 0
DWIDTH 11 0
BBX 9 16 1 -2
BITMAP
3E00
4100
8080
8080
8080
8080
8080
8080
8080
8080
8880
8880
4500
3E00
0200
0100
ENDCHAR
STARTCHAR U+0052
ENCODING 82
SWIDTH 625 0
DWIDTH 10 0
BBX 8 14 1 0
BITMAP
FC
82
81
81
81
81
82
FC
84
84
82
82
81
81
ENDCHAR
STARTCHAR U+0053
ENCODING 83
SWIDTH 687 0
DWIDTH 11 0
BBX 9 14 1 0
BITMAP
3E00
4100
8080
8080
8000
4000
3E00
0100
0080
0080
8080
8080
4100
3E00
ENDCHAR
STARTCHAR U+0054
ENCODING 84
SWIDTH 687 0
DWIDTH 11 0
BBX 9 14 1 0
BITMAP
FF80
0800
0800
0800
0800
0800
0800
0800
0800
0800
0800
0800
0800
0800
ENDCHAR
STARTCHAR U+0055
ENCODING 85
SWIDTH 687 0
DWIDTH 11 0
BBX 9 14 1 0
BITMAP
8080
8080
8080
8080
8080
8080
8080
8080
8080
8080
8080
8080
4100
3E00
ENDCHAR
STARTCHAR U+0056
ENCODING 86
SWIDTH 687 0
DWIDTH 11 0
BBX 9 14 1 0
BITMAP
8080
8080
8080
4100
4100
4100
2200
2200
2200
1400
1400
1400
0800
0800
ENDCHAR
STARTCHAR U+0057
ENCODING 87
SWIDTH 687 0
DWIDTH 11 0
BBX 9 14 1 0
BITMAP
8880
8880
8880
8880
8880
8880
5500
5500
5500
5500
5500
2200
2200
2200
ENDCHAR
STARTCHAR U+0058
ENCODING 88
SWIDTH 625 0
DWIDTH 10 0
BBX 8 14 1 0
BITMAP
81
81
42
42
24
24
18
18
24
24
42
42
81
81
ENDCHAR
STARTCHAR U+0059
ENCODING 89
SWIDTH 687 0
DWIDTH 11 0
BBX 9 14 1 0
BITMAP
8080
8080
4100
4100
2200
2200
1400
1400
0800
0800
0800
0800
0800
0800
ENDCHAR
STARTCHAR U+005A
ENCODING 90
SWIDTH 625 0
DWIDTH 10 0
BBX 8 14 1 0
BITMAP
FF
02
04
04
08
08
10
10
20
20
40
40
80
FF
ENDCHAR
STARTCHAR U+005B
ENCODING 91
SWIDTH 312 0
DWIDTH 5 0
BBX 3 14 2 0
BITMAP
E0
80
80
80
80
80
80
80
80
80
80
80
80
E0
ENDCHAR
STARTCHAR U+005C
ENCODING 92
SWIDTH 562 0
DWIDTH 9 0
BBX 7 14 1 0
BITMAP
80
80
40
40
20
20
10
10
08
08
04
04
02
02
ENDCHAR
STARTCHAR U+005D
ENCODING 93
SWIDTH 312 0
DWIDTH 5 0
BBX 3 14 0 0
BITMAP
E0
20
20
20
20
20
20
20
20
20
20
20
20
E0
ENDCHAR
STARTCHAR U+005E
ENCODING 94
SWIDTH 437 0
DWIDTH 7 0
BBX 5 3 1 11
BITMAP
20
50
88
ENDCHAR
STARTCHAR U+005F
ENCODING 95
SWIDTH 500 0
DWIDTH 8 0
BBX 6 1 1 0
BITMAP
FC
ENDCHAR
STARTCHAR U+0060
ENCODING 96
SWIDTH 312 0
DWIDTH 5 0
BBX 3 3 1 11
BITMAP
80
40
20
ENDCHAR
STARTCHAR U+0061
ENCODING 97
SWIDTH 562 0
DWIDTH 9 0
BBX 7 10 1 0
BITMAP
7C
82
02
1E
62
82
82
82
86
7A
ENDCHAR
STARTCHAR U+0062
ENCODING 98
SWIDTH 625 0
DWIDTH 10 0
BBX 8 14 1 0
BITMAP
80
80
80
80
BC
C2
81
81
81
81
81
81
C2
BC
ENDCHAR
STARTCHAR U+0063
ENCODING 99
SWIDTH 625 0
DWIDTH 10 0
BBX 8 10 1 0
BITMAP
3C
42
81
80
80
80
80
81
42
3C
ENDCHAR
STARTCHAR U+0064
ENCODING 100
SWIDTH 625 0
DWIDTH 10 0
BBX 8 14 1 0
BITMAP
01
01
01
01
3D
43
81
81
81
81
81
81
43
3D
ENDCHAR
STARTCHAR U+0065
ENCODING 101
SWIDTH 625 0
DWIDTH 10 0
BBX 8 10 1 0
BITMAP
3C
42
81
81
FF
80
80
81
42
3C
ENDCHAR
STARTCHAR U+0066
ENCODING 102
SWIDTH 500 0
DWIDTH 8 0
BBX 6 14 1 0
BITMAP
1C
20
20
20
FC
20
20
20
20
20
20
20
20
20
ENDCHAR
STARTCHAR U+0067
ENCODING 103
SWIDTH 625 0
DWIDTH 10 0
BBX 8 13 1 -3
BITMAP
3D
43
81
81
81
81
81
43
3D
01
81
42
3C
ENDCHAR
STARTCHAR U+0068
ENCODING 104
SWIDTH 562 0
DWIDTH 9 0
BBX 7 14 1 0
BITMAP
80
80
80
80
BC
C2
82
82
82
82
82
82
82
82
ENDCHAR
STARTCHAR U+0069
ENCODING 105
SWIDTH 312 0
DWIDTH 5 0
BBX 1 14 2 0
BITMAP
80
80
00
00
80
80
80
80
80
80
80
80
80
80
ENDCHAR
STARTCHAR U+006A
ENCODING 106
SWIDTH 312 0
DWIDTH 5 0
BBX 4 17 -1 -3
BITMAP
10
10
00
00
10
10
10
10
10
10
10
10
10
10
10
10
E0
ENDCHAR
STARTCHAR U+006B
ENCODING 107
SWIDTH 562 0
DWIDTH 9 0
BBX 7 14 1 0
BITMAP
80
80
80
80
82
84
88
90
A0
E0
90
88
84
82
ENDCHAR
STARTCHAR U+006C
ENCODING 108
SWIDTH 312 0
DWIDTH 5 0
BBX 1 14 2 0
BITMAP
80
80
80
80
80
80
80
80
80
80
80
80
80
80
ENDCHAR
STARTCHAR U+006D
ENCODING 109
SWIDTH 687 0
DWIDTH 11 0
BBX 9 10 1 0
BITMAP
B300
CC80
8880
8880
8880
8880
8880
8880
8880
8880
ENDCHAR
STARTCHAR U+006E
ENCODING 110
SWIDTH 562 0
DWIDTH 9 0
BBX 7 10 1 0
BITMAP
BC
C2
82
82
82
82
82
82
82
82
ENDCHAR
STARTCHAR U+006F
ENCODING 111
SWIDTH 625 0
DWIDTH 10 0
BBX 8 10 1 0
BITMAP
3C
42
81
81
81
81
81
81
42
3C
ENDCHAR
STARTCHAR U+0070
ENCODING 112
SWIDTH 625 0
DWIDTH 10 0
BBX 8 13 1 -3
BITMAP
BC
C2
81
81
81
81
81
81
C2
BC
80
80
80
ENDCHAR
STARTCHAR U+0071
ENCODING 113
SWIDTH 625 0
DWIDTH 10 0
BBX 8 13 1 -3
BITMAP
3D
43
81
81
81
81
81
81
43
3D
01
01
01
ENDCHAR
STARTCHAR U+0072
ENCODING 114
SWIDTH 437 0
DWIDTH 7 0
BBX 5 10 1 0
BITMAP
B8
C0
80
80
80
80
80
80
80
80
ENDCHAR
STARTCHAR U+0073
ENCODING 115
SWIDTH 562 0
DWIDTH 9 0
BBX 7 10 1 0
BITMAP
7C
82
82
80
7C
02
02
82
82
7C
ENDCHAR
STARTCHAR U+0074
ENCODING 116
SWIDTH 500 0
DWIDTH 8 0
BBX 6 13 1 0
BITMAP
20
20
20
FC
20
20
20
20
20
20
20
20
1C
ENDCHAR
STARTCHAR U+0075
ENCODING 117
SWIDTH 562 0
DWIDTH 9 0
BBX 7 10 1 0
BITMAP
82
82
82
82
82
82
82
82
86
7A
ENDCHAR
STARTCHAR U+0076
ENCODING 118
SWIDTH 562 0
DWIDTH 9 0
BBX 7 10 1 0
BITMAP
82
82
82
44
44
44
28
28
10
10
ENDCHAR
STARTCHAR U+0077
ENCODING 119
SWIDTH 687 0
DWIDTH 11 0
BBX 9 10 1 0
BITMAP
8880
8880
8880
8880
5500
5500
5500
2200
2200
2200
ENDCHAR
STARTCHAR U+0078
ENCODING 120
SWIDTH 562 0
DWIDTH 9 0
BBX 7 10 1 0
BITMAP
82
44
28
28
10
10
28
28
44
82
ENDCHAR
STARTCHAR U+0079
ENCODING 121
SWIDTH 562 0
DWIDTH 9 0
BBX 7 13 1 -3
BITMAP
82
82
82
44
44
44
28
28
28
10
10
20
C0
ENDCHAR
STARTCHAR U+007A
ENCODING 122
SWIDTH 562 0
DWIDTH 9 0
BBX 7 10 1 0
BITMAP
FE
04
08
08
10
10
20
20
40
FE
ENDCHAR
STARTCHAR U+007B
ENCODING 123
SWIDTH 312 0
DWIDTH 5 0
BBX 4 14 1 0
BITMAP
30
40
40
40
40
40
40
80
40
40
40
40
40
30
ENDCHAR
STARTCHAR U+007C
ENCODING 124
SWIDTH 312 0
DWIDTH 5 0
BBX 1 14 2 0
BITMAP
80
80
80
80
80
80
80
80
80
80
80
80
80
80
ENDCHAR
STARTCHAR U+007D
ENCODING 125
SWIDTH 312 0
DWIDTH 5 0
BBX 4 14 0 0
BITMAP
C0
20
20
20
20
20
20
10
20
20
20
20
20
C0
ENDCHAR
STARTCHAR U+007E
ENCODING 126
SWIDTH 687 0
DWIDTH 11 0
BBX 9 3 1 5
BITMAP
7000
8880
0700
ENDCHAR
STARTCHAR U+00A0
ENCODING 160
SWIDTH 375 0
DWIDTH 6 0
BBX 0 0 0 0
BITMAP
ENDCHAR
STARTCHAR U+00A1
ENCODING 161
SWIDTH 312 0
DWIDTH 5 0
BBX 1 14 2 -4
BITMAP
80
80
00
00
80
80
80
80
80
80
80
80
80
80
ENDCHAR
STARTCHAR U+00A2
ENCODING 162
SWIDTH 625 0
DWIDTH 10 0
BBX 8 14 1 0
BITMAP
08
08
3E
49
88
88
88
88
88
88
49
3E
08
08
ENDCHAR
STARTCHAR U+00A3
ENCODING 163
SWIDTH 687 0
DWIDTH 11 0
BBX 9 14 1 0
BITMAP
0700
0880
1000
1000
1000
1000
FF00
1000
1000
1000
2000
2000
4000
FF80
ENDCHAR
STARTCHAR U+00A4
ENCODING 164
SWIDTH 562 0
DWIDTH 9 0
BBX 7 7 1 3
BITMAP
BA
44
82
82
82
44
BA
ENDCHAR
STARTCHAR U+00A5
ENCODING 165
SWIDTH 687 0
DWIDTH 11 0
BBX 9 14 1 0
BITMAP
8080
8080
4100
4100
2200
2200
1400
7F00
0800
7F00
0800
0800
0800
0800
ENDCHAR
STARTCHAR U+00A6
ENCODING 166
SWIDTH 312 0
DWIDTH 5 0
BBX 1 14 2 0
BITMAP
80
80
80
80
80
80
00
00
80
80
80
80
80
80
ENDCHAR
STARTCHAR U+00A7
ENCODING 167
SWIDTH 625 0
DWIDTH 10 0
BBX 6 14 2 0
BITMAP
78
84
80
80
78
84
84
84
84
78
04
04
84
78
ENDCHAR
STARTCHAR U+00A8
ENCODING 168
SWIDTH 500 0
DWIDTH 8 0
BBX 4 1 2 13
BITMAP
90
ENDCHAR
STARTCHAR U+00A9
ENCODING 169
SWIDTH 937 0
DWIDTH 15 0
BBX 13 13 1 1
BITMAP
0F80
3060
4010
4710
8888
9008
9008
9008
8888
4710
4010
3060
0F80
ENDCHAR
STARTCHAR U+00AA
ENCODING 170
SWIDTH 375 0
DWIDTH 6 0
BBX 4 7 1 8
BITMAP
E0
10
70
90
70
00
F0
ENDCHAR
STARTCHAR U+00AB
ENCODING 171
SWIDTH 500 0
DWIDTH 8 0
BBX 7 7 1 3
BITMAP
12
24
48
90
48
24
12
ENDCHAR
STARTCHAR U+00AC
ENCODING 172
SWIDTH 750 0
DWIDTH 12 0
BBX 10 7 1 0
BITMAP
FFC0
0040
0040
0040
0040
0040
0040
ENDCHAR
STARTCHAR U+00AD
ENCODING 173
SWIDTH 500 0
DWIDTH 8 0
BBX 6 1 1 6
BITMAP
FC
ENDCHAR
STARTCHAR U+00AE
ENCODING 174
SWIDTH 937 0
DWIDTH 15 0
BBX 13 13 1 1
BITMAP
0F80
3060
4010
4F10
8888
8888
8F08
8908
8888
4890
4010
3060
0F80
ENDCHAR
STARTCHAR U+00AF
ENCODING 175
SWIDTH 500 0
DWIDTH 8 0
BBX 4 1 2 13
BITMAP
F0
ENDCHAR
STARTCHAR U+00B0
ENCODING 176
SWIDTH 500 0
DWIDTH 8 0
BBX 4 4 2 10
BITMAP
60
90
90
60
ENDCHAR
STARTCHAR U+00B1
ENCODING 177
SWIDTH 562 0
DWIDTH 9 0
BBX 7 9 1 2
BITMAP
10
10
10
FE
10
10
10
00
FE
ENDCHAR
STARTCHAR U+00B2
ENCODING 178
SWIDTH 375 0
DWIDTH 6 0
BBX 4 6 1 9
BITMAP
E0
10
20
40
80
F0
ENDCHAR
STARTCHAR U+00B3
ENCODING 179
SWIDTH 375 0
DWIDTH 6 0
BBX 4 6 1 9
BITMAP
E0
10
60
10
10
E0
ENDCHAR
STARTCHAR U+00B4
ENCODING 180
SWIDTH 437 0
DWIDTH 7 0
BBX 3 3 2 11
BITMAP
20
40
80
ENDCHAR
STARTCHAR U+00B5
ENCODING 181
SWIDTH 562 0
DWIDTH 9 0
BBX 7 13 1 -3
BITMAP
82
82
82
82
82
82
82
82
C6
BA
80
80
80
ENDCHAR
STARTCHAR U+00B6
ENCODING 182
SWIDTH 500 0
DWIDTH 8 0
BBX 7 14 0 0
BITMAP
3E
7A
FA
FA
7A
3A
0A
0A
0A
0A
0A
0A
0A
0A
ENDCHAR
STARTCHAR U+00B7
ENCODING 183
SWIDTH 312 0
DWIDTH 5 0
BBX 1 1 2 6
BITMAP
80
ENDCHAR
STARTCHAR U+00B8
ENCODING 184
SWIDTH 500 0
DWIDTH 8 0
BBX 4 3 2 -2
BITMAP
20
10
E0
ENDCHAR
STARTCHAR U+00B9
ENCODING 185
SWIDTH 375 0
DWIDTH 6 0
BBX 3 6 1 9
BITMAP
C0
40
40
40
40
E0
ENDCHAR
STARTCHAR U+00BA
ENCODING 186
SWIDTH 375 0
DWIDTH 6 0
BBX 4 7 1 8
BITMAP
60
90
90
90
60
00
F0
ENDCHAR
STARTCHAR U+00BB
ENCODING 187
SWIDTH 500 0
DWIDTH 8 0
BBX 7 7 0 3
BITMAP
90
48
24
12
24
48
90
ENDCHAR
STARTCHAR U+00BC
ENCODING 188
SWIDTH 937 0
DWIDTH 15 0
BBX 12 13 2 0
BITMAP
4000
C020
4040
4080
4100
4200
E460
08A0
1120
2220
43F0
8020
0020
ENDCHAR
STARTCHAR U+00BD
ENCODING 189
SWIDTH 937 0
DWIDTH 15 0
BBX 12 13 2 0
BITMAP
4000
C020
4040
4080
4100
4200
E4E0
0910
1010
2020
4040
8080
01F0
ENDCHAR
STARTCHAR U+00BE
ENCODING 190
SWIDTH 937 0
DWIDTH 15 0
BBX 13 13 1 0
BITMAP
7000
8810
0820
3040
0880
8900
7230
0450
0890
1110
21F8
4010
0010
ENDCHAR
STARTCHAR U+00BF
ENCODING 191
SWIDTH 562 0
DWIDTH 9 0
BBX 7 14 1 -4
BITMAP
10
10
00
00
10
10
10
08
04
02
82
82
44
38
ENDCHAR
STARTCHAR U+00C0
ENCODING 192
SWIDTH 687 0
DWIDTH 11 0
BBX 9 18 1 0
BITMAP
2000
1000
0800
0000
0800
0800
1400
1400
1400
2200
2200
2200
4100
7F00
4100
8080
8080
8080
ENDCHAR
STARTCHAR U+00C1
ENCODING 193
SWIDTH 687 0
DWIDTH 11 0
BBX 9 18 1 0
BITMAP
0200
0400
0800
0000
0800
0800
1400
1400
1400
2200
2200
2200
4100
7F00
4100
8080
8080
8080
ENDCHAR
STARTCHAR U+00C2
ENCODING 194
SWIDTH 687 0
DWIDTH 11 0
BBX 9 17 1 0
BITMAP
0800
1400
2200
0800
0800
1400
1400
1400
2200
2200
2200
4100
7F00
4100
8080
8080
8080
ENDCHAR
STARTCHAR U+00C3
ENCODING 195
SWIDTH 687 0
DWIDTH 11 0
BBX 9 17 1 0
BITMAP
1900
2600
0000
0800
0800
1400
1400
1400
2200
2200
2200
4100
7F00
4100
8080
8080
8080
ENDCHAR
STARTCHAR U+00C4
ENCODING 196
SWIDTH 687 0
DWIDTH 11 0
BBX 9 16 1 0
BITMAP
1400
0000
0800
0800
1400
1400
1400
2200
2200
2200
4100
7F00
4100
8080
8080
8080
ENDCHAR
STARTCHAR U+00C5
ENCODING 197
SWIDTH 687 0
DWIDTH 11 0
BBX 9 18 1 0
BITMAP
0800
1400
0800
0000
0800
0800
1400
1400
1400
2200
2200
2200
4100
7F00
4100
8080
8080
8080
ENDCHAR
STARTCHAR U+00C6
ENCODING 198
SWIDTH 937 0
DWIDTH 15 0
BBX 13 14 1 0
BITMAP
03F8
0300
0500
0500
0900
0900
11F8
1100
2100
3F00
4100
4100
8100
81F8
ENDCHAR
STARTCHAR U+00C7
ENCODING 199
SWIDTH 687 0
DWIDTH 11 0
BBX 9 17 1 -3
BITMAP
3E00
4100
8080
8080
8000
8000
8000
8000
8000
8000
8080
8080
4100
3E00
0800
0400
1800
ENDCHAR
STARTCHAR U+00C8
ENCODING 200
SWIDTH 562 0
DWIDTH 9 0
BBX 7 18 1 0
BITMAP
20
10
08
00
FE
80
80
80
80
80
FE
80
80
80
80
80
80
FE
ENDCHAR
STARTCHAR U+00C9
ENCODING 201
SWIDTH 562 0
DWIDTH 9 0
BBX 7 18 1 0
BITMAP
08
10
20
00
FE
80
80
80
80
80
FE
80
80
80
80
80
80
FE
ENDCHAR
STARTCHAR U+00CA
ENCODING 202
SWIDTH 562 0
DWIDTH 9 0
BBX 7 18 1 0
BITMAP
10
28
44
00
FE
80
80
80
80
80
FE
80
80
80
80
80
80
FE
ENDCHAR
STARTCHAR U+00CB
ENCODING 203
SWIDTH 562 0
DWIDTH 9 0
BBX 7 16 1 0
BITMAP
24
00
FE
80
80
80
80
80
FE
80
80
80
80
80
80
FE
ENDCHAR
STARTCHAR U+00CC
ENCODING 204
SWIDTH 312 0
DWIDTH 5 0
BBX 4 18 0 0
BITMAP
80
40
20
00
70
20
20
20
20
20
20
20
20
20
20
20
20
70
ENDCHAR
STARTCHAR U+00CD
ENCODING 205
SWIDTH 312 0
DWIDTH 5 0
BBX 4 18 1 0
BITMAP
10
20
40
00
E0
40
40
40
40
40
40
40
40
40
40
40
40
E0
ENDCHAR
STARTCHAR U+00CE
ENCODING 206
SWIDTH 312 0
DWIDTH 5 0
BBX 5 18 0 0
BITMAP
20
50
88
00
70
20
20
20
20
20
20
20
20
20
20
20
20
70
ENDCHAR
STARTCHAR U+00CF
ENCODING 207
SWIDTH 312 0
DWIDTH 5 0
BBX 3 16 1 0
BITMAP
A0
00
E0
40
40
40
40
40
40
40
40
40
40
40
40
E0
ENDCHAR
STARTCHAR U+00D0
ENCODING 208
SWIDTH 687 0
DWIDTH 11 0
BBX 10 14 0 0
BITMAP
3F00
2080
2040
2040
2040
2040
FC40
2040
2040
2040
2040
2040
2080
3F00
ENDCHAR
STARTCHAR U+00D1
ENCODING 209
SWIDTH 625 0
DWIDTH 10 0
BBX 8 17 1 0
BITMAP
32
4C
00
81
C1
C1
A1
A1
91
91
89
89
85
85
83
83
81
ENDCHAR
STARTCHAR U+00D2
ENCODING 210
SWIDTH 687 0
DWIDTH 11 0
BBX 9 18 1 0
BITMAP
2000
1000
0800
0000
3E00
4100
8080
8080
8080
8080
8080
8080
8080
8080
8080
8080
4100
3E00
ENDCHAR
STARTCHAR U+00D3
ENCODING 211
SWIDTH 687 0
DWIDTH 11 0
BBX 9 18 1 0
BITMAP
0200
0400
0800
0000
3E00
4100
8080
8080
8080
8080
8080
8080
8080
8080
8080
8080
4100
3E00
ENDCHAR
STARTCHAR U+00D4
ENCODING 212
SWIDTH 687 0
DWIDTH 11 0
BBX 9 18 1 0
BITMAP
0800
1400
2200
0000
3E00
4100
8080
8080
8080
8080
8080
8080
8080
8080
8080
8080
4100
3E00
ENDCHAR
STARTCHAR U+00D5
ENCODING 213
SWIDTH 687 0
DWIDTH 11 0
BBX 9 17 1 0
BITMAP
1900
2600
0000
3E00
4100
8080
8080
8080
8080
8080
8080
8080
8080
8080
8080
4100
3E00
ENDCHAR
STARTCHAR U+00D6
ENCODING 214
SWIDTH 687 0
DWIDTH 11 0
BBX 9 16 1 0
BITMAP
1400
0000
3E00
4100
8080
8080
8080
8080
8080
8080
8080
8080
8080
8080
4100
3E00
ENDCHAR
STARTCHAR U+00D7
ENCODING 215
SWIDTH 562 0
DWIDTH 9 0
BBX 7 7 1 3
BITMAP
82
44
28
10
28
44
82
ENDCHAR
STARTCHAR U+00D8
ENCODING 216
SWIDTH 687 0
DWIDTH 11 0
BBX 9 14 1 0
BITMAP
3E80
4100
8280
8280
8480
8480
8880
8880
9080
9080
A080
A080
4100
BE00
ENDCHAR
STARTCHAR U+00D9
ENCODING 217
SWIDTH 687 0
DWIDTH 11 0
BBX 9 17 1 0
BITMAP
2000
1000
0800
8080
8080
8080
8080
8080
8080
8080
8080
8080
8080
8080
8080
4100
3E00
ENDCHAR
STARTCHAR U+00DA
ENCODING 218
SWIDTH 687 0
DWIDTH 11 0
BBX 9 17 1 0
BITMAP
0200
0400
0800
8080
8080
8080
8080
8080
8080
8080
8080
8080
8080
8080
8080
4100
3E00
ENDCHAR
STARTCHAR U+00DB
ENCODING 219
SWIDTH 687 0
DWIDTH 11 0
BBX 9 18 1 0
BITMAP
0800
1400
2200
0000
8080
8080
8080
8080
8080
8080
8080
8080
8080
8080
8080
8080
4100
3E00
ENDCHAR
STARTCHAR U+00DC
ENCODING 220
SWIDTH 687 0
DWIDTH 11 0
BBX 9 16 1 0
BITMAP
1400
0000
8080
8080
8080
8080
8080
8080
8080
8080
8080
8080
8080
8080
4100
3E00
ENDCHAR
STARTCHAR U+00DD
ENCODING 221
SWIDTH 687 0
DWIDTH 11 0
BBX 9 17 1 0
BITMAP
0400
0800
1000
8080
8080
4100
4100
2200
2200
1400
1400
0800
0800
0800
0800
0800
0800
ENDCHAR
STARTCHAR U+00DE
ENCODING 222
SWIDTH 625 0
DWIDTH 10 0
BBX 8 14 1 0
BITMAP
80
80
80
FC
82
81
81
81
82
FC
80
80
80
80
ENDCHAR
STARTCHAR U+00DF
ENCODING 223
SWIDTH 625 0
DWIDTH 10 0
BBX 8 14 1 0
BITMAP
3C
42
81
81
81
82
9C
82
81
81
81
81
82
9C
ENDCHAR
STARTCHAR U+00E0
ENCODING 224
SWIDTH 562 0
DWIDTH 9 0
BBX 7 14 1 0
BITMAP
40
20
10
00
7C
82
02
1E
62
82
82
82
86
7A
ENDCHAR
STARTCHAR U+00E1
ENCODING 225
SWIDTH 562 0
DWIDTH 9 0
BBX 7 14 1 0
BITMAP
04
08
10
00
7C
82
02
1E
62
82
82
82
86
7A
ENDCHAR
STARTCHAR U+00E2
ENCODING 226
SWIDTH 562 0
DWIDTH 9 0
BBX 7 14 1 0
BITMAP
10
28
44
00
7C
82
02
1E
62
82
82
82
86
7A
ENDCHAR
STARTCHAR U+00E3
ENCODING 227
SWIDTH 562 0
DWIDTH 9 0
BBX 7 13 1 0
BITMAP
32
4C
00
7C
82
02
1E
62
82
82
82
86
7A
ENDCHAR
STARTCHAR U+00E4
ENCODING 228
SWIDTH 562 0
DWIDTH 9 0
BBX 7 12 1 0
BITMAP
28
00
7C
82
02
1E
62
82
82
82
86
7A
ENDCHAR
STARTCHAR U+00E5
ENCODING 229
SWIDTH 562 0
DWIDTH 9 0
BBX 7 14 1 0
BITMAP
10
28
10
00
7C
82
02
1E
62
82
82
82
86
7A
ENDCHAR
STARTCHAR U+00E6
ENCODING 230
SWIDTH 812 0
DWIDTH 13 0
BBX 11 10 1 0
BITMAP
7BC0
8420
0420
0420
7FE0
8400
8400
8400
8420
7BC0
ENDCHAR
STARTCHAR U+00E7
ENCODING 231
SWIDTH 625 0
DWIDTH 10 0
BBX 8 13 1 -3
BITMAP
3C
42
81
80
80
80
80
81
42
3C
08
04
18
ENDCHAR
STARTCHAR U+00E8
ENCODING 232
SWIDTH 625 0
DWIDTH 10 0
BBX 8 14 1 0
BITMAP
20
10
08
00
3C
42
81
81
FF
80
80
81
42
3C
ENDCHAR
STARTCHAR U+00E9
ENCODING 233
SWIDTH 625 0
DWIDTH 10 0
BBX 8 14 1 0
BITMAP
04
08
10
00
3C
42
81
81
FF
80
80
81
42
3C
ENDCHAR
STARTCHAR U+00EA
ENCODING 234
SWIDTH 625 0
DWIDTH 10 0
BBX 8 14 1 0
BITMAP
08
14
22
00
3C
42
81
81
FF
80
80
81
42
3C
ENDCHAR
STARTCHAR U+00EB
ENCODING 235
SWIDTH 625 0
DWIDTH 10 0
BBX 8 12 1 0
BITMAP
24
00
3C
42
81
81
FF
80
80
81
42
3C
ENDCHAR
STARTCHAR U+00EC
ENCODING 236
SWIDTH 312 0
DWIDTH 5 0
BBX 3 14 0 0
BITMAP
80
40
20
00
20
20
20
20
20
20
20
20
20
20
ENDCHAR
STARTCHAR U+00ED
ENCODING 237
SWIDTH 312 0
DWIDTH 5 0
BBX 3 14 2 0
BITMAP
20
40
80
00
80
80
80
80
80
80
80
80
80
80
ENDCHAR
STARTCHAR U+00EE
ENCODING 238
SWIDTH 312 0
DWIDTH 5 0
BBX 5 14 0 0
BITMAP
20
50
88
00
20
20
20
20
20
20
20
20
20
20
ENDCHAR
STARTCHAR U+00EF
ENCODING 239
SWIDTH 312 0
DWIDTH 5 0
BBX 3 13 1 0
BITMAP
A0
00
00
40
40
40
40
40
40
40
40
40
40
ENDCHAR
STARTCHAR U+00F0
ENCODING 240
SWIDTH 625 0
DWIDTH 10 0
BBX 8 14 1 0
BITMAP
36
08
34
02
3D
43
81
81
81
81
81
81
42
3C
ENDCHAR
STARTCHAR U+00F1
ENCODING 241
SWIDTH 562 0
DWIDTH 9 0
BBX 7 13 1 0
BITMAP
32
4C
00
BC
C2
82
82
82
82
82
82
82
82
ENDCHAR
STARTCHAR U+00F2
ENCODING 242
SWIDTH 625 0
DWIDTH 10 0
BBX 8 14 1 0
BITMAP
20
10
08
00
3C
42
81
81
81
81
81
81
42
3C
ENDCHAR
STARTCHAR U+00F3
ENCODING 243
SWIDTH 625 0
DWIDTH 10 0
BBX 8 14 1 0
BITMAP
04
08
10
00
3C
42
81
81
81
81
81
81
42
3C
ENDCHAR
STARTCHAR U+00F4
ENCODING 244
SWIDTH 625 0
DWIDTH 10 0
BBX 8 14 1 0
BITMAP
08
14
22
00
3C
42
81
81
81
81
81
81
42
3C
ENDCHAR
STARTCHAR U+00F5
ENCODING 245
SWIDTH 625 0
DWIDTH 10 0
BBX 8 13 1 0
BITMAP
32
4C
00
3C
42
81
81
81
81
81
81
42
3C
ENDCHAR
STARTCHAR U+00F6
ENCODING 246
SWIDTH 625 0
DWIDTH 10 0
BBX 8 12 1 0
BITMAP
24
00
3C
42
81
81
81
81
81
81
42
3C
ENDCHAR
STARTCHAR U+00F7
ENCODING 247
SWIDTH 562 0
DWIDTH 9 0
BBX 7 7 1 3
BITMAP
10
00
00
FE
00
00
10
ENDCHAR
STARTCHAR U+00F8
ENCODING 248
SWIDTH 625 0
DWIDTH 10 0
BBX 8 10 1 0
BITMAP
3D
42
85
85
89
91
A1
A1
42
BC
ENDCHAR
STARTCHAR U+00F9
ENCODING 249
SWIDTH 562 0
DWIDTH 9 0
BBX 7 13 1 0
BITMAP
40
20
10
82
82
82
82
82
82
82
82
86
7A
ENDCHAR
STARTCHAR U+00FA
ENCODING 250
SWIDTH 562 0
DWIDTH 9 0
BBX 7 13 1 0
BITMAP
04
08
10
82
82
82
82
82
82
82
82
86
7A
ENDCHAR
STARTCHAR U+00FB
ENCODING 251
SWIDTH 562 0
DWIDTH 9 0
BBX 7 14 1 0
BITMAP
10
28
44
00
82
82
82
82
82
82
82
82
86
7A
ENDCHAR
STARTCHAR U+00FC
ENCODING 252
SWIDTH 562 0
DWIDTH 9 0
BBX 7 12 1 0
BITMAP
28
00
82
82
82
82
82
82
82
82
86
7A
ENDCHAR
STARTCHAR U+00FD
ENCODING 253
SWIDTH 562 0
DWIDTH 9 0
BBX 7 16 1 -3
BITMAP
04
08
10
82
82
82
44
44
44
28
28
28
10
10
20
C0
ENDCHAR
STARTCHAR U+00FE
ENCODING 254
SWIDTH 625 0
DWIDTH 10 0
BBX 8 17 1 -3
BITMAP
80
80
80
80
BC
C2
81
81
81
81
81
81
C2
BC
80
80
80
ENDCHAR
STARTCHAR U+00FF
ENCODING 255
SWIDTH 562 0
DWIDTH 9 0
BBX 7 15 1 -3
BITMAP
28
00
82
82
82
44
44
44
28
28
28
10
10
20
C0
ENDCHAR
STARTCHAR U+0100
ENCODING 256
SWIDTH 687 0
DWIDTH 11 0
BBX 9 16 1 0
BITMAP
3E00
0000
0800
0800
1400
1400
1400
2200
2200
2200
4100
7F00
4100
8080
8080
8080
ENDCHAR
STARTCHAR U+0101
ENCODING 257
SWIDTH 562 0
DWIDTH 9 0
BBX 7 12 1 0
BITMAP
7C
00
7C
82
02
1E
62
82
82
82
86
7A
ENDCHAR
STARTCHAR U+0102
ENCODING 258
SWIDTH 687 0
DWIDTH 11 0
BBX 9 17 1 0
BITMAP
2200
1C00
0000
0800
0800
1400
1400
1400
2200
2200
2200
4100
7F00
4100
8080
8080
8080
ENDCHAR
STARTCHAR U+0103
ENCODING 259
SWIDTH 562 0
DWIDTH 9 0
BBX 7 13 1 0
BITMAP
44
38
00
7C
82
02
1E
62
82
82
82
86
7A
ENDCHAR
STARTCHAR U+0104
ENCODING 260
SWIDTH 687 0
DWIDTH 11 0
BBX 10 16 1 -2
BITMAP
0800
0800
1400
1400
1400
2200
2200
2200
4100
7F00
4100
8080
8080
8080
0100
00C0
ENDCHAR
STARTCHAR U+0105
ENCODING 261
SWIDTH 562 0
DWIDTH 9 0
BBX 8 12 1 -2
BITMAP
7C
82
02
1E
62
82
82
82
86
7A
04
03
ENDCHAR
STARTCHAR U+0106
ENCODING 262
SWIDTH 687 0
DWIDTH 11 0
BBX 9 18 1 0
BITMAP
0200
0400
0800
0000
3E00
4100
8080
8080
8000
8000
8000
8000
8000
8000
8080
8080
4100
3E00
ENDCHAR
STARTCHAR U+0107
ENCODING 263
SWIDTH 625 0
DWIDTH 10 0
BBX 8 14 1 0
BITMAP
04
08
10
00
3C
42
81
80
80
80
80
81
42
3C
ENDCHAR
STARTCHAR U+0108
ENCODING 264
SWIDTH 687 0
DWIDTH 11 0
BBX 9 18 1 0
BITMAP
0800
1400
2200
0000
3E00
4100
8080
8080
8000
8000
8000
8000
8000
8000
8080
8080
4100
3E00
ENDCHAR
STARTCHAR U+0109
ENCODING 265
SWIDTH 625 0
DWIDTH 10 0
BBX 8 14 1 0
BITMAP
08
14
22
00
3C
42
81
80
80
80
80
81
42
3C
ENDCHAR
STARTCHAR U+010A
ENCODING 266
SWIDTH 687 0
DWIDTH 11 0
BBX 9 16 1 0
BITMAP
0800
0000
3E00
4100
8080
8080
8000
8000
8000
8000
8000
8000
8080
8080
4100
3E00
ENDCHAR
STARTCHAR U+010B
ENCODING 267
SWIDTH 625 0
DWIDTH 10 0
BBX 8 12 1 0
BITMAP
08
00
3C
42
81
80
80
80
80
81
42
3C
ENDCHAR
STARTCHAR U+010C
ENCODING 268
SWIDTH 687 0
DWIDTH 11 0
BBX 9 18 1 0
BITMAP
2200
1400
0800
0000
3E00
4100
8080
8080
8000
8000
8000
8000
8000
8000
8080
8080
4100
3E00
ENDCHAR
STARTCHAR U+010D
ENCODING 269
SWIDTH 625 0
DWIDTH 10 0
BBX 8 14 1 0
BITMAP
22
14
08
00
3C
42
81
80
80
80
80
81
42
3C
ENDCHAR
STARTCHAR U+010E
ENCODING 270
SWIDTH 625 0
DWIDTH 10 0
BBX 8 18 1 0
BITMAP
44
28
10
00
FC
82
81
81
81
81
81
81
81
81
81
81
82
FC
ENDCHAR
STARTCHAR U+010F
ENCODING 271
SWIDTH 625 0
DWIDTH 10 0
BBX 10 18 1 0
BITMAP
0440
0280
0100
0000
0100
0100
0100
0100
3D00
4300
8100
8100
8100
8100
8100
8100
4300
3D00
ENDCHAR
STARTCHAR U+0110
ENCODING 272
SWIDTH 687 0
DWIDTH 11 0
BBX 10 14 0 0
BITMAP
3F00
2080
2040
2040
2040
2040
FC40
2040
2040
2040
2040
2040
2080
3F00
ENDCHAR
STARTCHAR U+0111
ENCODING 273
SWIDTH 687 0
DWIDTH 11 0
BBX 10 14 1 0
BITMAP
0100
0FC0
0100
0100
3D00
4300
8100
8100
8100
8100
8100
8100
4300
3D00
ENDCHAR
STARTCHAR U+0112
ENCODING 274
SWIDTH 562 0
DWIDTH 9 0
BBX 7 16 1 0
BITMAP
7C
00
FE
80
80
80
80
80
FE
80
80
80
80
80
80
FE
ENDCHAR
STARTCHAR U+0113
ENCODING 275
SWIDTH 625 0
DWIDTH 10 0
BBX 8 12 1 0
BITMAP
7E
00
3C
42
81
81
FF
80
80
81
42
3C
ENDCHAR
STARTCHAR U+0114
ENCODING 276
SWIDTH 562 0
DWIDTH 9 0
BBX 7 17 1 0
BITMAP
44
38
00
FE
80
80
80
80
80
FE
80
80
80
80
80
80
FE
ENDCHAR
STARTCHAR U+0115
ENCODING 277
SWIDTH 625 0
DWIDTH 10 0
BBX 8 13 1 0
BITMAP
22
1C
00
3C
42
81
81
FF
80
80
81
42
3C
ENDCHAR
STARTCHAR U+0116
ENCODING 278
SWIDTH 562 0
DWIDTH 9 0
BBX 7 16 1 0
BITMAP
10
00
FE
80
80
80
80
80
FE
80
80
80
80
80
80
FE
ENDCHAR
STARTCHAR U+0117
ENCODING 279
SWIDTH 625 0
DWIDTH 10 0
BBX 8 12 1 0
BITMAP
08
00
3C
42
81
81
FF
80
80
81
42
3C
ENDCHAR
STARTCHAR U+0118
ENCODING 280
SWIDTH 562 0
DWIDTH 9 0
BBX 7 17 1 -3
BITMAP
FE
80
80
80
80
80
FE
80
80
80
80
80
80
FE
04
08
06
ENDCHAR
STARTCHAR U+0119
ENCODING 281
SWIDTH 625 0
DWIDTH 10 0
BBX 8 13 1 -3
BITMAP
3C
42
81
81
FF
80
80
81
42
3C
08
10
0C
ENDCHAR
STARTCHAR U+011A
ENCODING 282
SWIDTH 562 0
DWIDTH 9 0
BBX 7 18 1 0
BITMAP
44
28
10
00
FE
80
80
80
80
80
FE
80
80
80
80
80
80
FE
ENDCHAR
STARTCHAR U+011B
ENCODING 283
SWIDTH 625 0
DWIDTH 10 0
BBX 8 14 1 0
BITMAP
22
14
08
00
3C
42
81
81
FF
80
80
81
42
3C
ENDCHAR
STARTCHAR U+011C
ENCODING 284
SWIDTH 687 0
DWIDTH 11 0
BBX 9 18 1 0
BITMAP
0800
1400
2200
0000
3E00
4100
8080
8080
8000
8000
8780
8080
8080
8080
8080
8080
4100
3E00
ENDCHAR
STARTCHAR U+011D
ENCODING 285
SWIDTH 625 0
DWIDTH 10 0
BBX 8 17 1 -3
BITMAP
08
14
22
00
3D
43
81
81
81
81
81
43
3D
01
81
42
3C
ENDCHAR
STARTCHAR U+011E
ENCODING 286
SWIDTH 687 0
DWIDTH 11 0
BBX 9 17 1 0
BITMAP
2200
1C00
0000
3E00
4100
8080
8080
8000
8000
8780
8080
8080
8080
8080
8080
4100
3E00
ENDCHAR
STARTCHAR U+011F
ENCODING 287
SWIDTH 625 0
DWIDTH 10 0
BBX 8 16 1 -3
BITMAP
22
1C
00
3D
43
81
81
81
81
81
43
3D
01
81
42
3C
ENDCHAR
STARTCHAR U+0120
ENCODING 288
SWIDTH 687 0
DWIDTH 11 0
BBX 9 16 1 0
BITMAP
0800
0000
3E00
4100
8080
8080
8000
8000
8780
8080
8080
8080
8080
8080
4100
3E00
ENDCHAR
STARTCHAR U+0121
ENCODING 289
SWIDTH 625 0
DWIDTH 10 0
BBX 8 15 1 -3
BITMAP
08
00
3D
43
81
81
81
81
81
43
3D
01
81
42
3C
ENDCHAR
STARTCHAR U+0122
ENCODING 290
SWIDTH 687 0
DWIDTH 11 0
BBX 9 18 1 -4
BITMAP
3E00
4100
8080
8080
8000
8000
8780
8080
8080
8080
8080
8080
4100
3E00
0000
0800
1000
2000
ENDCHAR
STARTCHAR U+0123
ENCODING 291
SWIDTH 625 0
DWIDTH 10 0
BBX 8 17 1 -3
BITMAP
04
08
10
00
3D
43
81
81
81
81
81
43
3D
01
81
42
3C
ENDCHAR
STARTCHAR U+0124
ENCODING 292
SWIDTH 625 0
DWIDTH 10 0
BBX 8 18 1 0
BITMAP
08
14
22
00
81
81
81
81
81
81
FF
81
81
81
81
81
81
81
ENDCHAR
STARTCHAR U+0125
ENCODING 293
SWIDTH 562 0
DWIDTH 9 0
BBX 9 18 -1 0
BITMAP
2000
5000
8800
0000
2000
2000
2000
2000
2F00
3080
2080
2080
2080
2080
2080
2080
2080
2080
ENDCHAR
STARTCHAR U+0126
ENCODING 294
SWIDTH 750 0
DWIDTH 12 0
BBX 12 14 0 0
BITMAP
2040
2040
FFF0
2040
2040
2040
3FC0
2040
2040
2040
2040
2040
2040
2040
ENDCHAR
STARTCHAR U+0127
ENCODING 295
SWIDTH 625 0
DWIDTH 10 0
BBX 9 14 0 0
BITMAP
2000
FC00
2000
2000
2F00
3080
2080
2080
2080
2080
2080
2080
2080
2080
ENDCHAR
STARTCHAR U+0128
ENCODING 296
SWIDTH 312 0
DWIDTH 5 0
BBX 6 17 0 0
BITMAP
64
98
00
70
20
20
20
20
20
20
20
20
20
20
20
20
70
ENDCHAR
STARTCHAR U+0129
ENCODING 297
SWIDTH 375 0
DWIDTH 6 0
BBX 6 14 0 0
BITMAP
64
98
00
00
20
20
20
20
20
20
20
20
20
20
ENDCHAR
STARTCHAR U+012A
ENCODING 298
SWIDTH 312 0
DWIDTH 5 0
BBX 5 16 0 0
BITMAP
F8
00
70
20
20
20
20
20
20
20
20
20
20
20
20
70
ENDCHAR
STARTCHAR U+012B
ENCODING 299
SWIDTH 312 0
DWIDTH 5 0
BBX 5 13 0 0
BITMAP
F8
00
00
20
20
20
20
20
20
20
20
20
20
ENDCHAR
STARTCHAR U+012C
ENCODING 300
SWIDTH 312 0
DWIDTH 5 0
BBX 5 17 0 0
BITMAP
88
70
00
70
20
20
20
20
20
20
20
20
20
20
20
20
70
ENDCHAR
STARTCHAR U+012D
ENCODING 301
SWIDTH 312 0
DWIDTH 5 0
BBX 5 14 0 0
BITMAP
88
70
00
00
20
20
20
20
20
20
20
20
20
20
ENDCHAR
STARTCHAR U+012E
ENCODING 302
SWIDTH 312 0
DWIDTH 5 0
BBX 3 17 1 -3
BITMAP
E0
40
40
40
40
40
40
40
40
40
40
40
40
E0
40
80
60
ENDCHAR
STARTCHAR U+012F
ENCODING 303
SWIDTH 312 0
DWIDTH 5 0
BBX 3 16 1 -2
BITMAP
40
40
00
00
40
40
40
40
40
40
40
40
40
40
80
60
ENDCHAR
STARTCHAR U+0130
ENCODING 304
SWIDTH 312 0
DWIDTH 5 0
BBX 3 16 1 0
BITMAP
40
00
E0
40
40
40
40
40
40
40
40
40
40
40
40
E0
ENDCHAR
STARTCHAR U+0131
ENCODING 305
SWIDTH 312 0
DWIDTH 5 0
BBX 1 10 2 0
BITMAP
80
80
80
80
80
80
80
80
80
80
ENDCHAR
STARTCHAR U+0132
ENCODING 306
SWIDTH 812 0
DWIDTH 13 0
BBX 11 14 1 0
BITMAP
E020
4020
4020
4020
4020
4020
4020
4020
4020
4020
4820
4820
4440
E380
ENDCHAR
STARTCHAR U+0133
ENCODING 307
SWIDTH 562 0
DWIDTH 9 0
BBX 5 17 2 -3
BITMAP
88
88
00
00
88
88
88
88
88
88
88
88
88
88
08
08
70
ENDCHAR
STARTCHAR U+0134
ENCODING 308
SWIDTH 562 0
DWIDTH 9 0
BBX 9 18 1 0
BITMAP
0200
0500
0880
0000
0200
0200
0200
0200
0200
0200
0200
0200
0200
0200
8200
8200
4400
3800
ENDCHAR
STARTCHAR U+0135
ENCODING 309
SWIDTH 312 0
DWIDTH 5 0
BBX 6 17 -1 -3
BITMAP
10
28
44
00
10
10
10
10
10
10
10
10
10
10
10
10
E0
ENDCHAR
STARTCHAR U+0136
ENCODING 310
SWIDTH 625 0
DWIDTH 10 0
BBX 8 17 1 -3
BITMAP
81
81
82
82
84
84
F8
88
84
84
82
82
81
81
08
10
20
ENDCHAR
STARTCHAR U+0137
ENCODING 311
SWIDTH 562 0
DWIDTH 9 0
BBX 7 17 1 -3
BITMAP
80
80
80
80
82
84
88
90
A0
E0
90
88
84
82
10
20
40
ENDCHAR
STARTCHAR U+0138
ENCODING 312
SWIDTH 562 0
DWIDTH 9 0
BBX 7 10 1 0
BITMAP
82
84
88
90
A0
E0
90
88
84
82
ENDCHAR
STARTCHAR U+0139
ENCODING 313
SWIDTH 562 0
DWIDTH 9 0
BBX 7 18 1 0
BITMAP
20
40
80
00
80
80
80
80
80
80
80
80
80
80
80
80
80
FE
ENDCHAR
STARTCHAR U+013A
ENCODING 314
SWIDTH 312 0
DWIDTH 5 0
BBX 3 18 2 0
BITMAP
20
40
80
00
80
80
80
80
80
80
80
80
80
80
80
80
80
80
ENDCHAR
STARTCHAR U+013B
ENCODING 315
SWIDTH 562 0
DWIDTH 9 0
BBX 7 18 1 -4
BITMAP
80
80
80
80
80
80
80
80
80
80
80
80
80
FE
00
10
20
40
ENDCHAR
STARTCHAR U+013C
ENCODING 316
SWIDTH 312 0
DWIDTH 5 0
BBX 3 18 0 -4
BITMAP
20
20
20
20
20
20
20
20
20
20
20
20
20
20
00
20
40
80
ENDCHAR
STARTCHAR U+013D
ENCODING 317
SWIDTH 562 0
DWIDTH 9 0
BBX 7 14 1 0
BITMAP
88
90
A0
80
80
80
80
80
80
80
80
80
80
FE
ENDCHAR
STARTCHAR U+013E
ENCODING 318
SWIDTH 437 0
DWIDTH 7 0
BBX 5 14 2 0
BITMAP
88
90
A0
80
80
80
80
80
80
80
80
80
80
80
ENDCHAR
STARTCHAR U+013F
ENCODING 319
SWIDTH 562 0
DWIDTH 9 0
BBX 7 14 1 0
BITMAP
80
80
80
80
80
80
88
80
80
80
80
80
80
FE
ENDCHAR
STARTCHAR U+0140
ENCODING 320
SWIDTH 375 0
DWIDTH 6 0
BBX 3 14 2 0
BITMAP
80
80
80
80
80
80
A0
80
80
80
80
80
80
80
ENDCHAR
STARTCHAR U+0141
ENCODING 321
SWIDTH 625 0
DWIDTH 10 0
BBX 9 14 0 0
BITMAP
2000
2000
2000
2000
2400
2800
3000
6000
A000
2000
2000
2000
2000
3F80
ENDCHAR
STARTCHAR U+0142
ENCODING 322
SWIDTH 312 0
DWIDTH 5 0
BBX 5 14 0 0
BITMAP
20
20
20
20
20
28
30
60
A0
20
20
20
20
20
ENDCHAR
STARTCHAR U+0143
ENCODING 323
SWIDTH 625 0
DWIDTH 10 0
BBX 8 17 1 0
BITMAP
04
08
10
81
C1
C1
A1
A1
91
91
89
89
85
85
83
83
81
ENDCHAR
STARTCHAR U+0144
ENCODING 324
SWIDTH 562 0
DWIDTH 9 0
BBX 7 14 1 0
BITMAP
04
08
10
00
BC
C2
82
82
82
82
82
82
82
82
ENDCHAR
STARTCHAR U+0145
ENCODING 325
SWIDTH 625 0
DWIDTH 10 0
BBX 8 17 1 -3
BITMAP
81
C1
C1
A1
A1
91
91
89
89
85
85
83
83
81
08
10
20
ENDCHAR
STARTCHAR U+0146
ENCODING 326
SWIDTH 562 0
DWIDTH 9 0
BBX 7 13 1 -3
BITMAP
BC
C2
82
82
82
82
82
82
82
82
10
20
40
ENDCHAR
STARTCHAR U+0147
ENCODING 327
SWIDTH 625 0
DWIDTH 10 0
BBX 8 17 1 0
BITMAP
22
14
08
81
C1
C1
A1
A1
91
91
89
89
85
85
83
83
81
ENDCHAR
STARTCHAR U+0148
ENCODING 328
SWIDTH 562 0
DWIDTH 9 0
BBX 7 14 1 0
BITMAP
44
28
10
00
BC
C2
82
82
82
82
82
82
82
82
ENDCHAR
STARTCHAR U+0149
ENCODING 329
SWIDTH 687 0
DWIDTH 11 0
BBX 9 14 1 0
BITMAP
8000
8000
8000
0000
2F00
3080
2080
2080
2080
2080
2080
2080
2080
2080
ENDCHAR
STARTCHAR U+014A
ENCODING 330
SWIDTH 625 0
DWIDTH 10 0
BBX 8 17 1 -3
BITMAP
81
C1
C1
A1
A1
91
91
89
89
85
85
83
83
81
01
01
06
ENDCHAR
STARTCHAR U+014B
ENCODING 331
SWIDTH 562 0
DWIDTH 9 0
BBX 7 13 1 -3
BITMAP
BC
C2
82
82
82
82
82
82
82
82
02
02
0C
ENDCHAR
STARTCHAR U+014C
ENCODING 332
SWIDTH 687 0
DWIDTH 11 0
BBX 9 16 1 0
BITMAP
3E00
0000
3E00
4100
8080
8080
8080
8080
8080
8080
8080
8080
8080
8080
4100
3E00
ENDCHAR
STARTCHAR U+014D
ENCODING 333
SWIDTH 625 0
DWIDTH 10 0
BBX 8 12 1 0
BITMAP
7E
00
3C
42
81
81
81
81
81
81
42
3C
ENDCHAR
STARTCHAR U+014E
ENCODING 334
SWIDTH 687 0
DWIDTH 11 0
BBX 9 17 1 0
BITMAP
2200
1C00
0000
3E00
4100
8080
8080
8080
8080
8080
8080
8080
8080
8080
8080
4100
3E00
ENDCHAR
STARTCHAR U+014F
ENCODING 335
SWIDTH 625 0
DWIDTH 10 0
BBX 8 13 1 0
BITMAP
22
1C
00
3C
42
81
81
81
81
81
81
42
3C
ENDCHAR
STARTCHAR U+0150
ENCODING 336
SWIDTH 687 0
DWIDTH 11 0
BBX 9 18 1 0
BITMAP
0900
1200
2400
0000
3E00
4100
8080
8080
8080
8080
8080
8080
8080
8080
8080
8080
4100
3E00
ENDCHAR
STARTCHAR U+0151
ENCODING 337
SWIDTH 625 0
DWIDTH 10 0
BBX 8 14 1 0
BITMAP
09
12
24
00
3C
42
81
81
81
81
81
81
42
3C
ENDCHAR
STARTCHAR U+0152
ENCODING 338
SWIDTH 937 0
DWIDTH 15 0
BBX 13 14 1 0
BITMAP
3DF8
4300
8100
8100
8100
8100
81F8
8100
8100
8100
8100
8100
4300
3DF8
ENDCHAR
STARTCHAR U+0153
ENCODING 339
SWIDTH 937 0
DWIDTH 15 0
BBX 13 10 1 0
BITMAP
38E0
4510
8208
8208
83F8
8200
8200
8208
4510
38E0
ENDCHAR
STARTCHAR U+0154
ENCODING 340
SWIDTH 625 0
DWIDTH 10 0
BBX 8 18 1 0
BITMAP
04
08
10
00
FC
82
81
81
81
81
82
FC
84
84
82
82
81
81
ENDCHAR
STARTCHAR U+0155
ENCODING 341
SWIDTH 375 0
DWIDTH 6 0
BBX 5 14 1 0
BITMAP
10
20
40
00
B8
C0
80
80
80
80
80
80
80
80
ENDCHAR
STARTCHAR U+0156
ENCODING 342
SWIDTH 625 0
DWIDTH 10 0
BBX 8 17 1 -3
BITMAP
FC
82
81
81
81
81
82
FC
84
84
82
82
81
81
08
10
20
ENDCHAR
STARTCHAR U+0157
ENCODING 343
SWIDTH 375 0
DWIDTH 6 0
BBX 7 14 -1 -4
BITMAP
2E
30
20
20
20
20
20
20
20
20
00
20
40
80
ENDCHAR
STARTCHAR U+0158
ENCODING 344
SWIDTH 625 0
DWIDTH 10 0
BBX 8 18 1 0
BITMAP
44
28
10
00
FC
82
81
81
81
81
82
FC
84
84
82
82
81
81
ENDCHAR
STARTCHAR U+0159
ENCODING 345
SWIDTH 375 0
DWIDTH 6 0
BBX 5 14 1 0
BITMAP
88
50
20
00
B8
C0
80
80
80
80
80
80
80
80
ENDCHAR
STARTCHAR U+015A
ENCODING 346
SWIDTH 687 0
DWIDTH 11 0
BBX 9 18 1 0
BITMAP
0200
0400
0800
0000
3E00
4100
8080
8080
8000
4000
3E00
0100
0080
0080
8080
8080
4100
3E00
ENDCHAR
STARTCHAR U+015B
ENCODING 347
SWIDTH 562 0
DWIDTH 9 0
BBX 7 14 1 0
BITMAP
04
08
10
00
7C
82
82
80
7C
02
02
82
82
7C
ENDCHAR
STARTCHAR U+015C
ENCODING 348
SWIDTH 687 0
DWIDTH 11 0
BBX 9 18 1 0
BITMAP
0800
1400
2200
0000
3E00
4100
8080
8080
8000
4000
3E00
0100
0080
0080
8080
8080
4100
3E00
ENDCHAR
STARTCHAR U+015D
ENCODING 349
SWIDTH 562 0
DWIDTH 9 0
BBX 7 14 1 0
BITMAP
10
28
44
00
7C
82
82
80
7C
02
02
82
82
7C
ENDCHAR
STARTCHAR U+015E
ENCODING 350
SWIDTH 687 0
DWIDTH 11 0
BBX 9 17 1 -3
BITMAP
3E00
4100
8080
8080
8000
4000
3E00
0100
0080
0080
8080
8080
4100
3E00
0800
0400
1800
ENDCHAR
STARTCHAR U+015F
ENCODING 351
SWIDTH 562 0
DWIDTH 9 0
BBX 7 13 1 -3
BITMAP
7C
82
82
80
7C
02
02
82
82
7C
10
08
30
ENDCHAR
STARTCHAR U+0160
ENCODING 352
SWIDTH 687 0
DWIDTH 11 0
BBX 9 18 1 0
BITMAP
2200
1400
0800
0000
3E00
4100
8080
8080
8000
4000
3E00
0100
0080
0080
8080
8080
4100
3E00
ENDCHAR
STARTCHAR U+0161
ENCODING 353
SWIDTH 562 0
DWIDTH 9 0
BBX 7 14 1 0
BITMAP
44
28
10
00
7C
82
82
80
7C
02
02
82
82
7C
ENDCHAR
STARTCHAR U+0162
ENCODING 354
SWIDTH 687 0
DWIDTH 11 0
BBX 9 18 1 -4
BITMAP
FF80
0800
0800
0800
0800
0800
0800
0800
0800
0800
0800
0800
0800
0800
0000
0800
1000
2000
ENDCHAR
STARTCHAR U+0163
ENCODING 355
SWIDTH 375 0
DWIDTH 6 0
BBX 6 17 0 -4
BITMAP
20
20
20
FC
20
20
20
20
20
20
20
20
1C
00
10
20
40
ENDCHAR
STARTCHAR U+0164
ENCODING 356
SWIDTH 687 0
DWIDTH 11 0
BBX 9 18 1 0
BITMAP
2200
1400
0800
0000
FF80
0800
0800
0800
0800
0800
0800
0800
0800
0800
0800
0800
0800
0800
ENDCHAR
STARTCHAR U+0165
ENCODING 357
SWIDTH 375 0
DWIDTH 6 0
BBX 6 17 0 0
BITMAP
88
50
20
00
20
20
20
FC
20
20
20
20
20
20
20
20
1C
ENDCHAR
STARTCHAR U+0166
ENCODING 358
SWIDTH 687 0
DWIDTH 11 0
BBX 9 14 1 0
BITMAP
FF80
0800
0800
0800
0800
0800
7F00
0800
0800
0800
0800
0800
0800
0800
ENDCHAR
STARTCHAR U+0167
ENCODING 359
SWIDTH 375 0
DWIDTH 6 0
BBX 6 13 0 0
BITMAP
20
20
20
FC
20
20
20
FC
20
20
20
20
1C
ENDCHAR
STARTCHAR U+0168
ENCODING 360
SWIDTH 687 0
DWIDTH 11 0
BBX 9 17 1 0
BITMAP
1900
2600
0000
8080
8080
8080
8080
8080
8080
8080
8080
8080
8080
8080
8080
4100
3E00
ENDCHAR
STARTCHAR U+0169
ENCODING 361
SWIDTH 562 0
DWIDTH 9 0
BBX 7 13 1 0
BITMAP
32
4C
00
82
82
82
82
82
82
82
82
86
7A
ENDCHAR
STARTCHAR U+016A
ENCODING 362
SWIDTH 687 0
DWIDTH 11 0
BBX 9 16 1 0
BITMAP
3E00
0000
8080
8080
8080
8080
8080
8080
8080
8080
8080
8080
8080
8080
4100
3E00
ENDCHAR
STARTCHAR U+016B
ENCODING 363
SWIDTH 562 0
DWIDTH 9 0
BBX 7 12 1 0
BITMAP
7C
00
82
82
82
82
82
82
82
82
86
7A
ENDCHAR
STARTCHAR U+016C
ENCODING 364
SWIDTH 687 0
DWIDTH 11 0
BBX 9 17 1 0
BITMAP
2200
1C00
0000
8080
8080
8080
8080
8080
8080
8080
8080
8080
8080
8080
8080
4100
3E00
ENDCHAR
STARTCHAR U+016D
ENCODING 365
SWIDTH 562 0
DWIDTH 9 0
BBX 7 13 1 0
BITMAP
44
38
00
82
82
82
82
82
82
82
82
86
7A
ENDCHAR
STARTCHAR U+016E
ENCODING 366
SWIDTH 687 0
DWIDTH 11 0
BBX 9 17 1 0
BITMAP
0800
1400
0800
8080
8080
8080
8080
8080
8080
8080
8080
8080
8080
8080
8080
4100
3E00
ENDCHAR
STARTCHAR U+016F
ENCODING 367
SWIDTH 562 0
DWIDTH 9 0
BBX 7 14 1 0
BITMAP
10
28
10
00
82
82
82
82
82
82
82
82
86
7A
ENDCHAR
STARTCHAR U+0170
ENCODING 368
SWIDTH 687 0
DWIDTH 11 0
BBX 9 17 1 0
BITMAP
0900
1200
2400
8080
8080
8080
8080
8080
8080
8080
8080
8080
8080
8080
8080
4100
3E00
ENDCHAR
STARTCHAR U+0171
ENCODING 369
SWIDTH 562 0
DWIDTH 9 0
BBX 7 14 1 0
BITMAP
12
24
48
00
82
82
82
82
82
82
82
82
86
7A
ENDCHAR
STARTCHAR U+0172
ENCODING 370
SWIDTH 687 0
DWIDTH 11 0
BBX 9 17 1 -3
BITMAP
8080
8080
8080
8080
8080
8080
8080
8080
8080
8080
8080
8080
4100
3E00
0800
1000
0C00
ENDCHAR
STARTCHAR U+0173
ENCODING 371
SWIDTH 562 0
DWIDTH 9 0
BBX 8 13 1 -3
BITMAP
82
82
82
82
82
82
82
82
86
7A
02
04
03
ENDCHAR
STARTCHAR U+0174
ENCODING 372
SWIDTH 687 0
DWIDTH 11 0
BBX 9 17 1 0
BITMAP
0800
1400
2200
8880
8880
8880
8880
8880
8880
5500
5500
5500
5500
5500
2200
2200
2200
ENDCHAR
STARTCHAR U+0175
ENCODING 373
SWIDTH 687 0
DWIDTH 11 0
BBX 9 13 1 0
BITMAP
0800
1400
2200
8880
8880
8880
8880
5500
5500
5500
2200
2200
2200
ENDCHAR
STARTCHAR U+0176
ENCODING 374
SWIDTH 687 0
DWIDTH 11 0
BBX 9 18 1 0
BITMAP
0800
1400
2200
0000
8080
8080
4100
4100
2200
2200
1400
1400
0800
0800
0800
0800
0800
0800
ENDCHAR
STARTCHAR U+0177
ENCODING 375
SWIDTH 562 0
DWIDTH 9 0
BBX 7 17 1 -3
BITMAP
10
28
44
00
82
82
82
44
44
44
28
28
28
10
10
20
C0
ENDCHAR
STARTCHAR U+0178
ENCODING 376
SWIDTH 687 0
DWIDTH 11 0
BBX 9 16 1 0
BITMAP
1400
0000
8080
8080
4100
4100
2200
2200
1400
1400
0800
0800
0800
0800
0800
0800
ENDCHAR
STARTCHAR U+0179
ENCODING 377
SWIDTH 625 0
DWIDTH 10 0
BBX 8 18 1 0
BITMAP
04
08
10
00
FF
02
04
04
08
08
10
10
20
20
40
40
80
FF
ENDCHAR
STARTCHAR U+017A
ENCODING 378
SWIDTH 562 0
DWIDTH 9 0
BBX 7 14 1 0
BITMAP
04
08
10
00
FE
04
08
08
10
10
20
20
40
FE
ENDCHAR
STARTCHAR U+017B
ENCODING 379
SWIDTH 625 0
DWIDTH 10 0
BBX 8 16 1 0
BITMAP
08
00
FF
02
04
04
08
08
10
10
20
20
40
40
80
FF
ENDCHAR
STARTCHAR U+017C
ENCODING 380
SWIDTH 562 0
DWIDTH 9 0
BBX 7 12 1 0
BITMAP
10
00
FE
04
08
08
10
10
20
20
40
FE
ENDCHAR
STARTCHAR U+017D
ENCODING 381
SWIDTH 625 0
DWIDTH 10 0
BBX 8 18 1 0
BITMAP
22
14
08
00
FF
02
04
04
08
08
10
10
20
20
40
40
80
FF
ENDCHAR
STARTCHAR U+017E
ENCODING 382
SWIDTH 562 0
DWIDTH 9 0
BBX 7 14 1 0
BITMAP
44
28
10
00
FE
04
08
08
10
10
20
20
40
FE
ENDCHAR
STARTCHAR U+017F
ENCODING 383
SWIDTH 375 0
DWIDTH 6 0
BBX 4 14 2 0
BITMAP
70
80
80
80
80
80
80
80
80
80
80
80
80
80
ENDCHAR
STARTCHAR U+02D0
ENCODING 720
SWIDTH 437 0
DWIDTH 7 0
BBX 5 10 1 0
BITMAP
F8
70
20
00
00
00
00
20
70
F8
ENDCHAR
STARTCHAR U+2010
ENCODING 8208
SWIDTH 500 0
DWIDTH 8 0
BBX 6 1 1 6
BITMAP
FC
ENDCHAR
STARTCHAR U+2011
ENCODING 8209
SWIDTH 500 0
DWIDTH 8 0
BBX 6 1 1 6
BITMAP
FC
ENDCHAR
STARTCHAR U+2012
ENCODING 8210
SWIDTH 937 0
DWIDTH 15 0
BBX 13 1 1 6
BITMAP
FFF8
ENDCHAR
STARTCHAR U+2013
ENCODING 8211
SWIDTH 500 0
DWIDTH 8 0
BBX 6 1 1 6
BITMAP
FC
ENDCHAR
STARTCHAR U+2014
ENCODING 8212
SWIDTH 937 0
DWIDTH 15 0
BBX 14 1 0 6
BITMAP
FFFC
ENDCHAR
STARTCHAR U+2015
ENCODING 8213
SWIDTH 937 0
DWIDTH 15 0
BBX 14 1 0 6
BITMAP
FFFC
ENDCHAR
STARTCHAR U+2018
ENCODING 8216
SWIDTH 312 0
DWIDTH 5 0
BBX 2 3 2 11
BITMAP
40
80
80
ENDCHAR
STARTCHAR U+2019
ENCODING 8217
SWIDTH 312 0
DWIDTH 5 0
BBX 2 3 1 11
BITMAP
40
40
80
ENDCHAR
STARTCHAR U+201A
ENCODING 8218
SWIDTH 312 0
DWIDTH 5 0
BBX 2 3 1 -1
BITMAP
40
40
80
ENDCHAR
STARTCHAR U+201B
ENCODING 8219
SWIDTH 312 0
DWIDTH 5 0
BBX 2 3 2 11
BITMAP
80
80
40
ENDCHAR
STARTCHAR U+201C
ENCODING 8220
SWIDTH 312 0
DWIDTH 5 0
BBX 4 3 1 11
BITMAP
50
A0
A0
ENDCHAR
STARTCHAR U+201D
ENCODING 8221
SWIDTH 312 0
DWIDTH 5 0
BBX 4 3 0 11
BITMAP
50
50
A0
ENDCHAR
STARTCHAR U+201E
ENCODING 8222
SWIDTH 312 0
DWIDTH 5 0
BBX 4 3 0 -1
BITMAP
50
50
A0
ENDCHAR
STARTCHAR U+201F
ENCODING 8223
SWIDTH 312 0
DWIDTH 5 0
BBX 4 3 1 11
BITMAP
A0
A0
50
ENDCHAR
STARTCHAR U+2020
ENCODING 8224
SWIDTH 562 0
DWIDTH 9 0
BBX 7 14 1 0
BITMAP
10
10
10
FE
10
10
10
10
10
10
10
10
10
10
ENDCHAR
STARTCHAR U+2021
ENCODING 8225
SWIDTH 562 0
DWIDTH 9 0
BBX 7 14 1 0
BITMAP
10
10
10
FE
10
10
10
10
10
10
FE
10
10
10
ENDCHAR
STARTCHAR U+2022
ENCODING 8226
SWIDTH 375 0
DWIDTH 6 0
BBX 4 4 1 5
BITMAP
60
F0
F0
60
ENDCHAR
STARTCHAR U+2023
ENCODING 8227
SWIDTH 375 0
DWIDTH 6 0
BBX 3 6 2 4
BITMAP
80
C0
E0
E0
C0
80
ENDCHAR
STARTCHAR U+2024
ENCODING 8228
SWIDTH 312 0
DWIDTH 5 0
BBX 1 1 2 0
BITMAP
80
ENDCHAR
STARTCHAR U+2025
ENCODING 8229
SWIDTH 937 0
DWIDTH 15 0
BBX 8 1 3 6
BITMAP
81
ENDCHAR
STARTCHAR U+2026
ENCODING 8230
SWIDTH 937 0
DWIDTH 15 0
BBX 11 1 2 6
BITMAP
8420
ENDCHAR
STARTCHAR U+2027
ENCODING 8231
SWIDTH 312 0
DWIDTH 5 0
BBX 1 1 2 6
BITMAP
80
ENDCHAR
STARTCHAR U+2030
ENCODING 8240
SWIDTH 937 0
DWIDTH 15 0
BBX 12 12 1 1
BITMAP
7000
8840
8880
8900
7200
0400
0800
1360
2490
4490
8490
0360
ENDCHAR
STARTCHAR U+203B
ENCODING 8251
SWIDTH 937 0
DWIDTH 15 0
BBX 13 13 1 1
BITMAP
8308
4310
2020
1040
0880
C500
C218
0518
0880
1040
2020
4610
8608
ENDCHAR
STARTCHAR U+2043
ENCODING 8259
SWIDTH 375 0
DWIDTH 6 0
BBX 4 1 1 6
BITMAP
F0
ENDCHAR
STARTCHAR U+2044
ENCODING 8260
SWIDTH 562 0
DWIDTH 9 0
BBX 7 14 1 0
BITMAP
02
02
04
04
08
08
10
10
20
20
40
40
80
80
ENDCHAR
STARTCHAR U+20A3
ENCODING 8355
SWIDTH 625 0
DWIDTH 10 0
BBX 9 14 0 0
BITMAP
3F80
2000
2000
2000
2000
2000
3F80
2000
2000
2000
FE00
2000
2000
2000
ENDCHAR
STARTCHAR U+20A4
ENCODING 8356
SWIDTH 687 0
DWIDTH 11 0
BBX 9 14 1 0
BITMAP
0700
0880
1000
1000
1000
FF00
1000
1000
FF00
1000
2000
2000
4000
FF80
ENDCHAR
STARTCHAR U+20A7
ENCODING 8359
SWIDTH 875 0
DWIDTH 14 0
BBX 12 14 1 0
BITMAP
3F00
2080
2040
2040
FFF0
2040
2040
2080
3F00
2000
2000
2000
2000
2000
ENDCHAR
STARTCHAR U+20A9
ENCODING 8361
SWIDTH 812 0
DWIDTH 13 0
BBX 11 14 1 0
BITMAP
4440
4440
4440
4440
FFE0
2A80
2A80
FFE0
2A80
2A80
2A80
1100
1100
1100
ENDCHAR
STARTCHAR U+20AC
ENCODING 8364
SWIDTH 750 0
DWIDTH 12 0
BBX 11 14 0 0
BITMAP
0F80
1040
2020
2000
2000
FF80
2000
2000
FF80
2000
2000
2020
1040
0F80
ENDCHAR
STARTCHAR U+20B1
ENCODING 8369
SWIDTH 875 0
DWIDTH 14 0
BBX 12 14 1 0
BITMAP
3F00
2080
FFF0
2040
2040
FFF0
2040
2080
3F00
2000
2000
2000
2000
2000
ENDCHAR
STARTCHAR U+20B9
ENCODING 8377
SWIDTH 562 0
DWIDTH 9 0
BBX 7 14 1 0
BITMAP
FE
10
08
FE
08
08
10
E0
40
20
10
10
08
08
ENDCHAR
STARTCHAR U+20BD
ENCODING 8381
SWIDTH 750 0
DWIDTH 12 0
BBX 10 14 1 0
BITMAP
3F00
2080
2040
2040
2040
2040
2040
2080
FF00
2000
2000
FE00
2000
2000
ENDCHAR
STARTCHAR U+2103
ENCODING 8451
SWIDTH 937 0
DWIDTH 15 0
BBX 13 14 1 0
BITMAP
6000
91E0
9210
6408
0408
0400
0400
0400
0400
0400
0408
0408
0210
01E0
ENDCHAR
STARTCHAR U+2105
ENCODING 8453
SWIDTH 937 0
DWIDTH 15 0
BBX 13 13 1 0
BITMAP
7000
8810
8020
8040
8080
8900
7270
0488
0888
1088
2088
4088
0070
ENDCHAR
STARTCHAR U+2109
ENCODING 8457
SWIDTH 875 0
DWIDTH 14 0
BBX 12 14 1 0
BITMAP
6000
97F0
9400
6400
0400
0400
0400
07F0
0400
0400
0400
0400
0400
0400
ENDCHAR
STARTCHAR U+2113
ENCODING 8467
SWIDTH 500 0
DWIDTH 8 0
BBX 6 14 1 0
BITMAP
30
48
48
48
48
48
48
48
50
50
60
40
A4
18
ENDCHAR
STARTCHAR U+2116
ENCODING 8470
SWIDTH 937 0
DWIDTH 15 0
BBX 13 14 1 0
BITMAP
8400
8400
C400
C400
A4E0
A510
A510
9510
9510
9510
8D10
8D10
8510
84E8
ENDCHAR
STARTCHAR U+2117
ENCODING 8471
SWIDTH 937 0
DWIDTH 15 0
BBX 13 13 1 1
BITMAP
0F80
3060
4010
4F10
8888
8888
8F08
8808
8808
4810
4010
3060
0F80
ENDCHAR
STARTCHAR U+2121
ENCODING 8481
SWIDTH 937 0
DWIDTH 15 0
BBX 14 14 0 0
BITMAP
FBA0
2220
2220
2220
2220
2220
23A0
2220
2220
2220
2220
2220
2220
23BC
ENDCHAR
STARTCHAR U+2122
ENCODING 8482
SWIDTH 937 0
DWIDTH 15 0
BBX 13 5 1 9
BITMAP
FA08
2318
22A8
2248
2208
ENDCHAR
STARTCHAR U+2126
ENCODING 8486
SWIDTH 937 0
DWIDTH 15 0
BBX 11 14 2 0
BITMAP
1F00
2080
4040
8020
8020
8020
8020
8020
8020
4040
2080
1100
1100
F1E0
ENDCHAR
STARTCHAR U+212E
ENCODING 8494
SWIDTH 937 0
DWIDTH 15 0
BBX 13 13 1 0
BITMAP
0F80
3060
4010
4010
C018
C018
FFF8
C000
C000
4000
4010
3060
0F80
ENDCHAR
STARTCHAR U+2150
ENCODING 8528
SWIDTH 937 0
DWIDTH 15 0
BBX 12 13 2 0
BITMAP
4000
C020
4040
4080
4100
4200
E5F0
0810
1020
2020
4040
8040
0040
ENDCHAR
STARTCHAR U+2151
ENCODING 8529
SWIDTH 937 0
DWIDTH 15 0
BBX 12 13 2 0
BITMAP
4000
C020
4040
4080
4100
4200
E4E0
0910
1110
20F0
4010
8110
00E0
ENDCHAR
STARTCHAR U+2152
ENCODING 8530
SWIDTH 937 0
DWIDTH 15 0
BBX 12 13 2 0
BITMAP
4000
C020
4040
4080
4100
4200
E660
0A90
1290
2290
4290
8290
0260
ENDCHAR
STARTCHAR U+2153
ENCODING 8531
SWIDTH 937 0
DWIDTH 15 0
BBX 12 13 2 0
BITMAP
4000
C020
4040
4080
4100
4200
E4E0
0910
1010
2060
4010
8110
00E0
ENDCHAR
STARTCHAR U+2154
ENCODING 8532
SWIDTH 937 0
DWIDTH 15 0
BBX 13 13 1 0
BITMAP
7000
8810
0820
1040
2080
4100
FA70
0488
0808
1030
2008
4088
0070
ENDCHAR
STARTCHAR U+2155
ENCODING 8533
SWIDTH 937 0
DWIDTH 15 0
BBX 12 13 2 0
BITMAP
4000
C020
4040
4080
4100
4200
E5F0
0900
11E0
2110
4010
8110
00E0
ENDCHAR
STARTCHAR U+2156
ENCODING 8534
SWIDTH 937 0
DWIDTH 15 0
BBX 13 13 1 0
BITMAP
7000
8810
0820
1040
2080
4100
FAF8
0480
08F0
1088
2008
4088
0070
ENDCHAR
STARTCHAR U+2157
ENCODING 8535
SWIDTH 937 0
DWIDTH 15 0
BBX 13 13 1 0
BITMAP
7000
8810
0820
3040
0880
8900
72F8
0480
08F0
1088
2008
4088
0070
ENDCHAR
STARTCHAR U+2158
ENCODING 8536
SWIDTH 937 0
DWIDTH 15 0
BBX 13 13 1 0
BITMAP
1800
2810
4820
8840
FC80
0900
0AF8
0480
08F0
1088
2008
4088
0070
ENDCHAR
STARTCHAR U+2159
ENCODING 8537
SWIDTH 937 0
DWIDTH 15 0
BBX 12 13 2 0
BITMAP
4000
C020
4040
4080
4100
4200
E4E0
0910
1100
21E0
4110
8110
00E0
ENDCHAR
STARTCHAR U+215A
ENCODING 8538
SWIDTH 937 0
DWIDTH 15 0
BBX 13 13 1 0
BITMAP
F800
8010
F020
8840
0880
8900
7270
0488
0880
10F0
2088
4088
0070
ENDCHAR
STARTCHAR U+215B
ENCODING 8539
SWIDTH 937 0
DWIDTH 15 0
BBX 12 13 2 0
BITMAP
4000
C020
4040
4080
4100
4200
E4E0
0910
1110
20E0
4110
8110
00E0
ENDCHAR
STARTCHAR U+215C
ENCODING 8540
SWIDTH 937 0
DWIDTH 15 0
BBX 13 13 1 0
BITMAP
7000
8810
0820
3040
0880
8900
7270
0488
0888
1070
2088
4088
0070
ENDCHAR
STARTCHAR U+215D
ENCODING 8541
SWIDTH 937 0
DWIDTH 15 0
BBX 13 13 1 0
BITMAP
F800
8010
F020
8840
0880
8900
7270
0488
0888
1070
2088
4088
0070
ENDCHAR
STARTCHAR U+215E
ENCODING 8542
SWIDTH 937 0
DWIDTH 15 0
BBX 13 13 1 0
BITMAP
F800
0810
1020
1040
2080
2100
2270
0488
0888
1070
2088
4088
0070
ENDCHAR
STARTCHAR U+215F
ENCODING 8543
SWIDTH 937 0
DWIDTH 15 0
BBX 11 12 2 1
BITMAP
4000
C020
4040
4080
4100
4200
E400
0800
1000
2000
4000
8000
ENDCHAR
STARTCHAR U+2160
ENCODING 8544
SWIDTH 312 0
DWIDTH 5 0
BBX 1 14 2 0
BITMAP
80
80
80
80
80
80
80
80
80
80
80
80
80
80
ENDCHAR
STARTCHAR U+2161
ENCODING 8545
SWIDTH 562 0
DWIDTH 9 0
BBX 5 14 2 0
BITMAP
88
88
88
88
88
88
88
88
88
88
88
88
88
88
ENDCHAR
STARTCHAR U+2162
ENCODING 8546
SWIDTH 687 0
DWIDTH 11 0
BBX 7 14 2 0
BITMAP
92
92
92
92
92
92
92
92
92
92
92
92
92
92
ENDCHAR
STARTCHAR U+2163
ENCODING 8547
SWIDTH 937 0
DWIDTH 15 0
BBX 12 14 2 0
BITMAP
9010
9010
9010
8820
8820
8820
8440
8440
8440
8280
8280
8280
8100
8100
ENDCHAR
STARTCHAR U+2164
ENCODING 8548
SWIDTH 687 0
DWIDTH 11 0
BBX 9 14 1 0
BITMAP
8080
8080
8080
4100
4100
4100
2200
2200
2200
1400
1400
1400
0800
0800
ENDCHAR
STARTCHAR U+2165
ENCODING 8549
SWIDTH 937 0
DWIDTH 15 0
BBX 12 14 1 0
BITMAP
8090
8090
8090
4110
4110
4110
2210
2210
2210
1410
1410
1410
0810
0810
ENDCHAR
STARTCHAR U+2166
ENCODING 8550
SWIDTH 937 0
DWIDTH 15 0
BBX 14 14 0 0
BITMAP
80A4
80A4
80A4
4124
4124
4124
2224
2224
2224
1424
1424
1424
0824
0824
ENDCHAR
STARTCHAR U+2167
ENCODING 8551
SWIDTH 937 0
DWIDTH 15 0
BBX 14 14 0 0
BITMAP
80D4
80D4
80D4
4154
4154
4154
2254
2254
2254
1454
1454
1454
0854
0854
ENDCHAR
STARTCHAR U+2168
ENCODING 8552
SWIDTH 875 0
DWIDTH 14 0
BBX 11 14 2 0
BITMAP
9020
9020
8840
8840
8480
8480
8300
8300
8480
8480
8840
8840
9020
9020
ENDCHAR
STARTCHAR U+2169
ENCODING 8553
SWIDTH 625 0
DWIDTH 10 0
BBX 8 14 1 0
BITMAP
81
81
42
42
24
24
18
18
24
24
42
42
81
81
ENDCHAR
STARTCHAR U+216A
ENCODING 8554
SWIDTH 875 0
DWIDTH 14 0
BBX 11 14 1 0
BITMAP
8120
8120
4220
4220
2420
2420
1820
1820
2420
2420
4220
4220
8120
8120
ENDCHAR
STARTCHAR U+216B
ENCODING 8555
SWIDTH 937 0
DWIDTH 15 0
BBX 13 14 1 0
BITMAP
8148
8148
4248
4248
2448
2448
1848
1848
2448
2448
4248
4248
8148
8148
ENDCHAR
STARTCHAR U+216C
ENCODING 8556
SWIDTH 562 0
DWIDTH 9 0
BBX 7 14 1 0
BITMAP
80
80
80
80
80
80
80
80
80
80
80
80
80
FE
ENDCHAR
STARTCHAR U+216D
ENCODING 8557
SWIDTH 625 0
DWIDTH 10 0
BBX 8 14 1 0
BITMAP
3C
42
81
81
80
80
80
80
80
80
81
81
42
3C
ENDCHAR
STARTCHAR U+216E
ENCODING 8558
SWIDTH 625 0
DWIDTH 10 0
BBX 8 14 1 0
BITMAP
FC
82
81
81
81
81
81
81
81
81
81
81
82
FC
ENDCHAR
STARTCHAR U+216F
ENCODING 8559
SWIDTH 687 0
DWIDTH 11 0
BBX 9 14 1 0
BITMAP
8080
8080
C180
C180
C180
A280
A280
A280
9480
9480
9480
8880
8880
8080
ENDCHAR
STARTCHAR U+2170
ENCODING 8560
SWIDTH 312 0
DWIDTH 5 0
BBX 1 14 2 0
BITMAP
80
80
00
00
80
80
80
80
80
80
80
80
80
80
ENDCHAR
STARTCHAR U+2171
ENCODING 8561
SWIDTH 562 0
DWIDTH 9 0
BBX 5 14 2 0
BITMAP
88
88
00
00
88
88
88
88
88
88
88
88
88
88
ENDCHAR
STARTCHAR U+2172
ENCODING 8562
SWIDTH 687 0
DWIDTH 11 0
BBX 7 14 2 0
BITMAP
92
92
00
00
92
92
92
92
92
92
92
92
92
92
ENDCHAR
STARTCHAR U+2173
ENCODING 8563
SWIDTH 812 0
DWIDTH 13 0
BBX 10 14 2 0
BITMAP
8000
8000
0000
0000
9040
9040
9040
8880
8880
8880
8500
8500
8200
8200
ENDCHAR
STARTCHAR U+2174
ENCODING 8564
SWIDTH 562 0
DWIDTH 9 0
BBX 7 10 1 0
BITMAP
82
82
82
44
44
44
28
28
10
10
ENDCHAR
STARTCHAR U+2175
ENCODING 8565
SWIDTH 812 0
DWIDTH 13 0
BBX 10 14 1 0
BITMAP
0040
0040
0000
0000
8240
8240
8240
4440
4440
4440
2840
2840
1040
1040
ENDCHAR
STARTCHAR U+2176
ENCODING 8566
SWIDTH 937 0
DWIDTH 15 0
BBX 12 14 1 0
BITMAP
0090
0090
0000
0000
8290
8290
8290
4490
4490
4490
2890
2890
1090
1090
ENDCHAR
STARTCHAR U+2177
ENCODING 8567
SWIDTH 937 0
DWIDTH 15 0
BBX 13 14 1 0
BITMAP
00A8
00A8
0000
0000
82A8
82A8
82A8
44A8
44A8
44A8
28A8
28A8
10A8
10A8
ENDCHAR
STARTCHAR U+2178
ENCODING 8568
SWIDTH 812 0
DWIDTH 13 0
BBX 10 14 2 0
BITMAP
8000
8000
0000
0000
9040
8880
8500
8500
8200
8200
8500
8500
8880
9040
ENDCHAR
STARTCHAR U+2179
ENCODING 8569
SWIDTH 562 0
DWIDTH 9 0
BBX 7 10 1 0
BITMAP
82
44
28
28
10
10
28
28
44
82
ENDCHAR
STARTCHAR U+217A
ENCODING 8570
SWIDTH 812 0
DWIDTH 13 0
BBX 10 14 1 0
BITMAP
0040
0040
0000
0000
8240
4440
2840
2840
1040
1040
2840
2840
4440
8240
ENDCHAR
STARTCHAR U+217B
ENCODING 8571
SWIDTH 937 0
DWIDTH 15 0
BBX 12 14 1 0
BITMAP
0090
0090
0000
0000
8290
4490
2890
2890
1090
1090
2890
2890
4490
8290
ENDCHAR
STARTCHAR U+217C
ENCODING 8572
SWIDTH 312 0
DWIDTH 5 0
BBX 1 14 2 0
BITMAP
80
80
80
80
80
80
80
80
80
80
80
80
80
80
ENDCHAR
STARTCHAR U+217D
ENCODING 8573
SWIDTH 625 0
DWIDTH 10 0
BBX 8 10 1 0
BITMAP
3C
42
81
80
80
80
80
81
42
3C
ENDCHAR
STARTCHAR U+217E
ENCODING 8574
SWIDTH 625 0
DWIDTH 10 0
BBX 8 14 1 0
BITMAP
01
01
01
01
3D
43
81
81
81
81
81
81
43
3D
ENDCHAR
STARTCHAR U+217F
ENCODING 8575
SWIDTH 687 0
DWIDTH 11 0
BBX 9 10 1 0
BITMAP
B300
CC80
8880
8880
8880
8880
8880
8880
8880
8880
ENDCHAR
STARTCHAR U+2180
ENCODING 8576
SWIDTH 937 0
DWIDTH 15 0
BBX 13 14 1 0
BITMAP
0F80
3260
4210
4210
8208
8208
8208
8208
8208
8208
4210
4210
3260
0F80
ENDCHAR
STARTCHAR U+2181
ENCODING 8577
SWIDTH 687 0
DWIDTH 11 0
BBX 7 14 2 0
BITMAP
E0
98
84
84
E2
92
92
92
92
E2
84
84
98
E0
ENDCHAR
STARTCHAR U+2182
ENCODING 8578
SWIDTH 937 0
DWIDTH 15 0
BBX 13 14 1 0
BITMAP
0F80
3260
4210
4210
8F88
9248
9248
9248
9248
8F88
4210
4210
3260
0F80
ENDCHAR
STARTCHAR U+2183
ENCODING 8579
SWIDTH 687 0
DWIDTH 11 0
BBX 7 14 2 0
BITMAP
E0
18
04
04
02
02
02
02
02
02
04
04
18
E0
ENDCHAR
STARTCHAR U+2184
ENCODING 8580
SWIDTH 687 0
DWIDTH 11 0
BBX 7 10 2 0
BITMAP
F0
08
04
02
02
02
02
04
08
F0
ENDCHAR
STARTCHAR U+2189
ENCODING 8585
SWIDTH 937 0
DWIDTH 15 0
BBX 13 13 1 0
BITMAP
7000
8810
8820
8840
8880
8900
7270
0488
0808
1030
2008
4088
0070
ENDCHAR
STARTCHAR U+218A
ENCODING 8586
SWIDTH 625 0
DWIDTH 10 0
BBX 8 14 1 0
BITMAP
FF
01
02
04
08
10
20
40
80
80
81
81
42
3C
ENDCHAR
STARTCHAR U+218B
ENCODING 8587
SWIDTH 625 0
DWIDTH 10 0
BBX 8 14 1 0
BITMAP
3C
42
81
81
80
80
40
38
40
80
81
81
42
3C
ENDCHAR
STARTCHAR U+2190
ENCODING 8592
SWIDTH 937 0
DWIDTH 15 0
BBX 13 9 1 2
BITMAP
0800
1000
2000
4000
FFF8
4000
2000
1000
0800
ENDCHAR
STARTCHAR U+2191
ENCODING 8593
SWIDTH 937 0
DWIDTH 15 0
BBX 9 14 3 0
BITMAP
0800
1C00
2A00
4900
8880
0800
0800
0800
0800
0800
0800
0800
0800
0800
ENDCHAR
STARTCHAR U+2192
ENCODING 8594
SWIDTH 937 0
DWIDTH 15 0
BBX 13 9 1 2
BITMAP
0080
0040
0020
0010
FFF8
0010
0020
0040
0080
ENDCHAR
STARTCHAR U+2193
ENCODING 8595
SWIDTH 937 0
DWIDTH 15 0
BBX 9 14 3 0
BITMAP
0800
0800
0800
0800
0800
0800
0800
0800
0800
8880
4900
2A00
1C00
0800
ENDCHAR
STARTCHAR U+2194
ENCODING 8596
SWIDTH 937 0
DWIDTH 15 0
BBX 13 7 1 3
BITMAP
1040
2020
4010
FFF8
4010
2020
1040
ENDCHAR
STARTCHAR U+2195
ENCODING 8597
SWIDTH 937 0
DWIDTH 15 0
BBX 7 14 4 0
BITMAP
10
38
54
92
10
10
10
10
10
10
92
54
38
10
ENDCHAR
STARTCHAR U+2196
ENCODING 8598
SWIDTH 937 0
DWIDTH 15 0
BBX 11 11 2 1
BITMAP
FE00
C000
A000
9000
8800
8400
8200
0100
0080
0040
0020
ENDCHAR
STARTCHAR U+2197
ENCODING 8599
SWIDTH 937 0
DWIDTH 15 0
BBX 11 11 2 1
BITMAP
0FE0
0060
00A0
0120
0220
0420
0820
1000
2000
4000
8000
ENDCHAR
STARTCHAR U+2198
ENCODING 8600
SWIDTH 937 0
DWIDTH 15 0
BBX 11 11 2 2
BITMAP
8000
4000
2000
1000
0800
0420
0220
0120
00A0
0060
07E0
ENDCHAR
STARTCHAR U+2199
ENCODING 8601
SWIDTH 937 0
DWIDTH 15 0
BBX 11 11 2 2
BITMAP
0020
0040
0080
0100
0200
8400
8800
9000
A000
C000
FC00
ENDCHAR
STARTCHAR U+223C
ENCODING 8764
SWIDTH 937 0
DWIDTH 15 0
BBX 13 5 1 4
BITMAP
3800
4408
8208
8110
00E0
ENDCHAR
STARTCHAR U+2299
ENCODING 8857
SWIDTH 937 0
DWIDTH 15 0
BBX 13 13 1 1
BITMAP
0F80
3060
4010
4010
8708
8F88
8F88
8F88
8708
4010
4010
3060
0F80
ENDCHAR
STARTCHAR U+2460
ENCODING 9312
SWIDTH 937 0
DWIDTH 15 0
BBX 13 13 1 1
BITMAP
0F80
3060
4010
4210
8608
8208
8208
8208
8208
4710
4010
3060
0F80
ENDCHAR
STARTCHAR U+2461
ENCODING 9313
SWIDTH 937 0
DWIDTH 15 0
BBX 13 13 1 1
BITMAP
0F80
3060
4010
4710
8888
8088
8108
8208
8408
4F90
4010
3060
0F80
ENDCHAR
STARTCHAR U+2462
ENCODING 9314
SWIDTH 937 0
DWIDTH 15 0
BBX 13 13 1 1
BITMAP
0F80
3060
4010
4710
8888
8088
8308
8088
8888
4710
4010
3060
0F80
ENDCHAR
STARTCHAR U+2463
ENCODING 9315
SWIDTH 937 0
DWIDTH 15 0
BBX 13 13 1 1
BITMAP
0F80
3060
4010
4110
8308
8508
8908
9F88
8108
4110
4010
3060
0F80
ENDCHAR
STARTCHAR U+2464
ENCODING 9316
SWIDTH 937 0
DWIDTH 15 0
BBX 13 13 1 1
BITMAP
0F80
3060
4010
4F90
8808
8F08
8888
8088
8888
4710
4010
3060
0F80
ENDCHAR
STARTCHAR U+2465
ENCODING 9317
SWIDTH 937 0
DWIDTH 15 0
BBX 13 13 1 1
BITMAP
0F80
3060
4010
4710
8888
8808
8F08
8888
8888
4710
4010
3060
0F80
ENDCHAR
STARTCHAR U+2466
ENCODING 9318
SWIDTH 937 0
DWIDTH 15 0
BBX 13 13 1 1
BITMAP
0F80
3060
4010
4F90
8088
8108
8108
8208
8208
4210
4010
3060
0F80
ENDCHAR
STARTCHAR U+2467
ENCODING 9319
SWIDTH 937 0
DWIDTH 15 0
BBX 13 13 1 1
BITMAP
0F80
3060
4010
4710
8888
8888
8708
8888
8888
4710
4010
3060
0F80
ENDCHAR
STARTCHAR U+2468
ENCODING 9320
SWIDTH 937 0
DWIDTH 15 0
BBX 13 13 1 1
BITMAP
0F80
3060
4010
4710
8888
8888
8788
8088
8888
4710
4010
3060
0F80
ENDCHAR
STARTCHAR U+2469
ENCODING 9321
SWIDTH 937 0
DWIDTH 15 0
BBX 13 13 1 1
BITMAP
0F80
3060
4010
4990
9A48
8A48
8A48
8A48
8A48
4990
4010
3060
0F80
ENDCHAR
STARTCHAR U+246A
ENCODING 9322
SWIDTH 937 0
DWIDTH 15 0
BBX 13 13 1 1
BITMAP
0F80
3060
4010
4890
9988
8888
8888
8888
8888
4890
4010
3060
0F80
ENDCHAR
STARTCHAR U+246B
ENCODING 9323
SWIDTH 937 0
DWIDTH 15 0
BBX 13 13 1 1
BITMAP
0F80
3060
4010
4990
9A48
8848
8888
8908
8A08
4BD0
4010
3060
0F80
ENDCHAR
STARTCHAR U+246C
ENCODING 9324
SWIDTH 937 0
DWIDTH 15 0
BBX 13 13 1 1
BITMAP
0F80
3060
4010
4990
9A48
8848
8988
8848
8A48
4990
4010
3060
0F80
ENDCHAR
STARTCHAR U+246D
ENCODING 9325
SWIDTH 937 0
DWIDTH 15 0
BBX 13 13 1 1
BITMAP
0F80
3060
4010
4890
9988
8A88
8A88
8BC8
8888
4890
4010
3060
0F80
ENDCHAR
STARTCHAR U+246E
ENCODING 9326
SWIDTH 937 0
DWIDTH 15 0
BBX 13 13 1 1
BITMAP
0F80
3060
4010
4BD0
9A08
8B88
8A48
8848
8A48
4990
4010
3060
0F80
ENDCHAR
STARTCHAR U+246F
ENCODING 9327
SWIDTH 937 0
DWIDTH 15 0
BBX 13 13 1 1
BITMAP
0F80
3060
4010
4990
9A48
8A08
8B88
8A48
8A48
4990
4010
3060
0F80
ENDCHAR
STARTCHAR U+2470
ENCODING 9328
SWIDTH 937 0
DWIDTH 15 0
BBX 13 13 1 1
BITMAP
0F80
3060
4010
4BD0
9848
8888
8888
8908
8908
4910
4010
3060
0F80
ENDCHAR
STARTCHAR U+2471
ENCODING 9329
SWIDTH 937 0
DWIDTH 15 0
BBX 13 13 1 1
BITMAP
0F80
3060
4010
4990
9A48
8A48
8988
8A48
8A48
4990
4010
3060
0F80
ENDCHAR
STARTCHAR U+2472
ENCODING 9330
SWIDTH 937 0
DWIDTH 15 0
BBX 13 13 1 1
BITMAP
0F80
3060
4010
4990
9A48
8A48
89C8
8848
8A48
4990
4010
3060
0F80
ENDCHAR
STARTCHAR U+2473
ENCODING 9331
SWIDTH 937 0
DWIDTH 15 0
BBX 13 13 1 1
BITMAP
0F80
3060
4010
58D0
A528
8528
8928
9128
A128
7CD0
4010
3060
0F80
ENDCHAR
STARTCHAR U+24B6
ENCODING 9398
SWIDTH 937 0
DWIDTH 15 0
BBX 13 13 1 1
BITMAP
0F80
3060
4010
4210
8508
8888
8888
8F88
8888
4890
4010
3060
0F80
ENDCHAR
STARTCHAR U+24B7
ENCODING 9399
SWIDTH 937 0
DWIDTH 15 0
BBX 13 13 1 1
BITMAP
0F80
3060
4010
4F10
8888
8888
8F08
8888
8888
4F10
4010
3060
0F80
ENDCHAR
STARTCHAR U+24B8
ENCODING 9400
SWIDTH 937 0
DWIDTH 15 0
BBX 13 13 1 1
BITMAP
0F80
3060
4010
4710
8888
8808
8808
8808
8888
4710
4010
3060
0F80
ENDCHAR
STARTCHAR U+24B9
ENCODING 9401
SWIDTH 937 0
DWIDTH 15 0
BBX 13 13 1 1
BITMAP
0F80
3060
4010
4F10
8888
8888
8888
8888
8888
4F10
4010
3060
0F80
ENDCHAR
STARTCHAR U+24BA
ENCODING 9402
SWIDTH 937 0
DWIDTH 15 0
BBX 13 13 1 1
BITMAP
0F80
3060
4010
4F90
8808
8808
8F88
8808
8808
4F90
4010
3060
0F80
ENDCHAR
STARTCHAR U+24BB
ENCODING 9403
SWIDTH 937 0
DWIDTH 15 0
BBX 13 13 1 1
BITMAP
0F80
3060
4010
4F90
8808
8808
8F88
8808
8808
4810
4010
3060
0F80
ENDCHAR
STARTCHAR U+24BC
ENCODING 9404
SWIDTH 937 0
DWIDTH 15 0
BBX 13 13 1 1
BITMAP
0F80
3060
4010
4710
8888
8808
8B88
8888
8888
4710
4010
3060
0F80
ENDCHAR
STARTCHAR U+24BD
ENCODING 9405
SWIDTH 937 0
DWIDTH 15 0
BBX 13 13 1 1
BITMAP
0F80
3060
4010
4890
8888
8888
8F88
8888
8888
4890
4010
3060
0F80
ENDCHAR
STARTCHAR U+24BE
ENCODING 9406
SWIDTH 937 0
DWIDTH 15 0
BBX 13 13 1 1
BITMAP
0F80
3060
4010
4710
8208
8208
8208
8208
8208
4710
4010
3060
0F80
ENDCHAR
STARTCHAR U+24BF
ENCODING 9407
SWIDTH 937 0
DWIDTH 15 0
BBX 13 13 1 1
BITMAP
0F80
3060
4010
4090
8088
8088
8088
8888
8888
4710
4010
3060
0F80
ENDCHAR
STARTCHAR U+24C0
ENCODING 9408
SWIDTH 937 0
DWIDTH 15 0
BBX 13 13 1 1
BITMAP
0F80
3060
4010
4890
8908
8A08
8C08
8A08
8908
4890
4010
3060
0F80
ENDCHAR
STARTCHAR U+24C1
ENCODING 9409
SWIDTH 937 0
DWIDTH 15 0
BBX 13 13 1 1
BITMAP
0F80
3060
4010
4810
8808
8808
8808
8808
8808
4F90
4010
3060
0F80
ENDCHAR
STARTCHAR U+24C2
ENCODING 9410
SWIDTH 937 0
DWIDTH 15 0
BBX 13 13 1 1
BITMAP
0F80
3060
4010
5050
98C8
98C8
9548
9548
9248
5250
4010
3060
0F80
ENDCHAR
STARTCHAR U+24C3
ENCODING 9411
SWIDTH 937 0
DWIDTH 15 0
BBX 13 13 1 1
BITMAP
0F80
3060
4010
4890
8C88
8C88
8A88
8988
8988
4890
4010
3060
0F80
ENDCHAR
STARTCHAR U+24C4
ENCODING 9412
SWIDTH 937 0
DWIDTH 15 0
BBX 13 13 1 1
BITMAP
0F80
3060
4010
4710
8888
8888
8888
8888
8888
4710
4010
3060
0F80
ENDCHAR
STARTCHAR U+24C5
ENCODING 9413
SWIDTH 937 0
DWIDTH 15 0
BBX 13 13 1 1
BITMAP
0F80
3060
4010
4F10
8888
8888
8F08
8808
8808
4810
4010
3060
0F80
ENDCHAR
STARTCHAR U+24C6
ENCODING 9414
SWIDTH 937 0
DWIDTH 15 0
BBX 13 13 1 1
BITMAP
0F80
3060
4010
4710
8888
8888
8888
8888
8A88
4710
4090
3060
0F80
ENDCHAR
STARTCHAR U+24C7
ENCODING 9415
SWIDTH 937 0
DWIDTH 15 0
BBX 13 13 1 1
BITMAP
0F80
3060
4010
4F10
8888
8888
8F08
8908
8888
4890
4010
3060
0F80
ENDCHAR
STARTCHAR U+24C8
ENCODING 9416
SWIDTH 937 0
DWIDTH 15 0
BBX 13 13 1 1
BITMAP
0F80
3060
4010
4710
8888
8808
8708
8088
8888
4710
4010
3060
0F80
ENDCHAR
STARTCHAR U+24C9
ENCODING 9417
SWIDTH 937 0
DWIDTH 15 0
BBX 13 13 1 1
BITMAP
0F80
3060
4010
4F90
8208
8208
8208
8208
8208
4210
4010
3060
0F80
ENDCHAR
STARTCHAR U+24CA
ENCODING 9418
SWIDTH 937 0
DWIDTH 15 0
BBX 13 13 1 1
BITMAP
0F80
3060
4010
4890
8888
8888
8888
8888
8888
4710
4010
3060
0F80
ENDCHAR
STARTCHAR U+24CB
ENCODING 9419
SWIDTH 937 0
DWIDTH 15 0
BBX 13 13 1 1
BITMAP
0F80
3060
4010
4890
8888
8888
8508
8508
8208
4210
4010
3060
0F80
ENDCHAR
STARTCHAR U+24CC
ENCODING 9420
SWIDTH 937 0
DWIDTH 15 0
BBX 13 13 1 1
BITMAP
0F80
3060
4010
5050
9248
9248
9548
9548
8888
4890
4010
3060
0F80
ENDCHAR
STARTCHAR U+24CD
ENCODING 9421
SWIDTH 937 0
DWIDTH 15 0
BBX 13 13 1 1
BITMAP
0F80
3060
4010
4890
8888
8508
8208
8508
8888
4890
4010
3060
0F80
ENDCHAR
STARTCHAR U+24CE
ENCODING 9422
SWIDTH 937 0
DWIDTH 15 0
BBX 13 13 1 1
BITMAP
0F80
3060
4010
4890
8888
8888
8508
8208
8208
4210
4010
3060
0F80
ENDCHAR
STARTCHAR U+24CF
ENCODING 9423
SWIDTH 937 0
DWIDTH 15 0
BBX 13 13 1 1
BITMAP
0F80
3060
4010
4F90
8088
8108
8208
8408
8808
4F90
4010
3060
0F80
ENDCHAR
STARTCHAR U+24EA
ENCODING 9450
SWIDTH 937 0
DWIDTH 15 0
BBX 13 13 1 1
BITMAP
0F80
3060
4010
4710
8888
8888
8888
8888
8888
4710
4010
3060
0F80
ENDCHAR
STARTCHAR U+24EB
ENCODING 9451
SWIDTH 937 0
DWIDTH 15 0
BBX 13 13 1 1
BITMAP
0F80
3FE0
7FF0
7770
E678
F778
F778
F778
F778
7770
7FF0
3FE0
0F80
ENDCHAR
STARTCHAR U+24EC
ENCODING 9452
SWIDTH 937 0
DWIDTH 15 0
BBX 13 13 1 1
BITMAP
0F80
3FE0
7FF0
7670
E5B8
F7B8
F778
F6F8
F5F8
7430
7FF0
3FE0
0F80
ENDCHAR
STARTCHAR U+24ED
ENCODING 9453
SWIDTH 937 0
DWIDTH 15 0
BBX 13 13 1 1
BITMAP
0F80
3FE0
7FF0
7670
E5B8
F7B8
F678
F7B8
F5B8
7670
7FF0
3FE0
0F80
ENDCHAR
STARTCHAR U+24EE
ENCODING 9454
SWIDTH 937 0
DWIDTH 15 0
BBX 13 13 1 1
BITMAP
0F80
3FE0
7FF0
7770
E678
F578
F578
F438
F778
7770
7FF0
3FE0
0F80
ENDCHAR
STARTCHAR U+24EF
ENCODING 9455
SWIDTH 937 0
DWIDTH 15 0
BBX 13 13 1 1
BITMAP
0F80
3FE0
7FF0
7430
E5F8
F478
F5B8
F7B8
F5B8
7670
7FF0
3FE0
0F80
ENDCHAR
STARTCHAR U+24F0
ENCODING 9456
SWIDTH 937 0
DWIDTH 15 0
BBX 13 13 1 1
BITMAP
0F80
3FE0
7FF0
7670
E5B8
F5F8
F478
F5B8
F5B8
7670
7FF0
3FE0
0F80
ENDCHAR
STARTCHAR U+24F1
ENCODING 9457
SWIDTH 937 0
DWIDTH 15 0
BBX 13 13 1 1
BITMAP
0F80
3FE0
7FF0
7430
E7B8
F778
F778
F6F8
F6F8
76F0
7FF0
3FE0
0F80
ENDCHAR
STARTCHAR U+24F2
ENCODING 9458
SWIDTH 937 0
DWIDTH 15 0
BBX 13 13 1 1
BITMAP
0F80
3FE0
7FF0
7670
E5B8
F5B8
F678
F5B8
F5B8
7670
7FF0
3FE0
0F80
ENDCHAR
STARTCHAR U+24F3
ENCODING 9459
SWIDTH 937 0
DWIDTH 15 0
BBX 13 13 1 1
BITMAP
0F80
3FE0
7FF0
7670
E5B8
F5B8
F638
F7B8
F5B8
7670
7FF0
3FE0
0F80
ENDCHAR
STARTCHAR U+24F4
ENCODING 9460
SWIDTH 937 0
DWIDTH 15 0
BBX 13 13 1 1
BITMAP
0F80
3FE0
7FF0
6730
DAD8
FAD8
F6D8
EED8
DED8
4330
7FF0
3FE0
0F80
ENDCHAR
STARTCHAR U+24FF
ENCODING 9471
SWIDTH 937 0
DWIDTH 15 0
BBX 13 13 1 1
BITMAP
0F80
3FE0
7FF0
78F0
F778
F778
F778
F778
F778
78F0
7FF0
3FE0
0F80
ENDCHAR
STARTCHAR U+2500
ENCODING 9472
SWIDTH 937 0
DWIDTH 15 0
BBX 15 1 0 7
BITMAP
FFFE
ENDCHAR
STARTCHAR U+2501
ENCODING 9473
SWIDTH 937 0
DWIDTH 15 0
BBX 15 2 0 6
BITMAP
FFFE
FFFE
ENDCHAR
STARTCHAR U+2502
ENCODING 9474
SWIDTH 937 0
DWIDTH 15 0
BBX 1 15 7 0
BITMAP
80
80
80
80
80
80
80
80
80
80
80
80
80
80
80
ENDCHAR
STARTCHAR U+2503
ENCODING 9475
SWIDTH 937 0
DWIDTH 15 0
BBX 2 15 6 0
BITMAP
C0
C0
C0
C0
C0
C0
C0
C0
C0
C0
C0
C0
C0
C0
C0
ENDCHAR
STARTCHAR U+2504
ENCODING 9476
SWIDTH 937 0
DWIDTH 15 0
BBX 14 1 0 7
BITMAP
F7BC
ENDCHAR
STARTCHAR U+2505
ENCODING 9477
SWIDTH 937 0
DWIDTH 15 0
BBX 14 2 0 6
BITMAP
F7BC
F7BC
ENDCHAR
STARTCHAR U+2506
ENCODING 9478
SWIDTH 937 0
DWIDTH 15 0
BBX 1 14 7 0
BITMAP
80
80
80
80
00
80
80
80
80
00
80
80
80
80
ENDCHAR
STARTCHAR U+2507
ENCODING 9479
SWIDTH 937 0
DWIDTH 15 0
BBX 2 14 6 0
BITMAP
C0
C0
C0
C0
00
C0
C0
C0
C0
00
C0
C0
C0
C0
ENDCHAR
STARTCHAR U+250C
ENCODING 9484
SWIDTH 937 0
DWIDTH 15 0
BBX 8 8 7 0
BITMAP
FF
80
80
80
80
80
80
80
ENDCHAR
STARTCHAR U+250D
ENCODING 9485
SWIDTH 937 0
DWIDTH 15 0
BBX 8 8 7 0
BITMAP
FF
FF
80
80
80
80
80
80
ENDCHAR
STARTCHAR U+250E
ENCODING 9486
SWIDTH 937 0
DWIDTH 15 0
BBX 9 8 6 0
BITMAP
FF80
C000
C000
C000
C000
C000
C000
C000
ENDCHAR
STARTCHAR U+250F
ENCODING 9487
SWIDTH 937 0
DWIDTH 15 0
BBX 9 8 6 0
BITMAP
FF80
FF80
C000
C000
C000
C000
C000
C000
ENDCHAR
STARTCHAR U+2510
ENCODING 9488
SWIDTH 937 0
DWIDTH 15 0
BBX 8 8 0 0
BITMAP
FF
01
01
01
01
01
01
01
ENDCHAR
STARTCHAR U+2511
ENCODING 9489
SWIDTH 937 0
DWIDTH 15 0
BBX 8 8 0 0
BITMAP
FF
FF
01
01
01
01
01
01
ENDCHAR
STARTCHAR U+2512
ENCODING 9490
SWIDTH 937 0
DWIDTH 15 0
BBX 8 8 0 0
BITMAP
FF
03
03
03
03
03
03
03
ENDCHAR
STARTCHAR U+2513
ENCODING 9491
SWIDTH 937 0
DWIDTH 15 0
BBX 8 8 0 0
BITMAP
FF
FF
03
03
03
03
03
03
ENDCHAR
STARTCHAR U+2514
ENCODING 9492
SWIDTH 937 0
DWIDTH 15 0
BBX 8 8 7 7
BITMAP
80
80
80
80
80
80
80
FF
ENDCHAR
STARTCHAR U+2515
ENCODING 9493
SWIDTH 937 0
DWIDTH 15 0
BBX 8 9 7 6
BITMAP
80
80
80
80
80
80
80
FF
FF
ENDCHAR
STARTCHAR U+2516
ENCODING 9494
SWIDTH 937 0
DWIDTH 15 0
BBX 9 8 6 7
BITMAP
C000
C000
C000
C000
C000
C000
C000
FF80
ENDCHAR
STARTCHAR U+2517
ENCODING 9495
SWIDTH 937 0
DWIDTH 15 0
BBX 9 9 6 6
BITMAP
C000
C000
C000
C000
C000
C000
C000
FF80
FF80
ENDCHAR
STARTCHAR U+2518
ENCODING 9496
SWIDTH 937 0
DWIDTH 15 0
BBX 8 8 0 7
BITMAP
01
01
01
01
01
01
01
FF
ENDCHAR
STARTCHAR U+2519
ENCODING 9497
SWIDTH 937 0
DWIDTH 15 0
BBX 8 9 0 6
BITMAP
01
01
01
01
01
01
01
FF
FF
ENDCHAR
STARTCHAR U+251A
ENCODING 9498
SWIDTH 937 0
DWIDTH 15 0
BBX 8 8 0 7
BITMAP
03
03
03
03
03
03
03
FF
ENDCHAR
STARTCHAR U+251B
ENCODING 9499
SWIDTH 937 0
DWIDTH 15 0
BBX 8 9 0 6
BITMAP
03
03
03
03
03
03
03
FF
FF
ENDCHAR
STARTCHAR U+251C
ENCODING 9500
SWIDTH 937 0
DWIDTH 15 0
BBX 8 15 7 0
BITMAP
80
80
80
80
80
80
80
FF
80
80
80
80
80
80
80
ENDCHAR
STARTCHAR U+251D
ENCODING 9501
SWIDTH 937 0
DWIDTH 15 0
BBX 8 15 7 0
BITMAP
80
80
80
80
80
80
80
FF
FF
80
80
80
80
80
80
ENDCHAR
STARTCHAR U+251E
ENCODING 9502
SWIDTH 937 0
DWIDTH 15 0
BBX 9 15 6 0
BITMAP
C000
C000
C000
C000
C000
C000
C000
FF80
4000
4000
4000
4000
4000
4000
4000
ENDCHAR
STARTCHAR U+251F
ENCODING 9503
SWIDTH 937 0
DWIDTH 15 0
BBX 9 15 6 0
BITMAP
4000
4000
4000
4000
4000
4000
4000
FF80
C000
C000
C000
C000
C000
C000
C000
ENDCHAR
STARTCHAR U+2520
ENCODING 9504
SWIDTH 937 0
DWIDTH 15 0
BBX 9 15 6 0
BITMAP
C000
C000
C000
C000
C000
C000
C000
FF80
C000
C000
C000
C000
C000
C000
C000
ENDCHAR
STARTCHAR U+2521
ENCODING 9505
SWIDTH 937 0
DWIDTH 15 0
BBX 9 15 6 0
BITMAP
C000
C000
C000
C000
C000
C000
C000
FF80
FF80
4000
4000
4000
4000
4000
4000
ENDCHAR
STARTCHAR U+2522
ENCODING 9506
SWIDTH 937 0
DWIDTH 15 0
BBX 9 15 6 0
BITMAP
4000
4000
4000
4000
4000
4000
4000
FF80
FF80
C000
C000
C000
C000
C000
C000
ENDCHAR
STARTCHAR U+2523
ENCODING 9507
SWIDTH 937 0
DWIDTH 15 0
BBX 9 15 6 0
BITMAP
C000
C000
C000
C000
C000
C000
C000
FF80
FF80
C000
C000
C000
C000
C000
C000
ENDCHAR
STARTCHAR U+2524
ENCODING 9508
SWIDTH 937 0
DWIDTH 15 0
BBX 8 15 0 0
BITMAP
01
01
01
01
01
01
01
FF
01
01
01
01
01
01
01
ENDCHAR
STARTCHAR U+2525
ENCODING 9509
SWIDTH 937 0
DWIDTH 15 0
BBX 8 15 0 0
BITMAP
01
01
01
01
01
01
01
FF
FF
01
01
01
01
01
01
ENDCHAR
STARTCHAR U+2526
ENCODING 9510
SWIDTH 937 0
DWIDTH 15 0
BBX 8 15 0 0
BITMAP
03
03
03
03
03
03
03
FF
01
01
01
01
01
01
01
ENDCHAR
STARTCHAR U+2527
ENCODING 9511
SWIDTH 937 0
DWIDTH 15 0
BBX 8 15 0 0
BITMAP
01
01
01
01
01
01
01
FF
03
03
03
03
03
03
03
ENDCHAR
STARTCHAR U+2528
ENCODING 9512
SWIDTH 937 0
DWIDTH 15 0
BBX 8 15 0 0
BITMAP
03
03
03
03
03
03
03
FF
03
03
03
03
03
03
03
ENDCHAR
STARTCHAR U+2529
ENCODING 9513
SWIDTH 937 0
DWIDTH 15 0
BBX 8 15 0 0
BITMAP
03
03
03
03
03
03
03
FF
FF
01
01
01
01
01
01
ENDCHAR
STARTCHAR U+252A
ENCODING 9514
SWIDTH 937 0
DWIDTH 15 0
BBX 8 15 0 0
BITMAP
01
01
01
01
01
01
01
FF
FF
03
03
03
03
03
03
ENDCHAR
STARTCHAR U+252B
ENCODING 9515
SWIDTH 937 0
DWIDTH 15 0
BBX 8 15 0 0
BITMAP
03
03
03
03
03
03
03
FF
FF
03
03
03
03
03
03
ENDCHAR
STARTCHAR U+252C
ENCODING 9516
SWIDTH 937 0
DWIDTH 15 0
BBX 15 8 0 0
BITMAP
FFFE
0100
0100
0100
0100
0100
0100
0100
ENDCHAR
STARTCHAR U+252D
ENCODING 9517
SWIDTH 937 0
DWIDTH 15 0
BBX 15 8 0 0
BITMAP
FFFE
FF00
0100
0100
0100
0100
0100
0100
ENDCHAR
STARTCHAR U+252E
ENCODING 9518
SWIDTH 937 0
DWIDTH 15 0
BBX 15 8 0 0
BITMAP
FFFE
01FE
0100
0100
0100
0100
0100
0100
ENDCHAR
STARTCHAR U+252F
ENCODING 9519
SWIDTH 937 0
DWIDTH 15 0
BBX 15 8 0 0
BITMAP
FFFE
FFFE
0100
0100
0100
0100
0100
0100
ENDCHAR
STARTCHAR U+2530
ENCODING 9520
SWIDTH 937 0
DWIDTH 15 0
BBX 15 8 0 0
BITMAP
FFFE
0300
0300
0300
0300
0300
0300
0300
ENDCHAR
STARTCHAR U+2531
ENCODING 9521
SWIDTH 937 0
DWIDTH 15 0
BBX 15 8 0 0
BITMAP
FFFE
FF00
0300
0300
0300
0300
0300
0300
ENDCHAR
STARTCHAR U+2532
ENCODING 9522
SWIDTH 937 0
DWIDTH 15 0
BBX 15 8 0 0
BITMAP
FFFE
03FE
0300
0300
0300
0300
0300
0300
ENDCHAR
STARTCHAR U+2533
ENCODING 9523
SWIDTH 937 0
DWIDTH 15 0
BBX 15 8 0 0
BITMAP
FFFE
FFFE
0300
0300
0300
0300
0300
0300
ENDCHAR
STARTCHAR U+2534
ENCODING 9524
SWIDTH 937 0
DWIDTH 15 0
BBX 15 8 0 7
BITMAP
0100
0100
0100
0100
0100
0100
0100
FFFE
ENDCHAR
STARTCHAR U+2535
ENCODING 9525
SWIDTH 937 0
DWIDTH 15 0
BBX 15 9 0 6
BITMAP
0100
0100
0100
0100
0100
0100
0100
FFFE
FF00
ENDCHAR
STARTCHAR U+2536
ENCODING 9526
SWIDTH 937 0
DWIDTH 15 0
BBX 15 9 0 6
BITMAP
0100
0100
0100
0100
0100
0100
0100
FFFE
01FE
ENDCHAR
STARTCHAR U+2537
ENCODING 9527
SWIDTH 937 0
DWIDTH 15 0
BBX 15 9 0 6
BITMAP
0100
0100
0100
0100
0100
0100
0100
FFFE
FFFE
ENDCHAR
STARTCHAR U+2538
ENCODING 9528
SWIDTH 937 0
DWIDTH 15 0
BBX 15 8 0 7
BITMAP
0300
0300
0300
0300
0300
0300
0300
FFFE
ENDCHAR
STARTCHAR U+2539
ENCODING 9529
SWIDTH 937 0
DWIDTH 15 0
BBX 15 9 0 6
BITMAP
0300
0300
0300
0300
0300
0300
0300
FFFE
FF00
ENDCHAR
STARTCHAR U+253A
ENCODING 9530
SWIDTH 937 0
DWIDTH 15 0
BBX 15 9 0 6
BITMAP
0300
0300
0300
0300
0300
0300
0300
FFFE
03FE
ENDCHAR
STARTCHAR U+253B
ENCODING 9531
SWIDTH 937 0
DWIDTH 15 0
BBX 15 9 0 6
BITMAP
0300
0300
0300
0300
0300
0300
0300
FFFE
FFFE
ENDCHAR
STARTCHAR U+253C
ENCODING 9532
SWIDTH 937 0
DWIDTH 15 0
BBX 15 15 0 0
BITMAP
0100
0100
0100
0100
0100
0100
0100
FFFE
0100
0100
0100
0100
0100
0100
0100
ENDCHAR
STARTCHAR U+253D
ENCODING 9533
SWIDTH 937 0
DWIDTH 15 0
BBX 15 15 0 0
BITMAP
0100
0100
0100
0100
0100
0100
0100
FFFE
FF00
0100
0100
0100
0100
0100
0100
ENDCHAR
STARTCHAR U+253E
ENCODING 9534
SWIDTH 937 0
DWIDTH 15 0
BBX 15 15 0 0
BITMAP
0100
0100
0100
0100
0100
0100
0100
FFFE
01FE
0100
0100
0100
0100
0100
0100
ENDCHAR
STARTCHAR U+253F
ENCODING 9535
SWIDTH 937 0
DWIDTH 15 0
BBX 15 15 0 0
BITMAP
0100
0100
0100
0100
0100
0100
0100
FFFE
FFFE
0100
0100
0100
0100
0100
0100
ENDCHAR
STARTCHAR U+2540
ENCODING 9536
SWIDTH 937 0
DWIDTH 15 0
BBX 15 15 0 0
BITMAP
0300
0300
0300
0300
0300
0300
0300
FFFE
0100
0100
0100
0100
0100
0100
0100
ENDCHAR
STARTCHAR U+2541
ENCODING 9537
SWIDTH 937 0
DWIDTH 15 0
BBX 15 15 0 0
BITMAP
0100
0100
0100
0100
0100
0100
0100
FFFE
0300
0300
0300
0300
0300
0300
0300
ENDCHAR
STARTCHAR U+2542
ENCODING 9538
SWIDTH 937 0
DWIDTH 15 0
BBX 15 15 0 0
BITMAP
0300
0300
0300
0300
0300
0300
0300
FFFE
0300
0300
0300
0300
0300
0300
0300
ENDCHAR
STARTCHAR U+2543
ENCODING 9539
SWIDTH 937 0
DWIDTH 15 0
BBX 15 15 0 0
BITMAP
0300
0300
0300
0300
0300
0300
0300
FFFE
FF00
0100
0100
0100
0100
0100
0100
ENDCHAR
STARTCHAR U+2544
ENCODING 9540
SWIDTH 937 0
DWIDTH 15 0
BBX 15 15 0 0
BITMAP
0300
0300
0300
0300
0300
0300
0300
FFFE
03FE
0100
0100
0100
0100
0100
0100
ENDCHAR
STARTCHAR U+2545
ENCODING 9541
SWIDTH 937 0
DWIDTH 15 0
BBX 15 15 0 0
BITMAP
0100
0100
0100
0100
0100
0100
0100
FFFE
FF00
0300
0300
0300
0300
0300
0300
ENDCHAR
STARTCHAR U+2546
ENCODING 9542
SWIDTH 937 0
DWIDTH 15 0
BBX 15 15 0 0
BITMAP
0100
0100
0100
0100
0100
0100
0100
FFFE
03FE
0300
0300
0300
0300
0300
0300
ENDCHAR
STARTCHAR U+2547
ENCODING 9543
SWIDTH 937 0
DWIDTH 15 0
BBX 15 15 0 0
BITMAP
0300
0300
0300
0300
0300
0300
0300
FFFE
FFFE
0100
0100
0100
0100
0100
0100
ENDCHAR
STARTCHAR U+2548
ENCODING 9544
SWIDTH 937 0
DWIDTH 15 0
BBX 15 15 0 0
BITMAP
0100
0100
0100
0100
0100
0100
0100
FFFE
FFFE
0300
0300
0300
0300
0300
0300
ENDCHAR
STARTCHAR U+2549
ENCODING 9545
SWIDTH 937 0
DWIDTH 15 0
BBX 15 15 0 0
BITMAP
0300
0300
0300
0300
0300
0300
0300
FFFE
FF00
0300
0300
0300
0300
0300
0300
ENDCHAR
STARTCHAR U+254A
ENCODING 9546
SWIDTH 937 0
DWIDTH 15 0
BBX 15 15 0 0
BITMAP
0300
0300
0300
0300
0300
0300
0300
FFFE
03FE
0300
0300
0300
0300
0300
0300
ENDCHAR
STARTCHAR U+254B
ENCODING 9547
SWIDTH 937 0
DWIDTH 15 0
BBX 15 15 0 0
BITMAP
0300
0300
0300
0300
0300
0300
0300
FFFE
FFFE
0300
0300
0300
0300
0300
0300
ENDCHAR
STARTCHAR U+254C
ENCODING 9548
SWIDTH 937 0
DWIDTH 15 0
BBX 15 1 0 7
BITMAP
FEFE
ENDCHAR
STARTCHAR U+254D
ENCODING 9549
SWIDTH 937 0
DWIDTH 15 0
BBX 15 2 0 6
BITMAP
FEFE
FEFE
ENDCHAR
STARTCHAR U+254E
ENCODING 9550
SWIDTH 937 0
DWIDTH 15 0
BBX 1 15 7 0
BITMAP
80
80
80
80
80
80
80
00
80
80
80
80
80
80
80
ENDCHAR
STARTCHAR U+254F
ENCODING 9551
SWIDTH 937 0
DWIDTH 15 0
BBX 2 15 6 0
BITMAP
C0
C0
C0
C0
C0
C0
C0
00
C0
C0
C0
C0
C0
C0
C0
ENDCHAR
STARTCHAR U+2580
ENCODING 9600
SWIDTH 937 0
DWIDTH 15 0
BBX 15 8 0 7
BITMAP
FFFE
FFFE
FFFE
FFFE
FFFE
FFFE
FFFE
FFFE
ENDCHAR
STARTCHAR U+2584
ENCODING 9604
SWIDTH 937 0
DWIDTH 15 0
BBX 15 8 0 0
BITMAP
FFFE
FFFE
FFFE
FFFE
FFFE
FFFE
FFFE
FFFE
ENDCHAR
STARTCHAR U+2588
ENCODING 9608
SWIDTH 937 0
DWIDTH 15 0
BBX 15 15 0 0
BITMAP
FFFE
FFFE
FFFE
FFFE
FFFE
FFFE
FFFE
FFFE
FFFE
FFFE
FFFE
FFFE
FFFE
FFFE
FFFE
ENDCHAR
STARTCHAR U+258C
ENCODING 9612
SWIDTH 937 0
DWIDTH 15 0
BBX 8 15 0 0
BITMAP
FF
FF
FF
FF
FF
FF
FF
FF
FF
FF
FF
FF
FF
FF
FF
ENDCHAR
STARTCHAR U+2590
ENCODING 9616
SWIDTH 937 0
DWIDTH 15 0
BBX 8 15 7 0
BITMAP
FF
FF
FF
FF
FF
FF
FF
FF
FF
FF
FF
FF
FF
FF
FF
ENDCHAR
STARTCHAR U+25A0
ENCODING 9632
SWIDTH 937 0
DWIDTH 15 0
BBX 13 13 1 1
BITMAP
FFF8
FFF8
FFF8
FFF8
FFF8
FFF8
FFF8
FFF8
FFF8
FFF8
FFF8
FFF8
FFF8
ENDCHAR
STARTCHAR U+25A1
ENCODING 9633
SWIDTH 937 0
DWIDTH 15 0
BBX 13 13 1 1
BITMAP
FFF8
8008
8008
8008
8008
8008
8008
8008
8008
8008
8008
8008
FFF8
ENDCHAR
STARTCHAR U+25A2
ENCODING 9634
SWIDTH 937 0
DWIDTH 15 0
BBX 13 13 1 1
BITMAP
7FF0
8008
8008
8008
8008
8008
8008
8008
8008
8008
8008
8008
7FF0
ENDCHAR
STARTCHAR U+25A3
ENCODING 9635
SWIDTH 937 0
DWIDTH 15 0
BBX 13 13 1 1
BITMAP
FFF8
8008
8008
9FC8
9FC8
9FC8
9FC8
9FC8
9FC8
9FC8
8008
8008
FFF8
ENDCHAR
STARTCHAR U+25A4
ENCODING 9636
SWIDTH 937 0
DWIDTH 15 0
BBX 13 13 1 1
BITMAP
FFF8
8008
8008
FFF8
8008
8008
FFF8
8008
8008
FFF8
8008
8008
FFF8
ENDCHAR
STARTCHAR U+25A5
ENCODING 9637
SWIDTH 937 0
DWIDTH 15 0
BBX 13 13 1 1
BITMAP
FFF8
9248
9248
9248
9248
9248
9248
9248
9248
9248
9248
9248
FFF8
ENDCHAR
STARTCHAR U+25A6
ENCODING 9638
SWIDTH 937 0
DWIDTH 15 0
BBX 13 13 1 1
BITMAP
FFF8
9248
9248
FFF8
9248
9248
FFF8
9248
9248
FFF8
9248
9248
FFF8
ENDCHAR
STARTCHAR U+25A7
ENCODING 9639
SWIDTH 937 0
DWIDTH 15 0
BBX 13 13 1 1
BITMAP
FFF8
C108
A088
9048
8828
8418
8208
C108
A088
9048
8828
8418
FFF8
ENDCHAR
STARTCHAR U+25A8
ENCODING 9640
SWIDTH 937 0
DWIDTH 15 0
BBX 13 13 1 1
BITMAP
FFF8
8418
8828
9048
A088
C108
8208
8418
8828
9048
A088
C108
FFF8
ENDCHAR
STARTCHAR U+25A9
ENCODING 9641
SWIDTH 937 0
DWIDTH 15 0
BBX 13 13 1 1
BITMAP
FFF8
C518
A8A8
9048
A8A8
C518
8208
C518
A8A8
9048
A8A8
C518
FFF8
ENDCHAR
STARTCHAR U+25B2
ENCODING 9650
SWIDTH 937 0
DWIDTH 15 0
BBX 13 13 1 1
BITMAP
0200
0700
0700
0F80
0F80
1FC0
1FC0
3FE0
3FE0
7FF0
7FF0
FFF8
FFF8
ENDCHAR
STARTCHAR U+25B3
ENCODING 9651
SWIDTH 937 0
DWIDTH 15 0
BBX 13 13 1 1
BITMAP
0200
0500
0500
0880
0880
1040
1040
2020
2020
4010
4010
8008
FFF8
ENDCHAR
STARTCHAR U+25B6
ENCODING 9654
SWIDTH 937 0
DWIDTH 15 0
BBX 13 13 1 1
BITMAP
C000
F000
FC00
FF00
FFC0
FFF0
FFF8
FFF0
FFC0
FF00
FC00
F000
C000
ENDCHAR
STARTCHAR U+25B7
ENCODING 9655
SWIDTH 937 0
DWIDTH 15 0
BBX 13 13 1 1
BITMAP
C000
B000
8C00
8300
80C0
8030
8008
8030
80C0
8300
8C00
B000
C000
ENDCHAR
STARTCHAR U+25BC
ENCODING 9660
SWIDTH 937 0
DWIDTH 15 0
BBX 13 13 1 1
BITMAP
FFF8
FFF8
7FF0
7FF0
3FE0
3FE0
1FC0
1FC0
0F80
0F80
0700
0700
0200
ENDCHAR
STARTCHAR U+25BD
ENCODING 9661
SWIDTH 937 0
DWIDTH 15 0
BBX 13 13 1 1
BITMAP
FFF8
8008
4010
4010
2020
2020
1040
1040
0880
0880
0500
0500
0200
ENDCHAR
STARTCHAR U+25C0
ENCODING 9664
SWIDTH 937 0
DWIDTH 15 0
BBX 13 13 1 1
BITMAP
0018
0078
01F8
07F8
1FF8
7FF8
FFF8
7FF8
1FF8
07F8
01F8
0078
0018
ENDCHAR
STARTCHAR U+25C1
ENCODING 9665
SWIDTH 937 0
DWIDTH 15 0
BBX 13 13 1 1
BITMAP
0018
0068
0188
0608
1808
6008
8008
6008
1808
0608
0188
0068
0018
ENDCHAR
STARTCHAR U+25C6
ENCODING 9670
SWIDTH 937 0
DWIDTH 15 0
BBX 13 13 1 1
BITMAP
0200
0700
0F80
1FC0
3FE0
7FF0
FFF8
7FF0
3FE0
1FC0
0F80
0700
0200
ENDCHAR
STARTCHAR U+25C7
ENCODING 9671
SWIDTH 937 0
DWIDTH 15 0
BBX 13 13 1 1
BITMAP
0200
0500
0880
1040
2020
4010
8008
4010
2020
1040
0880
0500
0200
ENDCHAR
STARTCHAR U+25C8
ENCODING 9672
SWIDTH 937 0
DWIDTH 15 0
BBX 13 13 1 1
BITMAP
0200
0500
0880
1240
2720
4F90
9FC8
4F90
2720
1240
0880
0500
0200
ENDCHAR
STARTCHAR U+25C9
ENCODING 9673
SWIDTH 937 0
DWIDTH 15 0
BBX 13 13 1 1
BITMAP
0F80
3060
4010
4710
8F88
9FC8
9FC8
9FC8
8F88
4710
4010
3060
0F80
ENDCHAR
STARTCHAR U+25CB
ENCODING 9675
SWIDTH 937 0
DWIDTH 15 0
BBX 13 13 1 1
BITMAP
0F80
3060
4010
4010
8008
8008
8008
8008
8008
4010
4010
3060
0F80
ENDCHAR
STARTCHAR U+25CC
ENCODING 9676
SWIDTH 937 0
DWIDTH 15 0
BBX 13 13 1 1
BITMAP
0A80
2020
4010
0000
8008
0000
8008
0000
8008
0000
4010
2020
0A80
ENDCHAR
STARTCHAR U+25CD
ENCODING 9677
SWIDTH 937 0
DWIDTH 15 0
BBX 13 13 1 1
BITMAP
0F80
3AE0
6AB0
6AB0
AAA8
AAA8
AAA8
AAA8
AAA8
6AB0
6AB0
3AE0
0F80
ENDCHAR
STARTCHAR U+25CE
ENCODING 9678
SWIDTH 937 0
DWIDTH 15 0
BBX 13 13 1 1
BITMAP
0F80
3060
4010
4710
8888
9048
9048
9048
8888
4710
4010
3060
0F80
ENDCHAR
STARTCHAR U+25CF
ENCODING 9679
SWIDTH 937 0
DWIDTH 15 0
BBX 13 13 1 1
BITMAP
0F80
3FE0
7FF0
7FF0
FFF8
FFF8
FFF8
FFF8
FFF8
7FF0
7FF0
3FE0
0F80
ENDCHAR
STARTCHAR U+25D0
ENCODING 9680
SWIDTH 937 0
DWIDTH 15 0
BBX 13 13 1 1
BITMAP
0F80
3C60
7C10
7C10
FC08
FC08
FC08
FC08
FC08
7C10
7C10
3C60
0F80
ENDCHAR
STARTCHAR U+25D1
ENCODING 9681
SWIDTH 937 0
DWIDTH 15 0
BBX 13 13 1 1
BITMAP
0F80
31E0
41F0
41F0
81F8
81F8
81F8
81F8
81F8
41F0
41F0
31E0
0F80
ENDCHAR
STARTCHAR U+25D2
ENCODING 9682
SWIDTH 937 0
DWIDTH 15 0
BBX 13 13 1 1
BITMAP
0F80
3060
4010
4010
8008
8008
8008
FFF8
FFF8
7FF0
7FF0
3FE0
0F80
ENDCHAR
STARTCHAR U+25D3
ENCODING 9683
SWIDTH 937 0
DWIDTH 15 0
BBX 13 13 1 1
BITMAP
0F80
3FE0
7FF0
7FF0
FFF8
FFF8
8008
8008
8008
4010
4010
3060
0F80
ENDCHAR
STARTCHAR U+25D4
ENCODING 9684
SWIDTH 937 0
DWIDTH 15 0
BBX 13 13 1 1
BITMAP
0F80
33E0
43F0
43F0
83F8
83F8
83F8
8008
8008
4010
4010
3060
0F80
ENDCHAR
STARTCHAR U+25D5
ENCODING 9685
SWIDTH 937 0
DWIDTH 15 0
BBX 13 13 1 1
BITMAP
0F80
31E0
41F0
41F0
81F8
81F8
81F8
FFF8
FFF8
7FF0
7FF0
3FE0
0F80
ENDCHAR
STARTCHAR U+25D6
ENCODING 9686
SWIDTH 937 0
DWIDTH 15 0
BBX 7 13 1 1
BITMAP
0E
3E
7E
7E
FE
FE
FE
FE
FE
7E
7E
3E
0E
ENDCHAR
STARTCHAR U+25D7
ENCODING 9687
SWIDTH 937 0
DWIDTH 15 0
BBX 7 13 7 1
BITMAP
E0
F8
FC
FC
FE
FE
FE
FE
FE
FC
FC
F8
E0
ENDCHAR
STARTCHAR U+25D8
ENCODING 9688
SWIDTH 937 0
DWIDTH 15 0
BBX 13 13 1 1
BITMAP
FFF8
FFF8
FFF8
F8F8
F078
E038
E038
E038
F078
F8F8
FFF8
FFF8
FFF8
ENDCHAR
STARTCHAR U+25D9
ENCODING 9689
SWIDTH 937 0
DWIDTH 15 0
BBX 13 13 1 1
BITMAP
FFF8
FFF8
FFF8
F8F8
F778
EFB8
EFB8
EFB8
F778
F8F8
FFF8
FFF8
FFF8
ENDCHAR
STARTCHAR U+25DA
ENCODING 9690
SWIDTH 937 0
DWIDTH 15 0
BBX 13 7 1 7
BITMAP
FFF8
FFF8
FFF8
F8F8
F778
EFB8
EFB8
ENDCHAR
STARTCHAR U+25DB
ENCODING 9691
SWIDTH 937 0
DWIDTH 15 0
BBX 13 7 1 1
BITMAP
EFB8
EFB8
F778
F8F8
FFF8
FFF8
FFF8
ENDCHAR
STARTCHAR U+25DC
ENCODING 9692
SWIDTH 937 0
DWIDTH 15 0
BBX 7 7 1 7
BITMAP
0E
30
40
40
80
80
80
ENDCHAR
STARTCHAR U+25DD
ENCODING 9693
SWIDTH 937 0
DWIDTH 15 0
BBX 7 7 7 7
BITMAP
E0
18
04
04
02
02
02
ENDCHAR
STARTCHAR U+25DE
ENCODING 9694
SWIDTH 937 0
DWIDTH 15 0
BBX 7 7 7 1
BITMAP
02
02
02
04
04
18
E0
ENDCHAR
STARTCHAR U+25DF
ENCODING 9695
SWIDTH 937 0
DWIDTH 15 0
BBX 7 7 1 1
BITMAP
80
80
80
40
40
30
0E
ENDCHAR
STARTCHAR U+25E0
ENCODING 9696
SWIDTH 937 0
DWIDTH 15 0
BBX 13 7 1 7
BITMAP
0F80
3060
4010
4010
8008
8008
8008
ENDCHAR
STARTCHAR U+25E1
ENCODING 9697
SWIDTH 937 0
DWIDTH 15 0
BBX 13 7 1 1
BITMAP
8008
8008
8008
4010
4010
3060
0F80
ENDCHAR
STARTCHAR U+25E2
ENCODING 9698
SWIDTH 937 0
DWIDTH 15 0
BBX 13 13 1 1
BITMAP
0008
0018
0038
0078
00F8
01F8
03F8
07F8
0FF8
1FF8
3FF8
7FF8
FFF8
ENDCHAR
STARTCHAR U+25E3
ENCODING 9699
SWIDTH 937 0
DWIDTH 15 0
BBX 13 13 1 1
BITMAP
8000
C000
E000
F000
F800
FC00
FE00
FF00
FF80
FFC0
FFE0
FFF0
FFF8
ENDCHAR
STARTCHAR U+25E4
ENCODING 9700
SWIDTH 937 0
DWIDTH 15 0
BBX 13 13 1 1
BITMAP
FFF8
FFF0
FFE0
FFC0
FF80
FF00
FE00
FC00
F800
F000
E000
C000
8000
ENDCHAR
STARTCHAR U+25E5
ENCODING 9701
SWIDTH 937 0
DWIDTH 15 0
BBX 13 13 1 1
BITMAP
FFF8
7FF8
3FF8
1FF8
0FF8
07F8
03F8
01F8
00F8
0078
0038
0018
0008
ENDCHAR
STARTCHAR U+25E7
ENCODING 9703
SWIDTH 937 0
DWIDTH 15 0
BBX 13 13 1 1
BITMAP
FFF8
FC08
FC08
FC08
FC08
FC08
FC08
FC08
FC08
FC08
FC08
FC08
FFF8
ENDCHAR
STARTCHAR U+25E8
ENCODING 9704
SWIDTH 937 0
DWIDTH 15 0
BBX 13 13 1 1
BITMAP
FFF8
81F8
81F8
81F8
81F8
81F8
81F8
81F8
81F8
81F8
81F8
81F8
FFF8
ENDCHAR
STARTCHAR U+25E9
ENCODING 9705
SWIDTH 937 0
DWIDTH 15 0
BBX 13 13 1 1
BITMAP
FFF8
FFE8
FFC8
FF88
FF08
FE08
FC08
F808
F008
E008
C008
8008
FFF8
ENDCHAR
STARTCHAR U+25EA
ENCODING 9706
SWIDTH 937 0
DWIDTH 15 0
BBX 13 13 1 1
BITMAP
FFF8
8008
8018
8038
8078
80F8
81F8
83F8
87F8
8FF8
9FF8
BFF8
FFF8
ENDCHAR
STARTCHAR U+25EB
ENCODING 9707
SWIDTH 937 0
DWIDTH 15 0
BBX 13 13 1 1
BITMAP
FFF8
8208
8208
8208
8208
8208
8208
8208
8208
8208
8208
8208
FFF8
ENDCHAR
STARTCHAR U+25EC
ENCODING 9708
SWIDTH 937 0
DWIDTH 15 0
BBX 13 13 1 1
BITMAP
0200
0500
0500
0880
0880
1040
1040
2020
2220
4010
4010
8008
FFF8
ENDCHAR
STARTCHAR U+25ED
ENCODING 9709
SWIDTH 937 0
DWIDTH 15 0
BBX 13 13 1 1
BITMAP
0200
0500
0500
0C80
0C80
1C40
1C40
3C20
3C20
7C10
7C10
FC08
FFF8
ENDCHAR
STARTCHAR U+25EE
ENCODING 9710
SWIDTH 937 0
DWIDTH 15 0
BBX 13 13 1 1
BITMAP
0200
0500
0500
0980
0980
11C0
11C0
21E0
21E0
41F0
41F0
81F8
FFF8
ENDCHAR
STARTCHAR U+25F0
ENCODING 9712
SWIDTH 937 0
DWIDTH 15 0
BBX 13 13 1 1
BITMAP
FFF8
8208
8208
8208
8208
8208
FE08
8008
8008
8008
8008
8008
FFF8
ENDCHAR
STARTCHAR U+25F1
ENCODING 9713
SWIDTH 937 0
DWIDTH 15 0
BBX 13 13 1 1
BITMAP
FFF8
8008
8008
8008
8008
8008
FE08
8208
8208
8208
8208
8208
FFF8
ENDCHAR
STARTCHAR U+25F2
ENCODING 9714
SWIDTH 937 0
DWIDTH 15 0
BBX 13 13 1 1
BITMAP
FFF8
8008
8008
8008
8008
8008
83F8
8208
8208
8208
8208
8208
FFF8
ENDCHAR
STARTCHAR U+25F3
ENCODING 9715
SWIDTH 937 0
DWIDTH 15 0
BBX 13 13 1 1
BITMAP
FFF8
8208
8208
8208
8208
8208
83F8
8008
8008
8008
8008
8008
FFF8
ENDCHAR
STARTCHAR U+25F4
ENCODING 9716
SWIDTH 937 0
DWIDTH 15 0
BBX 13 13 1 1
BITMAP
0F80
3260
4210
4210
8208
8208
FE08
8008
8008
4010
4010
3060
0F80
ENDCHAR
STARTCHAR U+25F5
ENCODING 9717
SWIDTH 937 0
DWIDTH 15 0
BBX 13 13 1 1
BITMAP
0F80
3060
4010
4010
8008
8008
FE08
8208
8208
4210
4210
3260
0F80
ENDCHAR
STARTCHAR U+25F6
ENCODING 9718
SWIDTH 937 0
DWIDTH 15 0
BBX 13 13 1 1
BITMAP
0F80
3060
4010
4010
8008
8008
83F8
8208
8208
4210
4210
3260
0F80
ENDCHAR
STARTCHAR U+25F7
ENCODING 9719
SWIDTH 937 0
DWIDTH 15 0
BBX 13 13 1 1
BITMAP
0F80
3260
4210
4210
8208
8208
83F8
8008
8008
4010
4010
3060
0F80
ENDCHAR
STARTCHAR U+25F8
ENCODING 9720
SWIDTH 937 0
DWIDTH 15 0
BBX 13 13 1 1
BITMAP
FFF8
8010
8020
8040
8080
8100
8200
8400
8800
9000
A000
C000
8000
ENDCHAR
STARTCHAR U+25F9
ENCODING 9721
SWIDTH 937 0
DWIDTH 15 0
BBX 13 13 1 1
BITMAP
FFF8
4008
2008
1008
0808
0408
0208
0108
0088
0048
0028
0018
0008
ENDCHAR
STARTCHAR U+25FA
ENCODING 9722
SWIDTH 937 0
DWIDTH 15 0
BBX 13 13 1 1
BITMAP
8000
C000
A000
9000
8800
8400
8200
8100
8080
8040
8020
8010
FFF8
ENDCHAR
STARTCHAR U+25FF
ENCODING 9727
SWIDTH 937 0
DWIDTH 15 0
BBX 13 13 1 1
BITMAP
0008
0018
0028
0048
0088
0108
0208
0408
0808
1008
2008
4008
FFF8
ENDCHAR
STARTCHAR U+2605
ENCODING 9733
SWIDTH 937 0
DWIDTH 15 0
BBX 13 13 1 1
BITMAP
0200
0200
0700
0700
FFF8
7FF0
3FE0
1FC0
0F80
1DC0
18C0
1040
2020
ENDCHAR
STARTCHAR U+2606
ENCODING 9734
SWIDTH 937 0
DWIDTH 15 0
BBX 13 13 1 1
BITMAP
0200
0500
0500
0880
F8F8
4010
2020
1040
1240
1540
18C0
1040
2020
ENDCHAR
STARTCHAR U+260E
ENCODING 9742
SWIDTH 937 0
DWIDTH 15 0
BBX 14 12 0 1
BITMAP
3FF0
7FF8
E01C
E85C
EFDC
0FC0
1CE0
1860
3870
3CF0
3FF0
3FF0
ENDCHAR
STARTCHAR U+260F
ENCODING 9743
SWIDTH 937 0
DWIDTH 15 0
BBX 14 12 0 1
BITMAP
3FF0
4008
9FE4
A014
EFDC
0840
1320
14A0
2490
2310
2010
3FF0
ENDCHAR
STARTCHAR U+2610
ENCODING 9744
SWIDTH 937 0
DWIDTH 15 0
BBX 11 11 2 2
BITMAP
FFE0
8020
8020
8020
8020
8020
8020
8020
8020
8020
FFE0
ENDCHAR
STARTCHAR U+2611
ENCODING 9745
SWIDTH 937 0
DWIDTH 15 0
BBX 11 11 2 2
BITMAP
FFE0
8020
8020
80A0
8120
A220
9420
8820
8020
8020
FFE0
ENDCHAR
STARTCHAR U+2612
ENCODING 9746
SWIDTH 937 0
DWIDTH 15 0
BBX 11 11 2 2
BITMAP
FFE0
8020
A0A0
9120
8A20
8420
8A20
9120
A0A0
8020
FFE0
ENDCHAR
STARTCHAR U+261C
ENCODING 9756
SWIDTH 937 0
DWIDTH 15 0
BBX 13 9 1 3
BITMAP
7FD8
8028
7E28
1028
0E28
1028
0E28
1028
0FD8
ENDCHAR
STARTCHAR U+261E
ENCODING 9758
SWIDTH 937 0
DWIDTH 15 0
BBX 13 9 1 3
BITMAP
DFF0
A008
A3F0
A040
A380
A040
A380
A040
DF80
ENDCHAR
STARTCHAR U+262E
ENCODING 9774
SWIDTH 937 0
DWIDTH 15 0
BBX 13 13 1 1
BITMAP
0F80
3260
4210
4210
8208
8208
8708
8A88
9248
6230
4210
3260
0F80
ENDCHAR
STARTCHAR U+2630
ENCODING 9776
SWIDTH 937 0
DWIDTH 15 0
BBX 13 10 1 3
BITMAP
FFF8
FFF8
0000
0000
FFF8
FFF8
0000
0000
FFF8
FFF8
ENDCHAR
STARTCHAR U+2631
ENCODING 9777
SWIDTH 937 0
DWIDTH 15 0
BBX 13 10 1 3
BITMAP
FDF8
FDF8
0000
0000
FFF8
FFF8
0000
0000
FFF8
FFF8
ENDCHAR
STARTCHAR U+2632
ENCODING 9778
SWIDTH 937 0
DWIDTH 15 0
BBX 13 10 1 3
BITMAP
FFF8
FFF8
0000
0000
FDF8
FDF8
0000
0000
FFF8
FFF8
ENDCHAR
STARTCHAR U+2633
ENCODING 9779
SWIDTH 937 0
DWIDTH 15 0
BBX 13 10 1 3
BITMAP
FDF8
FDF8
0000
0000
FDF8
FDF8
0000
0000
FFF8
FFF8
ENDCHAR
STARTCHAR U+2634
ENCODING 9780
SWIDTH 937 0
DWIDTH 15 0
BBX 13 10 1 3
BITMAP
FFF8
FFF8
0000
0000
FFF8
FFF8
0000
0000
FDF8
FDF8
ENDCHAR
STARTCHAR U+2635
ENCODING 9781
SWIDTH 937 0
DWIDTH 15 0
BBX 13 10 1 3
BITMAP
FDF8
FDF8
0000
0000
FFF8
FFF8
0000
0000
FDF8
FDF8
ENDCHAR
STARTCHAR U+2636
ENCODING 9782
SWIDTH 937 0
DWIDTH 15 0
BBX 13 10 1 3
BITMAP
FFF8
FFF8
0000
0000
FDF8
FDF8
0000
0000
FDF8
FDF8
ENDCHAR
STARTCHAR U+2637
ENCODING 9783
SWIDTH 937 0
DWIDTH 15 0
BBX 13 10 1 3
BITMAP
FDF8
FDF8
0000
0000
FDF8
FDF8
0000
0000
FDF8
FDF8
ENDCHAR
STARTCHAR U+2639
ENCODING 9785
SWIDTH 937 0
DWIDTH 15 0
BBX 13 13 1 1
BITMAP
FFF8
8008
8008
8888
8888
8888
8008
8008
8F88
9048
8008
8008
FFF8
ENDCHAR
STARTCHAR U+263A
ENCODING 9786
SWIDTH 937 0
DWIDTH 15 0
BBX 13 13 1 1
BITMAP
FFF8
8008
8008
8888
8888
8888
8008
8008
9048
8F88
8008
8008
FFF8
ENDCHAR
STARTCHAR U+263B
ENCODING 9787
SWIDTH 937 0
DWIDTH 15 0
BBX 13 13 1 1
BITMAP
FFF8
FFF8
FFF8
F778
F778
F778
FFF8
FFF8
EFB8
F078
FFF8
FFF8
FFF8
ENDCHAR
STARTCHAR U+2640
ENCODING 9792
SWIDTH 937 0
DWIDTH 15 0
BBX 7 12 4 1
BITMAP
38
44
82
82
82
44
38
10
FE
10
10
10
ENDCHAR
STARTCHAR U+2641
ENCODING 9793
SWIDTH 937 0
DWIDTH 15 0
BBX 7 12 4 1
BITMAP
10
10
10
FE
10
38
44
82
82
82
44
38
ENDCHAR
STARTCHAR U+2642
ENCODING 9794
SWIDTH 937 0
DWIDTH 15 0
BBX 7 12 4 1
BITMAP
10
38
54
92
10
38
44
82
82
82
44
38
ENDCHAR
STARTCHAR U+2660
ENCODING 9824
SWIDTH 937 0
DWIDTH 15 0
BBX 13 13 1 1
BITMAP
0200
0700
0F80
1FC0
3FE0
7FF0
FFF8
FFF8
FFF8
FFF8
7AF0
0700
0F80
ENDCHAR
STARTCHAR U+2661
ENCODING 9825
SWIDTH 937 0
DWIDTH 15 0
BBX 13 12 1 1
BITMAP
38E0
4510
8208
8008
8008
8008
4010
2020
1040
0880
0500
0200
ENDCHAR
STARTCHAR U+2662
ENCODING 9826
SWIDTH 937 0
DWIDTH 15 0
BBX 13 13 1 1
BITMAP
0200
0500
0880
1040
2020
4010
8008
4010
2020
1040
0880
0500
0200
ENDCHAR
STARTCHAR U+2663
ENCODING 9827
SWIDTH 937 0
DWIDTH 15 0
BBX 13 13 1 1
BITMAP
0F80
1FC0
1FC0
1FC0
6FB0
FFF8
FFF8
FFF8
FFF8
FFF8
7AF0
0700
0F80
ENDCHAR
STARTCHAR U+2664
ENCODING 9828
SWIDTH 937 0
DWIDTH 15 0
BBX 13 13 1 1
BITMAP
0200
0500
0880
1040
2020
4010
8008
8008
8008
8D88
7570
0880
0F80
ENDCHAR
STARTCHAR U+2665
ENCODING 9829
SWIDTH 937 0
DWIDTH 15 0
BBX 13 12 1 1
BITMAP
38E0
7DF0
FFF8
FFF8
FFF8
FFF8
7FF0
3FE0
1FC0
0F80
0700
0200
ENDCHAR
STARTCHAR U+2666
ENCODING 9830
SWIDTH 937 0
DWIDTH 15 0
BBX 13 13 1 1
BITMAP
0200
0700
0F80
1FC0
3FE0
7FF0
FFF8
7FF0
3FE0
1FC0
0F80
0700
0200
ENDCHAR
STARTCHAR U+2667
ENCODING 9831
SWIDTH 937 0
DWIDTH 15 0
BBX 13 13 1 1
BITMAP
0F80
1040
1040
1040
7070
8888
8008
8008
8008
8D88
7570
0880
0F80
ENDCHAR
STARTCHAR U+2668
ENCODING 9832
SWIDTH 937 0
DWIDTH 15 0
BBX 14 12 0 1
BITMAP
0920
1240
1240
1240
0920
0920
4928
9244
8004
E01C
7FF8
1FE0
ENDCHAR
STARTCHAR U+2669
ENCODING 9833
SWIDTH 937 0
DWIDTH 15 0
BBX 5 14 4 0
BITMAP
08
08
08
08
08
08
08
08
08
08
78
F8
F8
F0
ENDCHAR
STARTCHAR U+266A
ENCODING 9834
SWIDTH 937 0
DWIDTH 15 0
BBX 9 14 3 0
BITMAP
0800
0C00
0E00
0B00
0980
0880
0880
0900
0A00
0800
7800
F800
F800
F000
ENDCHAR
STARTCHAR U+266B
ENCODING 9835
SWIDTH 937 0
DWIDTH 15 0
BBX 13 14 0 0
BITMAP
0FF8
0FF8
0FF8
0808
0808
0808
0808
0808
0808
0808
7878
F8F8
F8F8
F0F0
ENDCHAR
STARTCHAR U+266C
ENCODING 9836
SWIDTH 937 0
DWIDTH 15 0
BBX 13 14 0 0
BITMAP
0FF8
0808
0FF8
0808
0808
0808
0808
0808
0808
0808
7878
F8F8
F8F8
F0F0
ENDCHAR
STARTCHAR U+266D
ENCODING 9837
SWIDTH 937 0
DWIDTH 15 0
BBX 7 14 4 0
BITMAP
80
80
80
80
80
BC
EE
86
86
8C
8C
98
B0
C0
ENDCHAR
STARTCHAR U+266E
ENCODING 9838
SWIDTH 937 0
DWIDTH 15 0
BBX 7 14 4 0
BITMAP
80
80
86
9E
FE
F2
82
82
9E
FE
F2
C2
02
02
ENDCHAR
STARTCHAR U+266F
ENCODING 9839
SWIDTH 937 0
DWIDTH 15 0
BBX 12 14 1 0
BITMAP
0080
1080
10F0
1FF0
FF80
F080
1080
1080
10F0
1FF0
FF80
F080
1080
1000
ENDCHAR
STARTCHAR U+2753
ENCODING 10067
SWIDTH 937 0
DWIDTH 15 0
BBX 13 13 1 1
BITMAP
FFF8
FFF8
F8F8
F778
FF78
FEF8
FDF8
FDF8
FFF8
FDF8
FDF8
FFF8
FFF8
ENDCHAR
STARTCHAR U+2757
ENCODING 10071
SWIDTH 937 0
DWIDTH 15 0
BBX 13 13 1 1
BITMAP
FFF8
FFF8
FDF8
FDF8
FDF8
FDF8
FDF8
FDF8
FFF8
FDF8
FDF8
FFF8
FFF8
ENDCHAR
STARTCHAR U+2776
ENCODING 10102
SWIDTH 937 0
DWIDTH 15 0
BBX 13 13 1 1
BITMAP
0F80
3FE0
7FF0
7DF0
F9F8
FDF8
FDF8
FDF8
FDF8
78F0
7FF0
3FE0
0F80
ENDCHAR
STARTCHAR U+2777
ENCODING 10103
SWIDTH 937 0
DWIDTH 15 0
BBX 13 13 1 1
BITMAP
0F80
3FE0
7FF0
78F0
F778
FF78
FEF8
FDF8
FBF8
7070
7FF0
3FE0
0F80
ENDCHAR
STARTCHAR U+2778
ENCODING 10104
SWIDTH 937 0
DWIDTH 15 0
BBX 13 13 1 1
BITMAP
0F80
3FE0
7FF0
78F0
F778
FF78
FCF8
FF78
F778
78F0
7FF0
3FE0
0F80
ENDCHAR
STARTCHAR U+2779
ENCODING 10105
SWIDTH 937 0
DWIDTH 15 0
BBX 13 13 1 1
BITMAP
0F80
3FE0
7FF0
7EF0
FCF8
FAF8
F6F8
E078
FEF8
7EF0
7FF0
3FE0
0F80
ENDCHAR
STARTCHAR U+277A
ENCODING 10106
SWIDTH 937 0
DWIDTH 15 0
BBX 13 13 1 1
BITMAP
0F80
3FE0
7FF0
7070
F7F8
F0F8
F778
FF78
F778
78F0
7FF0
3FE0
0F80
ENDCHAR
STARTCHAR U+277B
ENCODING 10107
SWIDTH 937 0
DWIDTH 15 0
BBX 13 13 1 1
BITMAP
0F80
3FE0
7FF0
78F0
F778
F7F8
F0F8
F778
F778
78F0
7FF0
3FE0
0F80
ENDCHAR
STARTCHAR U+277C
ENCODING 10108
SWIDTH 937 0
DWIDTH 15 0
BBX 13 13 1 1
BITMAP
0F80
3FE0
7FF0
7070
FF78
FEF8
FEF8
FDF8
FDF8
7DF0
7FF0
3FE0
0F80
ENDCHAR
STARTCHAR U+277D
ENCODING 10109
SWIDTH 937 0
DWIDTH 15 0
BBX 13 13 1 1
BITMAP
0F80
3FE0
7FF0
78F0
F778
F778
F8F8
F778
F778
78F0
7FF0
3FE0
0F80
ENDCHAR
STARTCHAR U+277E
ENCODING 10110
SWIDTH 937 0
DWIDTH 15 0
BBX 13 13 1 1
BITMAP
0F80
3FE0
7FF0
78F0
F778
F778
F878
FF78
F778
78F0
7FF0
3FE0
0F80
ENDCHAR
STARTCHAR U+277F
ENCODING 10111
SWIDTH 937 0
DWIDTH 15 0
BBX 13 13 1 1
BITMAP
0F80
3FE0
7FF0
7670
E5B8
F5B8
F5B8
F5B8
F5B8
7670
7FF0
3FE0
0F80
ENDCHAR
STARTCHAR U+2780
ENCODING 10112
SWIDTH 937 0
DWIDTH 15 0
BBX 13 13 1 1
BITMAP
0F80
3060
4010
4210
8608
8208
8208
8208
8208
4710
4010
3060
0F80
ENDCHAR
STARTCHAR U+2781
ENCODING 10113
SWIDTH 937 0
DWIDTH 15 0
BBX 13 13 1 1
BITMAP
0F80
3060
4010
4710
8888
8088
8108
8208
8408
4F90
4010
3060
0F80
ENDCHAR
STARTCHAR U+2782
ENCODING 10114
SWIDTH 937 0
DWIDTH 15 0
BBX 13 13 1 1
BITMAP
0F80
3060
4010
4710
8888
8088
8308
8088
8888
4710
4010
3060
0F80
ENDCHAR
STARTCHAR U+2783
ENCODING 10115
SWIDTH 937 0
DWIDTH 15 0
BBX 13 13 1 1
BITMAP
0F80
3060
4010
4110
8308
8508
8908
9F88
8108
4110
4010
3060
0F80
ENDCHAR
STARTCHAR U+2784
ENCODING 10116
SWIDTH 937 0
DWIDTH 15 0
BBX 13 13 1 1
BITMAP
0F80
3060
4010
4F90
8808
8F08
8888
8088
8888
4710
4010
3060
0F80
ENDCHAR
STARTCHAR U+2785
ENCODING 10117
SWIDTH 937 0
DWIDTH 15 0
BBX 13 13 1 1
BITMAP
0F80
3060
4010
4710
8888
8808
8F08
8888
8888
4710
4010
3060
0F80
ENDCHAR
STARTCHAR U+2786
ENCODING 10118
SWIDTH 937 0
DWIDTH 15 0
BBX 13 13 1 1
BITMAP
0F80
3060
4010
4F90
8088
8108
8108
8208
8208
4210
4010
3060
0F80
ENDCHAR
STARTCHAR U+2787
ENCODING 10119
SWIDTH 937 0
DWIDTH 15 0
BBX 13 13 1 1
BITMAP
0F80
3060
4010
4710
8888
8888
8708
8888
8888
4710
4010
3060
0F80
ENDCHAR
STARTCHAR U+2788
ENCODING 10120
SWIDTH 937 0
DWIDTH 15 0
BBX 13 13 1 1
BITMAP
0F80
3060
4010
4710
8888
8888
8788
8088
8888
4710
4010
3060
0F80
ENDCHAR
STARTCHAR U+2789
ENCODING 10121
SWIDTH 937 0
DWIDTH 15 0
BBX 13 13 1 1
BITMAP
0F80
3060
4010
4990
9A48
8A48
8A48
8A48
8A48
4990
4010
3060
0F80
ENDCHAR
STARTCHAR U+278A
ENCODING 10122
SWIDTH 937 0
DWIDTH 15 0
BBX 13 13 1 1
BITMAP
0F80
3FE0
7FF0
7DF0
F9F8
FDF8
FDF8
FDF8
FDF8
78F0
7FF0
3FE0
0F80
ENDCHAR
STARTCHAR U+278B
ENCODING 10123
SWIDTH 937 0
DWIDTH 15 0
BBX 13 13 1 1
BITMAP
0F80
3FE0
7FF0
78F0
F778
FF78
FEF8
FDF8
FBF8
7070
7FF0
3FE0
0F80
ENDCHAR
STARTCHAR U+278C
ENCODING 10124
SWIDTH 937 0
DWIDTH 15 0
BBX 13 13 1 1
BITMAP
0F80
3FE0
7FF0
78F0
F778
FF78
FCF8
FF78
F778
78F0
7FF0
3FE0
0F80
ENDCHAR
STARTCHAR U+278D
ENCODING 10125
SWIDTH 937 0
DWIDTH 15 0
BBX 13 13 1 1
BITMAP
0F80
3FE0
7FF0
7EF0
FCF8
FAF8
F6F8
E078
FEF8
7EF0
7FF0
3FE0
0F80
ENDCHAR
STARTCHAR U+278E
ENCODING 10126
SWIDTH 937 0
DWIDTH 15 0
BBX 13 13 1 1
BITMAP
0F80
3FE0
7FF0
7070
F7F8
F0F8
F778
FF78
F778
78F0
7FF0
3FE0
0F80
ENDCHAR
STARTCHAR U+278F
ENCODING 10127
SWIDTH 937 0
DWIDTH 15 0
BBX 13 13 1 1
BITMAP
0F80
3FE0
7FF0
78F0
F778
F7F8
F0F8
F778
F778
78F0
7FF0
3FE0
0F80
ENDCHAR
STARTCHAR U+2790
ENCODING 10128
SWIDTH 937 0
DWIDTH 15 0
BBX 13 13 1 1
BITMAP
0F80
3FE0
7FF0
7070
FF78
FEF8
FEF8
FDF8
FDF8
7DF0
7FF0
3FE0
0F80
ENDCHAR
STARTCHAR U+2791
ENCODING 10129
SWIDTH 937 0
DWIDTH 15 0
BBX 13 13 1 1
BITMAP
0F80
3FE0
7FF0
78F0
F778
F778
F8F8
F778
F778
78F0
7FF0
3FE0
0F80
ENDCHAR
STARTCHAR U+2792
ENCODING 10130
SWIDTH 937 0
DWIDTH 15 0
BBX 13 13 1 1
BITMAP
0F80
3FE0
7FF0
78F0
F778
F778
F878
FF78
F778
78F0
7FF0
3FE0
0F80
ENDCHAR
STARTCHAR U+2793
ENCODING 10131
SWIDTH 937 0
DWIDTH 15 0
BBX 13 13 1 1
BITMAP
0F80
3FE0
7FF0
7670
E5B8
F5B8
F5B8
F5B8
F5B8
7670
7FF0
3FE0
0F80
ENDCHAR
STARTCHAR U+3000
ENCODING 12288
SWIDTH 937 0
DWIDTH 15 0
BBX 0 0 0 0
BITMAP
ENDCHAR
STARTCHAR U+3001
ENCODING 12289
SWIDTH 937 0
DWIDTH 15 0
BBX 4 4 1 0
BITMAP
80
40
20
10
ENDCHAR
STARTCHAR U+3002
ENCODING 12290
SWIDTH 937 0
DWIDTH 15 0
BBX 4 4 2 0
BITMAP
60
90
90
60
ENDCHAR
STARTCHAR U+3003
ENCODING 12291
SWIDTH 937 0
DWIDTH 15 0
BBX 8 8 3 3
BITMAP
33
22
22
22
44
44
44
88
ENDCHAR
STARTCHAR U+3004
ENCODING 12292
SWIDTH 937 0
DWIDTH 15 0
BBX 14 14 0 0
BITMAP
0780
1860
2010
4A68
4A88
8A84
8A44
8A24
8A24
4A28
32C8
0010
1060
0F80
ENDCHAR
STARTCHAR U+3005
ENCODING 12293
SWIDTH 937 0
DWIDTH 15 0
BBX 12 13 1 0
BITMAP
1000
1000
1FF0
1010
2010
2010
4020
8020
1840
0640
0180
0040
0020
ENDCHAR
STARTCHAR U+3006
ENCODING 12294
SWIDTH 937 0
DWIDTH 15 0
BBX 13 13 1 0
BITMAP
0008
0010
0020
0C40
1280
2100
2280
4440
4800
9000
A000
C000
8000
ENDCHAR
STARTCHAR U+3007
ENCODING 12295
SWIDTH 937 0
DWIDTH 15 0
BBX 13 13 1 0
BITMAP
0F80
3060
4010
4010
8008
8008
8008
8008
8008
4010
4010
3060
0F80
ENDCHAR
STARTCHAR U+3008
ENCODING 12296
SWIDTH 312 0
DWIDTH 5 0
BBX 4 14 1 0
BITMAP
10
10
20
20
40
40
80
80
40
40
20
20
10
10
ENDCHAR
STARTCHAR U+3009
ENCODING 12297
SWIDTH 312 0
DWIDTH 5 0
BBX 4 14 0 0
BITMAP
80
80
40
40
20
20
10
10
20
20
40
40
80
80
ENDCHAR
STARTCHAR U+300A
ENCODING 12298
SWIDTH 500 0
DWIDTH 8 0
BBX 7 14 1 0
BITMAP
12
12
24
24
48
48
90
90
48
48
24
24
12
12
ENDCHAR
STARTCHAR U+300B
ENCODING 12299
SWIDTH 500 0
DWIDTH 8 0
BBX 7 14 0 0
BITMAP
90
90
48
48
24
24
12
12
24
24
48
48
90
90
ENDCHAR
STARTCHAR U+300C
ENCODING 12300
SWIDTH 312 0
DWIDTH 5 0
BBX 4 7 1 7
BITMAP
F0
80
80
80
80
80
80
ENDCHAR
STARTCHAR U+300D
ENCODING 12301
SWIDTH 312 0
DWIDTH 5 0
BBX 4 7 0 0
BITMAP
10
10
10
10
10
10
F0
ENDCHAR
STARTCHAR U+300E
ENCODING 12302
SWIDTH 375 0
DWIDTH 6 0
BBX 5 7 1 7
BITMAP
F8
88
B8
A0
A0
A0
E0
ENDCHAR
STARTCHAR U+300F
ENCODING 12303
SWIDTH 375 0
DWIDTH 6 0
BBX 5 7 0 0
BITMAP
38
28
28
28
E8
88
F8
ENDCHAR
STARTCHAR U+3010
ENCODING 12304
SWIDTH 312 0
DWIDTH 5 0
BBX 4 14 1 0
BITMAP
F0
E0
C0
C0
80
80
80
80
80
80
C0
C0
E0
F0
ENDCHAR
STARTCHAR U+3011
ENCODING 12305
SWIDTH 312 0
DWIDTH 5 0
BBX 4 14 0 0
BITMAP
F0
70
30
30
10
10
10
10
10
10
30
30
70
F0
ENDCHAR
STARTCHAR U+3012
ENCODING 12306
SWIDTH 937 0
DWIDTH 15 0
BBX 13 13 1 1
BITMAP
FFF8
0000
0000
0000
FFF8
0200
0200
0200
0200
0200
0200
0200
0200
ENDCHAR
STARTCHAR U+3013
ENCODING 12307
SWIDTH 937 0
DWIDTH 15 0
BBX 14 11 0 2
BITMAP
FFFC
FFFC
FFFC
0000
0000
0000
0000
0000
FFFC
FFFC
FFFC
ENDCHAR
STARTCHAR U+3014
ENCODING 12308
SWIDTH 312 0
DWIDTH 5 0
BBX 4 14 1 0
BITMAP
30
C0
80
80
80
80
80
80
80
80
80
80
C0
30
ENDCHAR
STARTCHAR U+3015
ENCODING 12309
SWIDTH 312 0
DWIDTH 5 0
BBX 4 14 0 0
BITMAP
C0
30
10
10
10
10
10
10
10
10
10
10
30
C0
ENDCHAR
STARTCHAR U+301C
ENCODING 12316
SWIDTH 937 0
DWIDTH 15 0
BBX 13 5 1 4
BITMAP
3800
4408
8208
8110
00E0
ENDCHAR
STARTCHAR U+3036
ENCODING 12342
SWIDTH 937 0
DWIDTH 15 0
BBX 13 13 1 0
BITMAP
0F80
3060
4010
5FD0
8008
8008
9FC8
8208
8208
4210
4210
3060
0F80
ENDCHAR
STARTCHAR U+3041
ENCODING 12353
SWIDTH 937 0
DWIDTH 15 0
BBX 10 10 2 1
BITMAP
1000
FF80
1000
3F00
5280
9240
9440
8840
9080
6300
ENDCHAR
STARTCHAR U+3042
ENCODING 12354
SWIDTH 937 0
DWIDTH 15 0
BBX 12 12 1 1
BITMAP
0800
FFE0
1000
1F80
3240
5220
9210
9210
9410
8810
4820
31C0
ENDCHAR
STARTCHAR U+3043
ENCODING 12355
SWIDTH 937 0
DWIDTH 15 0
BBX 10 10 2 1
BITMAP
8000
8080
8080
8080
8040
8040
8040
9040
5000
2000
ENDCHAR
STARTCHAR U+3044
ENCODING 12356
SWIDTH 937 0
DWIDTH 15 0
BBX 12 11 1 1
BITMAP
8000
8040
8040
8020
8020
8010
8010
8810
4810
4800
3000
ENDCHAR
STARTCHAR U+3045
ENCODING 12357
SWIDTH 937 0
DWIDTH 15 0
BBX 9 10 2 1
BITMAP
3C00
0300
0000
3F00
C080
0080
0080
0080
0300
1C00
ENDCHAR
STARTCHAR U+3046
ENCODING 12358
SWIDTH 937 0
DWIDTH 15 0
BBX 11 12 1 1
BITMAP
3C00
0380
0000
1F80
E040
0020
0020
0020
0020
0040
0180
1E00
ENDCHAR
STARTCHAR U+3047
ENCODING 12359
SWIDTH 937 0
DWIDTH 15 0
BBX 9 10 2 1
BITMAP
3800
0600
0000
FF00
0400
0800
1C00
2400
4400
8380
ENDCHAR
STARTCHAR U+3048
ENCODING 12360
SWIDTH 937 0
DWIDTH 15 0
BBX 12 12 1 1
BITMAP
3C00
0380
0000
7FC0
0080
0100
0200
0C00
1200
2200
4200
81F0
ENDCHAR
STARTCHAR U+3049
ENCODING 12361
SWIDTH 937 0
DWIDTH 15 0
BBX 10 10 2 1
BITMAP
1000
7E80
1040
3F00
5080
9040
9040
9040
9080
6300
ENDCHAR
STARTCHAR U+304A
ENCODING 12362
SWIDTH 937 0
DWIDTH 15 0
BBX 12 12 1 1
BITMAP
0800
7F40
0820
0810
0F80
3860
4810
8810
8810
8810
8860
7180
ENDCHAR
STARTCHAR U+304B
ENCODING 12363
SWIDTH 937 0
DWIDTH 15 0
BBX 12 12 1 1
BITMAP
1000
1040
1020
FF10
1090
1080
1080
2080
2080
2080
4100
8E00
ENDCHAR
STARTCHAR U+304C
ENCODING 12364
SWIDTH 937 0
DWIDTH 15 0
BBX 12 12 1 1
BITMAP
1050
1050
1080
FF40
10A0
1090
1090
2080
2080
2080
4100
8E00
ENDCHAR
STARTCHAR U+304D
ENCODING 12365
SWIDTH 937 0
DWIDTH 15 0
BBX 11 12 2 1
BITMAP
0200
7FC0
0100
0100
FFE0
0080
0080
3F40
40C0
4000
4000
3F00
ENDCHAR
STARTCHAR U+304E
ENCODING 12366
SWIDTH 937 0
DWIDTH 15 0
BBX 12 12 1 1
BITMAP
0250
7FD0
0100
0100
FFE0
0080
0080
3F40
40C0
4000
4000
3F00
ENDCHAR
STARTCHAR U+304F
ENCODING 12367
SWIDTH 937 0
DWIDTH 15 0
BBX 9 12 2 1
BITMAP
0080
0300
0C00
1000
6000
8000
8000
6000
1000
0C00
0300
0080
ENDCHAR
STARTCHAR U+3050
ENCODING 12368
SWIDTH 937 0
DWIDTH 15 0
BBX 10 12 2 1
BITMAP
0080
0300
0C00
1140
6140
8000
8000
6000
1000
0C00
0300
0080
ENDCHAR
STARTCHAR U+3051
ENCODING 12369
SWIDTH 937 0
DWIDTH 15 0
BBX 12 12 1 1
BITMAP
0040
8040
8040
9FF0
8040
8040
8040
8040
8040
8040
8080
0700
ENDCHAR
STARTCHAR U+3052
ENCODING 12370
SWIDTH 937 0
DWIDTH 15 0
BBX 12 12 1 1
BITMAP
0050
8050
8040
8FF0
8040
8040
8040
8040
8040
8040
8080
0300
ENDCHAR
STARTCHAR U+3053
ENCODING 12371
SWIDTH 937 0
DWIDTH 15 0
BBX 11 11 1 1
BITMAP
7FC0
0000
0000
0000
0000
0000
4000
8000
8000
8000
7FE0
ENDCHAR
STARTCHAR U+3054
ENCODING 12372
SWIDTH 937 0
DWIDTH 15 0
BBX 12 12 1 1
BITMAP
0050
7FD0
0000
0000
0000
0000
0000
4000
8000
8000
8000
7FE0
ENDCHAR
STARTCHAR U+3055
ENCODING 12373
SWIDTH 937 0
DWIDTH 15 0
BBX 11 12 2 1
BITMAP
0200
0200
FFE0
0100
0080
0080
3F40
40C0
8000
8000
4000
3F00
ENDCHAR
STARTCHAR U+3056
ENCODING 12374
SWIDTH 937 0
DWIDTH 15 0
BBX 12 12 1 1
BITMAP
0250
0250
FFE0
0100
0080
0080
3F40
40C0
8000
8000
4000
3F00
ENDCHAR
STARTCHAR U+3057
ENCODING 12375
SWIDTH 937 0
DWIDTH 15 0
BBX 10 12 3 1
BITMAP
8000
8000
8000
8000
8000
8000
8000
8040
8040
8080
4100
3E00
ENDCHAR
STARTCHAR U+3058
ENCODING 12376
SWIDTH 937 0
DWIDTH 15 0
BBX 10 12 3 1
BITMAP
8000
8280
8280
8000
8000
8000
8000
8040
8040
8080
4100
3E00
ENDCHAR
STARTCHAR U+3059
ENCODING 12377
SWIDTH 937 0
DWIDTH 15 0
BBX 12 12 1 1
BITMAP
0080
0080
FFF0
0080
0E80
1180
1080
1180
0E80
0080
0100
0E00
ENDCHAR
STARTCHAR U+305A
ENCODING 12378
SWIDTH 937 0
DWIDTH 15 0
BBX 12 12 1 1
BITMAP
0150
0150
FFE0
0100
1D00
2300
2100
2300
1D00
0100
0200
1C00
ENDCHAR
STARTCHAR U+305B
ENCODING 12379
SWIDTH 937 0
DWIDTH 15 0
BBX 12 12 1 1
BITMAP
2040
2040
2040
FFF0
2040
2040
2040
2180
2000
2000
1000
0FE0
ENDCHAR
STARTCHAR U+305C
ENCODING 12380
SWIDTH 937 0
DWIDTH 15 0
BBX 12 12 1 1
BITMAP
2050
2050
2040
FFF0
2040
2040
2040
2180
2000
2000
1000
0FE0
ENDCHAR
STARTCHAR U+305D
ENCODING 12381
SWIDTH 937 0
DWIDTH 15 0
BBX 12 12 1 1
BITMAP
3FC0
0100
0600
1800
2000
FFF0
0600
0800
1000
1000
0800
07C0
ENDCHAR
STARTCHAR U+305E
ENCODING 12382
SWIDTH 937 0
DWIDTH 15 0
BBX 12 12 1 1
BITMAP
3FC0
0300
0450
1850
2000
FFF0
0600
0800
1000
1000
0800
07C0
ENDCHAR
STARTCHAR U+305F
ENCODING 12383
SWIDTH 937 0
DWIDTH 15 0
BBX 12 12 1 1
BITMAP
2000
2000
FF80
2000
2000
27E0
4000
4000
4000
4800
8800
87F0
ENDCHAR
STARTCHAR U+3060
ENCODING 12384
SWIDTH 937 0
DWIDTH 15 0
BBX 12 12 1 1
BITMAP
2050
2050
FF80
2000
2000
27E0
4000
4000
4000
4800
8800
87F0
ENDCHAR
STARTCHAR U+3061
ENCODING 12385
SWIDTH 937 0
DWIDTH 15 0
BBX 11 12 1 1
BITMAP
1000
1000
FFE0
2000
2000
2F80
5040
6020
0020
0020
0040
1F80
ENDCHAR
STARTCHAR U+3062
ENCODING 12386
SWIDTH 937 0
DWIDTH 15 0
BBX 12 12 1 1
BITMAP
1050
1050
FFE0
2000
2000
2F80
5040
6020
0020
0020
0040
1F80
ENDCHAR
STARTCHAR U+3063
ENCODING 12387
SWIDTH 937 0
DWIDTH 15 0
BBX 10 9 2 1
BITMAP
3F00
C080
0040
0040
0040
0040
0080
0300
3C00
ENDCHAR
STARTCHAR U+3064
ENCODING 12388
SWIDTH 937 0
DWIDTH 15 0
BBX 12 10 1 2
BITMAP
1FC0
E020
0010
0010
0010
0010
0010
0020
00C0
1F00
ENDCHAR
STARTCHAR U+3065
ENCODING 12389
SWIDTH 937 0
DWIDTH 15 0
BBX 12 11 1 2
BITMAP
0050
1FD0
E020
0010
0010
0010
0010
0010
0020
00C0
1F00
ENDCHAR
STARTCHAR U+3066
ENCODING 12390
SWIDTH 937 0
DWIDTH 15 0
BBX 12 11 1 1
BITMAP
FFF0
0180
0600
0800
1000
1000
1000
1000
0800
0400
03C0
ENDCHAR
STARTCHAR U+3067
ENCODING 12391
SWIDTH 937 0
DWIDTH 15 0
BBX 12 11 1 1
BITMAP
FFF0
0180
0600
0800
1050
1050
1000
1000
0800
0400
03C0
ENDCHAR
STARTCHAR U+3068
ENCODING 12392
SWIDTH 937 0
DWIDTH 15 0
BBX 12 12 1 1
BITMAP
2000
2000
1060
1380
0C00
3000
4000
8000
8000
8000
6000
1FF0
ENDCHAR
STARTCHAR U+3069
ENCODING 12393
SWIDTH 937 0
DWIDTH 15 0
BBX 12 12 1 1
BITMAP
2050
2050
1000
11E0
0E00
3000
4000
8000
8000
8000
6000
1FF0
ENDCHAR
STARTCHAR U+306A
ENCODING 12394
SWIDTH 937 0
DWIDTH 15 0
BBX 12 12 1 1
BITMAP
2000
2040
FC20
2010
2010
4040
4040
4040
87C0
8860
0850
0780
ENDCHAR
STARTCHAR U+306B
ENCODING 12395
SWIDTH 937 0
DWIDTH 15 0
BBX 11 12 2 1
BITMAP
8000
8FC0
8000
8000
8000
8000
8000
8800
9000
9000
8FE0
8000
ENDCHAR
STARTCHAR U+306C
ENCODING 12396
SWIDTH 937 0
DWIDTH 15 0
BBX 12 12 1 1
BITMAP
0200
2200
3F80
2240
6220
A410
A410
A810
A9D0
9230
9220
61D0
ENDCHAR
STARTCHAR U+306D
ENCODING 12397
SWIDTH 937 0
DWIDTH 15 0
BBX 12 12 1 1
BITMAP
2000
2000
27C0
E820
3010
2010
6010
6010
A1D0
A230
2220
21D0
ENDCHAR
STARTCHAR U+306E
ENCODING 12398
SWIDTH 937 0
DWIDTH 15 0
BBX 12 11 1 1
BITMAP
1F80
2240
4220
8210
8210
8210
8410
8410
4820
3040
0180
ENDCHAR
STARTCHAR U+306F
ENCODING 12399
SWIDTH 937 0
DWIDTH 15 0
BBX 12 12 1 1
BITMAP
8040
8040
8FF0
8040
8040
8040
8040
8040
87C0
8860
8850
8780
ENDCHAR
STARTCHAR U+3070
ENCODING 12400
SWIDTH 937 0
DWIDTH 15 0
BBX 12 12 1 1
BITMAP
8050
8050
8FF0
8040
8040
8040
8040
8040
87C0
8860
8850
8780
ENDCHAR
STARTCHAR U+3071
ENCODING 12401
SWIDTH 937 0
DWIDTH 15 0
BBX 12 12 1 1
BITMAP
8060
8050
8FE0
8040
8040
8040
8040
8040
87C0
8860
8850
8780
ENDCHAR
STARTCHAR U+3072
ENCODING 12402
SWIDTH 937 0
DWIDTH 15 0
BBX 12 12 1 1
BITMAP
0800
F080
2080
4040
4020
8050
8040
8040
8040
8080
4100
3E00
ENDCHAR
STARTCHAR U+3073
ENCODING 12403
SWIDTH 937 0
DWIDTH 15 0
BBX 12 12 1 1
BITMAP
0850
F0D0
2080
4040
4020
8050
8040
8040
8040
8080
4100
3E00
ENDCHAR
STARTCHAR U+3074
ENCODING 12404
SWIDTH 937 0
DWIDTH 15 0
BBX 12 12 1 1
BITMAP
0820
F0D0
20A0
4040
4020
8050
8040
8040
8040
8080
4100
3E00
ENDCHAR
STARTCHAR U+3075
ENCODING 12405
SWIDTH 937 0
DWIDTH 15 0
BBX 12 12 1 1
BITMAP
3C00
0380
0400
0800
0800
4420
4220
4110
8110
8110
2200
1C00
ENDCHAR
STARTCHAR U+3076
ENCODING 12406
SWIDTH 937 0
DWIDTH 15 0
BBX 12 12 1 1
BITMAP
3C00
0350
0450
0800
0800
4420
4220
4110
8110
8110
2200
1C00
ENDCHAR
STARTCHAR U+3077
ENCODING 12407
SWIDTH 937 0
DWIDTH 15 0
BBX 12 12 1 1
BITMAP
3C20
0350
0420
0800
0800
4420
4220
4110
8110
8110
2200
1C00
ENDCHAR
STARTCHAR U+3078
ENCODING 12408
SWIDTH 937 0
DWIDTH 15 0
BBX 12 8 1 3
BITMAP
1800
2400
4200
4100
8080
8040
0020
0010
ENDCHAR
STARTCHAR U+3079
ENCODING 12409
SWIDTH 937 0
DWIDTH 15 0
BBX 12 9 1 3
BITMAP
00A0
18A0
2400
4200
4100
8080
8040
0020
0010
ENDCHAR
STARTCHAR U+307A
ENCODING 12410
SWIDTH 937 0
DWIDTH 15 0
BBX 12 9 1 3
BITMAP
0040
18A0
2440
4200
4100
8080
8040
0020
0010
ENDCHAR
STARTCHAR U+307B
ENCODING 12411
SWIDTH 937 0
DWIDTH 15 0
BBX 12 12 1 1
BITMAP
8000
8FF0
8040
8040
9FF0
8040
8040
8040
87C0
8860
8850
8780
ENDCHAR
STARTCHAR U+307C
ENCODING 12412
SWIDTH 937 0
DWIDTH 15 0
BBX 12 12 1 1
BITMAP
8050
8FD0
8040
8040
9FF0
8040
8040
8040
87C0
8860
8850
8780
ENDCHAR
STARTCHAR U+307D
ENCODING 12413
SWIDTH 937 0
DWIDTH 15 0
BBX 12 12 1 1
BITMAP
8020
8FD0
8060
8040
9FF0
8040
8040
8040
87C0
8860
8850
8780
ENDCHAR
STARTCHAR U+307E
ENCODING 12414
SWIDTH 937 0
DWIDTH 15 0
BBX 11 12 1 1
BITMAP
0200
7FC0
0200
0200
FFE0
0200
0200
3E00
4380
4240
4220
3C00
ENDCHAR
STARTCHAR U+307F
ENCODING 12415
SWIDTH 937 0
DWIDTH 15 0
BBX 12 11 1 1
BITMAP
7C00
0400
0420
0820
3F20
48E0
8830
9020
9040
6040
0080
ENDCHAR
STARTCHAR U+3080
ENCODING 12416
SWIDTH 937 0
DWIDTH 15 0
BBX 12 12 1 1
BITMAP
0800
0820
FF10
0800
0800
7800
8800
8810
8810
7010
1020
0FC0
ENDCHAR
STARTCHAR U+3081
ENCODING 12417
SWIDTH 937 0
DWIDTH 15 0
BBX 12 12 1 1
BITMAP
0100
2100
2FC0
3120
6110
5110
9210
9210
8A10
8410
4820
31C0
ENDCHAR
STARTCHAR U+3082
ENCODING 12418
SWIDTH 937 0
DWIDTH 15 0
BBX 12 12 1 1
BITMAP
1000
FF80
1000
1000
1000
FFC0
1010
1010
1010
1010
1020
0FC0
ENDCHAR
STARTCHAR U+3083
ENCODING 12419
SWIDTH 937 0
DWIDTH 15 0
BBX 11 10 1 1
BITMAP
0200
4380
4D40
3120
E020
2020
11C0
1000
0800
0800
ENDCHAR
STARTCHAR U+3084
ENCODING 12420
SWIDTH 937 0
DWIDTH 15 0
BBX 12 12 1 1
BITMAP
0200
2200
23C0
1D20
3110
D010
0810
0820
09C0
0400
0400
0400
ENDCHAR
STARTCHAR U+3085
ENCODING 12421
SWIDTH 937 0
DWIDTH 15 0
BBX 10 10 2 1
BITMAP
0400
9F80
A240
C240
8240
8240
9240
8F80
0200
0C00
ENDCHAR
STARTCHAR U+3086
ENCODING 12422
SWIDTH 937 0
DWIDTH 15 0
BBX 12 12 1 1
BITMAP
0200
8FC0
9220
A110
A110
C110
C110
8920
87C0
8100
0200
0C00
ENDCHAR
STARTCHAR U+3087
ENCODING 12423
SWIDTH 937 0
DWIDTH 15 0
BBX 9 10 2 1
BITMAP
0400
0400
0780
0400
0400
0400
7E00
8500
8480
7800
ENDCHAR
STARTCHAR U+3088
ENCODING 12424
SWIDTH 937 0
DWIDTH 15 0
BBX 10 12 2 1
BITMAP
0400
0400
07C0
0400
0400
0400
0400
7E00
8580
8440
8400
7800
ENDCHAR
STARTCHAR U+3089
ENCODING 12425
SWIDTH 937 0
DWIDTH 15 0
BBX 11 12 1 1
BITMAP
1E00
0180
4000
4000
8000
9F80
A040
C020
8020
0020
0040
1F80
ENDCHAR
STARTCHAR U+308A
ENCODING 12426
SWIDTH 937 0
DWIDTH 15 0
BBX 9 12 2 1
BITMAP
4E00
5100
A080
A080
C080
8080
8080
8080
0080
0100
0200
1C00
ENDCHAR
STARTCHAR U+308B
ENCODING 12427
SWIDTH 937 0
DWIDTH 15 0
BBX 11 12 1 1
BITMAP
7F80
0100
0200
0400
1F80
2040
4020
8020
1C20
2220
2240
1F80
ENDCHAR
STARTCHAR U+308C
ENCODING 12428
SWIDTH 937 0
DWIDTH 15 0
BBX 12 12 1 1
BITMAP
2000
2380
E440
2840
3040
2040
6040
6040
A040
A050
2050
2020
ENDCHAR
STARTCHAR U+308D
ENCODING 12429
SWIDTH 937 0
DWIDTH 15 0
BBX 11 12 1 1
BITMAP
7F80
0100
0200
0400
1F80
2040
4020
8020
0020
0020
0040
1F80
ENDCHAR
STARTCHAR U+308E
ENCODING 12430
SWIDTH 937 0
DWIDTH 15 0
BBX 10 10 2 1
BITMAP
2000
2700
E880
3040
2040
6040
A040
2040
2080
2700
ENDCHAR
STARTCHAR U+308F
ENCODING 12431
SWIDTH 937 0
DWIDTH 15 0
BBX 12 12 1 1
BITMAP
2000
2000
27C0
E820
3010
2010
6010
6010
A010
A020
2040
2380
ENDCHAR
STARTCHAR U+3090
ENCODING 12432
SWIDTH 937 0
DWIDTH 15 0
BBX 12 12 1 1
BITMAP
7C00
0400
0400
1FC0
2420
4410
8810
8810
89D0
9220
9220
61D0
ENDCHAR
STARTCHAR U+3091
ENCODING 12433
SWIDTH 937 0
DWIDTH 15 0
BBX 12 12 1 1
BITMAP
3F80
0600
0800
3FC0
4020
9C20
2220
1FC0
0800
18C0
6520
8210
ENDCHAR
STARTCHAR U+3092
ENCODING 12434
SWIDTH 937 0
DWIDTH 15 0
BBX 11 12 2 1
BITMAP
0800
FFC0
1000
2E00
3100
4160
8380
0D00
1100
2000
2000
1FC0
ENDCHAR
STARTCHAR U+3093
ENCODING 12435
SWIDTH 937 0
DWIDTH 15 0
BBX 12 12 1 1
BITMAP
0800
0800
1000
1000
2000
2000
5C00
6210
4210
8210
8220
81C0
ENDCHAR
STARTCHAR U+309B
ENCODING 12443
SWIDTH 937 0
DWIDTH 15 0
BBX 4 3 1 11
BITMAP
20
90
40
ENDCHAR
STARTCHAR U+309C
ENCODING 12444
SWIDTH 937 0
DWIDTH 15 0
BBX 3 3 1 11
BITMAP
40
A0
40
ENDCHAR
STARTCHAR U+309D
ENCODING 12445
SWIDTH 937 0
DWIDTH 15 0
BBX 6 7 4 4
BITMAP
80
40
20
10
08
3C
04
ENDCHAR
STARTCHAR U+309E
ENCODING 12446
SWIDTH 937 0
DWIDTH 15 0
BBX 8 8 4 4
BITMAP
02
89
44
20
10
08
3C
04
ENDCHAR
STARTCHAR U+30A1
ENCODING 12449
SWIDTH 937 0
DWIDTH 15 0
BBX 10 9 2 1
BITMAP
FFC0
0040
0840
0880
0900
0800
0800
1000
2000
ENDCHAR
STARTCHAR U+30A2
ENCODING 12450
SWIDTH 937 0
DWIDTH 15 0
BBX 12 11 1 1
BITMAP
FFF0
0010
0010
0410
0420
0440
0580
0400
0400
0800
3000
ENDCHAR
STARTCHAR U+30A3
ENCODING 12451
SWIDTH 937 0
DWIDTH 15 0
BBX 9 9 2 1
BITMAP
0080
0100
0600
1C00
E400
0400
0400
0400
0400
ENDCHAR
STARTCHAR U+30A4
ENCODING 12452
SWIDTH 937 0
DWIDTH 15 0
BBX 11 12 1 1
BITMAP
0020
0040
0080
0300
0600
1A00
E200
0200
0200
0200
0200
0200
ENDCHAR
STARTCHAR U+30A5
ENCODING 12453
SWIDTH 937 0
DWIDTH 15 0
BBX 9 10 3 1
BITMAP
0800
0800
FF80
8080
8080
8080
0080
0100
0200
1C00
ENDCHAR
STARTCHAR U+30A6
ENCODING 12454
SWIDTH 937 0
DWIDTH 15 0
BBX 10 12 2 1
BITMAP
0800
0800
FFC0
8040
8040
8040
0040
0040
0080
0080
0300
1C00
ENDCHAR
STARTCHAR U+30A7
ENCODING 12455
SWIDTH 937 0
DWIDTH 15 0
BBX 11 8 2 2
BITMAP
7FC0
0400
0400
0400
0400
0400
0400
FFE0
ENDCHAR
STARTCHAR U+30A8
ENCODING 12456
SWIDTH 937 0
DWIDTH 15 0
BBX 11 11 1 1
BITMAP
7FC0
0400
0400
0400
0400
0400
0400
0400
0400
0400
FFE0
ENDCHAR
STARTCHAR U+30A9
ENCODING 12457
SWIDTH 937 0
DWIDTH 15 0
BBX 9 10 2 1
BITMAP
0200
0200
FF80
0600
0A00
1200
2200
C200
0200
0E00
ENDCHAR
STARTCHAR U+30AA
ENCODING 12458
SWIDTH 937 0
DWIDTH 15 0
BBX 11 12 2 1
BITMAP
0100
0100
FFE0
0500
0500
0900
0900
1100
2100
C100
0100
0700
ENDCHAR
STARTCHAR U+30AB
ENCODING 12459
SWIDTH 937 0
DWIDTH 15 0
BBX 11 12 1 1
BITMAP
0800
0800
0800
FFE0
0820
0820
0820
0820
1020
1020
2020
C1C0
ENDCHAR
STARTCHAR U+30AC
ENCODING 12460
SWIDTH 937 0
DWIDTH 15 0
BBX 12 12 1 1
BITMAP
0850
0850
0800
FFE0
0820
0820
0820
0820
1020
1020
2020
C1C0
ENDCHAR
STARTCHAR U+30AD
ENCODING 12461
SWIDTH 937 0
DWIDTH 15 0
BBX 12 12 1 1
BITMAP
0400
0400
0400
7FE0
0200
0200
0200
FFF0
0100
0100
0100
0100
ENDCHAR
STARTCHAR U+30AE
ENCODING 12462
SWIDTH 937 0
DWIDTH 15 0
BBX 12 12 1 1
BITMAP
0450
0450
0400
7FE0
0200
0200
0200
FFF0
0100
0100
0100
0100
ENDCHAR
STARTCHAR U+30AF
ENCODING 12463
SWIDTH 937 0
DWIDTH 15 0
BBX 11 12 1 1
BITMAP
1000
1000
1FE0
2020
2020
4020
8020
0040
0040
0080
0300
3C00
ENDCHAR
STARTCHAR U+30B0
ENCODING 12464
SWIDTH 937 0
DWIDTH 15 0
BBX 12 12 1 1
BITMAP
1050
1050
1FE0
2020
2020
4020
8020
0040
0040
0080
0300
3C00
ENDCHAR
STARTCHAR U+30B1
ENCODING 12465
SWIDTH 937 0
DWIDTH 15 0
BBX 12 12 1 1
BITMAP
2000
2000
3FF0
2040
4040
8040
0040
0040
0080
0080
0300
1C00
ENDCHAR
STARTCHAR U+30B2
ENCODING 12466
SWIDTH 937 0
DWIDTH 15 0
BBX 12 12 1 1
BITMAP
2050
2050
3FF0
2040
4040
8040
0040
0040
0080
0080
0300
1C00
ENDCHAR
STARTCHAR U+30B3
ENCODING 12467
SWIDTH 937 0
DWIDTH 15 0
BBX 10 9 2 2
BITMAP
FFC0
0040
0040
0040
0040
0040
0040
0040
FFC0
ENDCHAR
STARTCHAR U+30B4
ENCODING 12468
SWIDTH 937 0
DWIDTH 15 0
BBX 11 11 2 2
BITMAP
00A0
00A0
FFC0
0040
0040
0040
0040
0040
0040
0040
FFC0
ENDCHAR
STARTCHAR U+30B5
ENCODING 12469
SWIDTH 937 0
DWIDTH 15 0
BBX 12 12 1 1
BITMAP
2040
2040
2040
FFF0
2040
2040
2040
0040
0040
0080
0100
1E00
ENDCHAR
STARTCHAR U+30B6
ENCODING 12470
SWIDTH 937 0
DWIDTH 15 0
BBX 12 12 1 1
BITMAP
2050
2050
2040
FFF0
2040
2040
2040
0040
0040
0080
0100
1E00
ENDCHAR
STARTCHAR U+30B7
ENCODING 12471
SWIDTH 937 0
DWIDTH 15 0
BBX 11 11 1 1
BITMAP
6000
1800
0020
C020
3020
0040
0040
0080
0100
0600
7800
ENDCHAR
STARTCHAR U+30B8
ENCODING 12472
SWIDTH 937 0
DWIDTH 15 0
BBX 12 12 1 1
BITMAP
0050
6050
1800
0020
C020
3020
0040
0040
0080
0100
0600
7800
ENDCHAR
STARTCHAR U+30B9
ENCODING 12473
SWIDTH 937 0
DWIDTH 15 0
BBX 12 11 1 1
BITMAP
7FC0
0040
0040
0080
0080
0100
0300
0480
0840
3020
C010
ENDCHAR
STARTCHAR U+30BA
ENCODING 12474
SWIDTH 937 0
DWIDTH 15 0
BBX 12 12 1 1
BITMAP
0050
7FD0
0040
0040
0080
0080
0100
0300
0480
0840
3020
C010
ENDCHAR
STARTCHAR U+30BB
ENCODING 12475
SWIDTH 937 0
DWIDTH 15 0
BBX 12 12 1 1
BITMAP
2000
2000
21F0
3E10
E010
2020
21C0
2000
2000
2000
2000
1FE0
ENDCHAR
STARTCHAR U+30BC
ENCODING 12476
SWIDTH 937 0
DWIDTH 15 0
BBX 12 12 1 1
BITMAP
2050
2050
21F0
3E10
E010
2020
21C0
2000
2000
2000
2000
1FE0
ENDCHAR
STARTCHAR U+30BD
ENCODING 12477
SWIDTH 937 0
DWIDTH 15 0
BBX 11 11 1 1
BITMAP
8020
4020
2020
2020
0040
0040
0080
0100
0200
0C00
3000
ENDCHAR
STARTCHAR U+30BE
ENCODING 12478
SWIDTH 937 0
DWIDTH 15 0
BBX 12 12 1 1
BITMAP
0050
8050
4000
2020
2020
0040
0040
0080
0100
0200
0C00
3000
ENDCHAR
STARTCHAR U+30BF
ENCODING 12479
SWIDTH 937 0
DWIDTH 15 0
BBX 11 12 1 1
BITMAP
1000
1000
1FE0
2020
2020
5820
8420
0240
0140
0080
0300
3C00
ENDCHAR
STARTCHAR U+30C0
ENCODING 12480
SWIDTH 937 0
DWIDTH 15 0
BBX 12 12 1 1
BITMAP
1050
1050
1FE0
2020
2020
5820
8420
0240
0140
0080
0300
3C00
ENDCHAR
STARTCHAR U+30C1
ENCODING 12481
SWIDTH 937 0
DWIDTH 15 0
BBX 12 11 1 1
BITMAP
00E0
7F00
0200
0200
0200
FFF0
0200
0200
0200
0400
1800
ENDCHAR
STARTCHAR U+30C2
ENCODING 12482
SWIDTH 937 0
DWIDTH 15 0
BBX 12 12 1 1
BITMAP
0050
00D0
7F00
0200
0200
0200
FFF0
0200
0200
0200
0400
1800
ENDCHAR
STARTCHAR U+30C3
ENCODING 12483
SWIDTH 937 0
DWIDTH 15 0
BBX 9 9 2 1
BITMAP
1000
8880
4880
4080
0100
0100
0200
0C00
3000
ENDCHAR
STARTCHAR U+30C4
ENCODING 12484
SWIDTH 937 0
DWIDTH 15 0
BBX 12 11 1 1
BITMAP
1000
8810
4810
4010
0020
0020
0040
0080
0100
0600
3800
ENDCHAR
STARTCHAR U+30C5
ENCODING 12485
SWIDTH 937 0
DWIDTH 15 0
BBX 12 12 1 1
BITMAP
0050
1050
8800
4820
4020
0020
0040
0040
0080
0100
0600
3800
ENDCHAR
STARTCHAR U+30C6
ENCODING 12486
SWIDTH 937 0
DWIDTH 15 0
BBX 12 11 1 1
BITMAP
7FE0
0000
0000
0000
FFF0
0200
0200
0200
0200
0400
3800
ENDCHAR
STARTCHAR U+30C7
ENCODING 12487
SWIDTH 937 0
DWIDTH 15 0
BBX 12 12 1 1
BITMAP
0050
7FD0
0000
0000
0000
FFF0
0200
0200
0200
0200
0400
3800
ENDCHAR
STARTCHAR U+30C8
ENCODING 12488
SWIDTH 937 0
DWIDTH 15 0
BBX 9 12 3 1
BITMAP
8000
8000
8000
8000
C000
B000
8C00
8300
8080
8000
8000
8000
ENDCHAR
STARTCHAR U+30C9
ENCODING 12489
SWIDTH 937 0
DWIDTH 15 0
BBX 9 12 3 1
BITMAP
8000
8280
8280
8000
C000
B000
8C00
8300
8080
8000
8000
8000
ENDCHAR
STARTCHAR U+30CA
ENCODING 12490
SWIDTH 937 0
DWIDTH 15 0
BBX 12 12 1 1
BITMAP
0200
0200
0200
FFF0
0200
0200
0200
0200
0400
0400
0800
3000
ENDCHAR
STARTCHAR U+30CB
ENCODING 12491
SWIDTH 937 0
DWIDTH 15 0
BBX 12 9 1 2
BITMAP
7FE0
0000
0000
0000
0000
0000
0000
0000
FFF0
ENDCHAR
STARTCHAR U+30CC
ENCODING 12492
SWIDTH 937 0
DWIDTH 15 0
BBX 11 11 1 1
BITMAP
7FE0
0020
0020
0040
0C40
0280
0100
0280
0440
1820
E000
ENDCHAR
STARTCHAR U+30CD
ENCODING 12493
SWIDTH 937 0
DWIDTH 15 0
BBX 12 12 1 1
BITMAP
0400
0400
7FE0
0020
0040
0180
0600
0D00
34C0
C430
0400
0400
ENDCHAR
STARTCHAR U+30CE
ENCODING 12494
SWIDTH 937 0
DWIDTH 15 0
BBX 10 11 1 1
BITMAP
0040
0040
0040
0080
0080
0100
0100
0200
0400
1800
E000
ENDCHAR
STARTCHAR U+30CF
ENCODING 12495
SWIDTH 937 0
DWIDTH 15 0
BBX 12 12 1 1
BITMAP
1080
1080
1080
1080
1080
1080
2040
2040
2040
4020
4020
8010
ENDCHAR
STARTCHAR U+30D0
ENCODING 12496
SWIDTH 937 0
DWIDTH 15 0
BBX 12 12 1 1
BITMAP
0050
10D0
1080
1080
1080
1080
2040
2040
2040
4020
4020
8010
ENDCHAR
STARTCHAR U+30D1
ENCODING 12497
SWIDTH 937 0
DWIDTH 15 0
BBX 12 12 1 1
BITMAP
0020
10D0
10A0
1080
1080
1080
2040
2040
2040
4020
4020
8010
ENDCHAR
STARTCHAR U+30D2
ENCODING 12498
SWIDTH 937 0
DWIDTH 15 0
BBX 11 12 2 1
BITMAP
8000
8000
80C0
8700
F800
8000
8000
8000
8000
8000
8000
7FE0
ENDCHAR
STARTCHAR U+30D3
ENCODING 12499
SWIDTH 937 0
DWIDTH 15 0
BBX 11 12 2 1
BITMAP
80A0
80A0
8000
83C0
FC00
8000
8000
8000
8000
8000
8000
7FE0
ENDCHAR
STARTCHAR U+30D4
ENCODING 12500
SWIDTH 937 0
DWIDTH 15 0
BBX 11 12 2 1
BITMAP
8040
80A0
8040
8380
FC00
8000
8000
8000
8000
8000
8000
7FE0
ENDCHAR
STARTCHAR U+30D5
ENCODING 12501
SWIDTH 937 0
DWIDTH 15 0
BBX 11 11 1 1
BITMAP
FFE0
0020
0020
0020
0020
0020
0040
0040
0080
0300
1C00
ENDCHAR
STARTCHAR U+30D6
ENCODING 12502
SWIDTH 937 0
DWIDTH 15 0
BBX 12 12 1 1
BITMAP
0050
FFD0
0040
0040
0040
0040
0040
0080
0080
0100
0600
1800
ENDCHAR
STARTCHAR U+30D7
ENCODING 12503
SWIDTH 937 0
DWIDTH 15 0
BBX 12 12 1 1
BITMAP
0020
FFD0
0060
0040
0040
0040
0040
0080
0080
0100
0600
3800
ENDCHAR
STARTCHAR U+30D8
ENCODING 12504
SWIDTH 937 0
DWIDTH 15 0
BBX 12 8 1 3
BITMAP
1800
2400
4200
4100
8080
8040
0020
0010
ENDCHAR
STARTCHAR U+30D9
ENCODING 12505
SWIDTH 937 0
DWIDTH 15 0
BBX 12 9 1 3
BITMAP
00A0
18A0
2400
4200
4100
8080
8040
0020
0010
ENDCHAR
STARTCHAR U+30DA
ENCODING 12506
SWIDTH 937 0
DWIDTH 15 0
BBX 12 9 1 3
BITMAP
0040
18A0
2440
4200
4100
8080
8040
0020
0010
ENDCHAR
STARTCHAR U+30DB
ENCODING 12507
SWIDTH 937 0
DWIDTH 15 0
BBX 11 12 1 1
BITMAP
0400
0400
FFE0
0400
0400
2480
2480
2480
4440
4440
8420
0400
ENDCHAR
STARTCHAR U+30DC
ENCODING 12508
SWIDTH 937 0
DWIDTH 15 0
BBX 12 12 1 1
BITMAP
0450
0450
FFE0
0400
0400
2480
2480
2480
4440
4440
8420
0400
ENDCHAR
STARTCHAR U+30DD
ENCODING 12509
SWIDTH 937 0
DWIDTH 15 0
BBX 12 12 1 1
BITMAP
0420
0450
FFE0
0400
0400
2480
2480
2480
4440
4440
8420
0400
ENDCHAR
STARTCHAR U+30DE
ENCODING 12510
SWIDTH 937 0
DWIDTH 15 0
BBX 12 11 1 1
BITMAP
FFF0
0010
0010
0010
0020
3040
0C80
0300
0100
0080
0080
ENDCHAR
STARTCHAR U+30DF
ENCODING 12511
SWIDTH 937 0
DWIDTH 15 0
BBX 10 12 2 1
BITMAP
F000
0E00
0180
0000
7000
0E00
0180
0000
0000
F000
0F00
00C0
ENDCHAR
STARTCHAR U+30E0
ENCODING 12512
SWIDTH 937 0
DWIDTH 15 0
BBX 12 12 1 1
BITMAP
0800
0800
0800
0800
1000
1040
1040
2020
2020
43D0
FE10
0010
ENDCHAR
STARTCHAR U+30E1
ENCODING 12513
SWIDTH 937 0
DWIDTH 15 0
BBX 11 12 1 1
BITMAP
0040
0040
0040
0040
6080
1880
0500
0300
0480
0840
3020
C000
ENDCHAR
STARTCHAR U+30E2
ENCODING 12514
SWIDTH 937 0
DWIDTH 15 0
BBX 12 11 1 1
BITMAP
7FE0
0800
0800
0800
FFF0
0800
0800
0800
0800
0800
07E0
ENDCHAR
STARTCHAR U+30E3
ENCODING 12515
SWIDTH 937 0
DWIDTH 15 0
BBX 10 10 2 1
BITMAP
2000
2000
2FC0
F040
1040
1080
1100
0800
0800
0800
ENDCHAR
STARTCHAR U+30E4
ENCODING 12516
SWIDTH 937 0
DWIDTH 15 0
BBX 12 12 1 1
BITMAP
2000
2000
21F0
1E10
F010
1020
0840
0880
0800
0400
0400
0400
ENDCHAR
STARTCHAR U+30E5
ENCODING 12517
SWIDTH 937 0
DWIDTH 15 0
BBX 10 8 2 2
BITMAP
7F00
0100
0100
0100
0200
0200
0200
FFC0
ENDCHAR
STARTCHAR U+30E6
ENCODING 12518
SWIDTH 937 0
DWIDTH 15 0
BBX 12 10 1 2
BITMAP
7FC0
0040
0040
0040
0040
0080
0080
0080
0080
FFF0
ENDCHAR
STARTCHAR U+30E7
ENCODING 12519
SWIDTH 937 0
DWIDTH 15 0
BBX 8 8 3 2
BITMAP
FF
01
01
7F
01
01
01
FF
ENDCHAR
STARTCHAR U+30E8
ENCODING 12520
SWIDTH 937 0
DWIDTH 15 0
BBX 10 10 2 2
BITMAP
FFC0
0040
0040
0040
7FC0
0040
0040
0040
0040
FFC0
ENDCHAR
STARTCHAR U+30E9
ENCODING 12521
SWIDTH 937 0
DWIDTH 15 0
BBX 11 12 1 1
BITMAP
7FC0
0000
0000
FFE0
0020
0020
0020
0040
0040
0080
0300
1C00
ENDCHAR
STARTCHAR U+30EA
ENCODING 12522
SWIDTH 937 0
DWIDTH 15 0
BBX 10 12 2 1
BITMAP
8040
8040
8040
8040
8040
8040
8040
0040
0080
0080
0300
1C00
ENDCHAR
STARTCHAR U+30EB
ENCODING 12523
SWIDTH 937 0
DWIDTH 15 0
BBX 12 12 1 1
BITMAP
2100
2100
2100
2100
2100
2100
2100
2110
2110
4120
4140
8180
ENDCHAR
STARTCHAR U+30EC
ENCODING 12524
SWIDTH 937 0
DWIDTH 15 0
BBX 11 12 2 1
BITMAP
8000
8000
8000
8000
8000
8000
8020
8040
8080
8300
8C00
F000
ENDCHAR
STARTCHAR U+30ED
ENCODING 12525
SWIDTH 937 0
DWIDTH 15 0
BBX 10 10 2 2
BITMAP
FFC0
8040
8040
8040
8040
8040
8040
8040
8040
FFC0
ENDCHAR
STARTCHAR U+30EE
ENCODING 12526
SWIDTH 937 0
DWIDTH 15 0
BBX 9 9 2 1
BITMAP
FF80
8080
8080
8080
0080
0100
0100
0600
1800
ENDCHAR
STARTCHAR U+30EF
ENCODING 12527
SWIDTH 937 0
DWIDTH 15 0
BBX 11 11 1 1
BITMAP
FFE0
8020
8020
8020
8020
0020
0040
0040
0080
0300
0C00
ENDCHAR
STARTCHAR U+30F0
ENCODING 12528
SWIDTH 937 0
DWIDTH 15 0
BBX 12 12 1 1
BITMAP
0100
0100
7FE0
0100
2100
2100
2100
2100
FFF0
0100
0100
0100
ENDCHAR
STARTCHAR U+30F1
ENCODING 12529
SWIDTH 937 0
DWIDTH 15 0
BBX 12 10 1 2
BITMAP
7FE0
0020
0420
0440
0480
0400
0400
0400
0400
FFF0
ENDCHAR
STARTCHAR U+30F2
ENCODING 12530
SWIDTH 937 0
DWIDTH 15 0
BBX 11 11 1 1
BITMAP
FFE0
0020
0020
0020
7FE0
0020
0040
0040
0080
0300
1C00
ENDCHAR
STARTCHAR U+30F3
ENCODING 12531
SWIDTH 937 0
DWIDTH 15 0
BBX 11 10 1 1
BITMAP
C000
3000
0820
0020
0040
0040
0080
0100
0600
7800
ENDCHAR
STARTCHAR U+30F4
ENCODING 12532
SWIDTH 937 0
DWIDTH 15 0
BBX 12 12 1 1
BITMAP
0450
0450
FFE0
8020
8020
8020
0020
0020
0040
0080
0300
1C00
ENDCHAR
STARTCHAR U+30F5
ENCODING 12533
SWIDTH 937 0
DWIDTH 15 0
BBX 9 10 2 1
BITMAP
1000
1000
FF80
1080
1080
1080
2080
2080
4080
8300
ENDCHAR
STARTCHAR U+30F6
ENCODING 12534
SWIDTH 937 0
DWIDTH 15 0
BBX 10 10 2 1
BITMAP
2000
2000
3FC0
4100
8100
0100
0100
0200
0400
3800
ENDCHAR
STARTCHAR U+30FB
ENCODING 12539
SWIDTH 937 0
DWIDTH 15 0
BBX 2 2 6 7
BITMAP
C0
C0
ENDCHAR
STARTCHAR U+30FC
ENCODING 12540
SWIDTH 937 0
DWIDTH 15 0
BBX 11 2 2 7
BITMAP
8000
7FE0
ENDCHAR
STARTCHAR U+30FD
ENCODING 12541
SWIDTH 937 0
DWIDTH 15 0
BBX 6 6 4 5
BITMAP
80
40
20
10
08
04
ENDCHAR
STARTCHAR U+30FE
ENCODING 12542
SWIDTH 937 0
DWIDTH 15 0
BBX 8 8 4 4
BITMAP
02
09
84
40
20
10
08
04
ENDCHAR
STARTCHAR U+3131
ENCODING 12593
SWIDTH 937 0
DWIDTH 15 0
BBX 11 10 2 2
BITMAP
FFE0
0020
0020
0020
0020
0020
0020
0020
0020
0020
ENDCHAR
STARTCHAR U+3132
ENCODING 12594
SWIDTH 937 0
DWIDTH 15 0
BBX 11 10 2 2
BITMAP
FBE0
0820
0820
0820
0820
0820
0820
0820
0820
0820
ENDCHAR
STARTCHAR U+3133
ENCODING 12595
SWIDTH 937 0
DWIDTH 15 0
BBX 11 10 2 2
BITMAP
F880
0880
0880
0880
0940
0940
0940
0A20
0A20
0A20
ENDCHAR
STARTCHAR U+3134
ENCODING 12596
SWIDTH 937 0
DWIDTH 15 0
BBX 11 10 2 2
BITMAP
8000
8000
8000
8000
8000
8000
8000
8000
8000
FFE0
ENDCHAR
STARTCHAR U+3135
ENCODING 12597
SWIDTH 937 0
DWIDTH 15 0
BBX 11 10 2 2
BITMAP
83E0
8080
8080
8080
8140
8140
8140
8220
8220
FA20
ENDCHAR
STARTCHAR U+3136
ENCODING 12598
SWIDTH 937 0
DWIDTH 15 0
BBX 12 10 2 2
BITMAP
81C0
8000
87F0
8000
81C0
8220
8220
8220
8220
F9C0
ENDCHAR
STARTCHAR U+3137
ENCODING 12599
SWIDTH 937 0
DWIDTH 15 0
BBX 11 10 2 2
BITMAP
FFE0
8000
8000
8000
8000
8000
8000
8000
8000
FFE0
ENDCHAR
STARTCHAR U+3138
ENCODING 12600
SWIDTH 937 0
DWIDTH 15 0
BBX 11 10 2 2
BITMAP
FBE0
8200
8200
8200
8200
8200
8200
8200
8200
FBE0
ENDCHAR
STARTCHAR U+3139
ENCODING 12601
SWIDTH 937 0
DWIDTH 15 0
BBX 11 10 2 2
BITMAP
FFE0
0020
0020
0020
FFE0
8000
8000
8000
8000
FFE0
ENDCHAR
STARTCHAR U+313A
ENCODING 12602
SWIDTH 937 0
DWIDTH 15 0
BBX 11 10 2 2
BITMAP
FBE0
0820
0820
0820
F820
8020
8020
8020
8020
F820
ENDCHAR
STARTCHAR U+313B
ENCODING 12603
SWIDTH 937 0
DWIDTH 15 0
BBX 11 10 2 2
BITMAP
FBE0
0A20
0A20
0A20
FA20
8220
8220
8220
8220
FBE0
ENDCHAR
STARTCHAR U+313C
ENCODING 12604
SWIDTH 937 0
DWIDTH 15 0
BBX 11 10 2 2
BITMAP
FA20
0A20
0A20
0A20
FBE0
8220
8220
8220
8220
FBE0
ENDCHAR
STARTCHAR U+313D
ENCODING 12605
SWIDTH 937 0
DWIDTH 15 0
BBX 11 10 2 2
BITMAP
F880
0880
0880
0880
F940
8140
8140
8220
8220
FA20
ENDCHAR
STARTCHAR U+313E
ENCODING 12606
SWIDTH 937 0
DWIDTH 15 0
BBX 11 10 2 2
BITMAP
FBE0
0A00
0A00
0A00
FBE0
8200
8200
8200
8200
FBE0
ENDCHAR
STARTCHAR U+313F
ENCODING 12607
SWIDTH 937 0
DWIDTH 15 0
BBX 12 10 2 2
BITMAP
FBF0
0920
0920
0920
F920
8120
8120
8120
8120
FBF0
ENDCHAR
STARTCHAR U+3140
ENCODING 12608
SWIDTH 937 0
DWIDTH 15 0
BBX 12 10 2 2
BITMAP
F9C0
0800
0FF0
0800
F9C0
8220
8220
8220
8220
F9C0
ENDCHAR
STARTCHAR U+3141
ENCODING 12609
SWIDTH 937 0
DWIDTH 15 0
BBX 11 10 2 2
BITMAP
FFE0
8020
8020
8020
8020
8020
8020
8020
8020
FFE0
ENDCHAR
STARTCHAR U+3142
ENCODING 12610
SWIDTH 937 0
DWIDTH 15 0
BBX 11 10 2 2
BITMAP
8020
8020
8020
8020
FFE0
8020
8020
8020
8020
FFE0
ENDCHAR
STARTCHAR U+3143
ENCODING 12611
SWIDTH 937 0
DWIDTH 15 0
BBX 11 10 2 2
BITMAP
8A20
8A20
8A20
8A20
FBE0
8A20
8A20
8A20
8A20
FBE0
ENDCHAR
STARTCHAR U+3144
ENCODING 12612
SWIDTH 937 0
DWIDTH 15 0
BBX 11 10 2 2
BITMAP
8880
8880
8880
8880
F940
8940
8940
8A20
8A20
FA20
ENDCHAR
STARTCHAR U+3145
ENCODING 12613
SWIDTH 937 0
DWIDTH 15 0
BBX 11 10 2 2
BITMAP
0400
0400
0400
0A00
0A00
1100
1100
2080
4040
8020
ENDCHAR
STARTCHAR U+3146
ENCODING 12614
SWIDTH 937 0
DWIDTH 15 0
BBX 11 10 2 2
BITMAP
1100
1100
1100
1100
2A80
2A80
2A80
4440
4440
8420
ENDCHAR
STARTCHAR U+3147
ENCODING 12615
SWIDTH 937 0
DWIDTH 15 0
BBX 11 10 2 2
BITMAP
1F00
2080
4040
8020
8020
8020
8020
4040
2080
1F00
ENDCHAR
STARTCHAR U+3148
ENCODING 12616
SWIDTH 937 0
DWIDTH 15 0
BBX 11 10 2 2
BITMAP
FFE0
0400
0400
0A00
0A00
1100
1100
2080
4040
8020
ENDCHAR
STARTCHAR U+3149
ENCODING 12617
SWIDTH 937 0
DWIDTH 15 0
BBX 11 10 2 2
BITMAP
FFE0
1100
1100
1100
2A80
2A80
2A80
4440
4440
8420
ENDCHAR
STARTCHAR U+314A
ENCODING 12618
SWIDTH 937 0
DWIDTH 15 0
BBX 11 10 2 2
BITMAP
1F00
0000
FFE0
0400
0400
0A00
1100
2080
4040
8020
ENDCHAR
STARTCHAR U+314B
ENCODING 12619
SWIDTH 937 0
DWIDTH 15 0
BBX 11 10 2 2
BITMAP
FFE0
0020
0020
0020
0020
FFE0
0020
0020
0020
0020
ENDCHAR
STARTCHAR U+314C
ENCODING 12620
SWIDTH 937 0
DWIDTH 15 0
BBX 11 10 2 2
BITMAP
FFE0
8000
8000
8000
FFE0
8000
8000
8000
8000
FFE0
ENDCHAR
STARTCHAR U+314D
ENCODING 12621
SWIDTH 937 0
DWIDTH 15 0
BBX 11 10 2 2
BITMAP
FFE0
2080
2080
2080
2080
2080
2080
2080
2080
FFE0
ENDCHAR
STARTCHAR U+314E
ENCODING 12622
SWIDTH 937 0
DWIDTH 15 0
BBX 11 10 2 2
BITMAP
1F00
0000
FFE0
0000
1F00
2080
4040
4040
2080
1F00
ENDCHAR
STARTCHAR U+314F
ENCODING 12623
SWIDTH 937 0
DWIDTH 15 0
BBX 5 14 5 0
BITMAP
80
80
80
80
80
80
F8
80
80
80
80
80
80
80
ENDCHAR
STARTCHAR U+3150
ENCODING 12624
SWIDTH 937 0
DWIDTH 15 0
BBX 5 14 5 0
BITMAP
88
88
88
88
88
88
F8
88
88
88
88
88
88
88
ENDCHAR
STARTCHAR U+3151
ENCODING 12625
SWIDTH 937 0
DWIDTH 15 0
BBX 5 14 5 0
BITMAP
80
80
80
80
F8
80
80
80
F8
80
80
80
80
80
ENDCHAR
STARTCHAR U+3152
ENCODING 12626
SWIDTH 937 0
DWIDTH 15 0
BBX 5 14 5 0
BITMAP
88
88
88
88
F8
88
88
88
F8
88
88
88
88
88
ENDCHAR
STARTCHAR U+3153
ENCODING 12627
SWIDTH 937 0
DWIDTH 15 0
BBX 5 14 5 0
BITMAP
08
08
08
08
08
08
F8
08
08
08
08
08
08
08
ENDCHAR
STARTCHAR U+3154
ENCODING 12628
SWIDTH 937 0
DWIDTH 15 0
BBX 7 14 4 0
BITMAP
12
12
12
12
12
12
F2
12
12
12
12
12
12
12
ENDCHAR
STARTCHAR U+3155
ENCODING 12629
SWIDTH 937 0
DWIDTH 15 0
BBX 5 14 5 0
BITMAP
08
08
08
08
F8
08
08
08
F8
08
08
08
08
08
ENDCHAR
STARTCHAR U+3156
ENCODING 12630
SWIDTH 937 0
DWIDTH 15 0
BBX 7 14 4 0
BITMAP
12
12
12
12
F2
12
12
12
F2
12
12
12
12
12
ENDCHAR
STARTCHAR U+3157
ENCODING 12631
SWIDTH 937 0
DWIDTH 15 0
BBX 13 5 1 4
BITMAP
0200
0200
0200
0200
FFF8
ENDCHAR
STARTCHAR U+3158
ENCODING 12632
SWIDTH 937 0
DWIDTH 15 0
BBX 14 14 1 0
BITMAP
0010
0010
0010
0010
0010
0010
001C
0810
0810
0810
0810
FFD0
0010
0010
ENDCHAR
STARTCHAR U+3159
ENCODING 12633
SWIDTH 937 0
DWIDTH 15 0
BBX 13 14 1 0
BITMAP
0048
0048
0048
0048
0048
0048
0078
1048
1048
1048
1048
FF48
0048
0048
ENDCHAR
STARTCHAR U+315A
ENCODING 12634
SWIDTH 937 0
DWIDTH 15 0
BBX 12 14 1 0
BITMAP
0010
0010
0010
0010
0010
0010
0010
0810
0810
0810
0810
FFD0
0010
0010
ENDCHAR
STARTCHAR U+315B
ENCODING 12635
SWIDTH 937 0
DWIDTH 15 0
BBX 13 5 1 4
BITMAP
1040
1040
1040
1040
FFF8
ENDCHAR
STARTCHAR U+315C
ENCODING 12636
SWIDTH 937 0
DWIDTH 15 0
BBX 13 5 1 4
BITMAP
FFF8
0200
0200
0200
0200
ENDCHAR
STARTCHAR U+315D
ENCODING 12637
SWIDTH 937 0
DWIDTH 15 0
BBX 12 14 1 0
BITMAP
0010
0010
0010
0010
0010
0010
0010
FFD0
0810
0810
08F0
0810
0810
0810
ENDCHAR
STARTCHAR U+315E
ENCODING 12638
SWIDTH 937 0
DWIDTH 15 0
BBX 13 14 1 0
BITMAP
0048
0048
0048
0048
0048
0048
0048
FF48
1048
1048
13C8
1048
1048
1048
ENDCHAR
STARTCHAR U+315F
ENCODING 12639
SWIDTH 937 0
DWIDTH 15 0
BBX 12 14 1 0
BITMAP
0010
0010
0010
0010
0010
0010
0010
FFD0
0810
0810
0810
0810
0810
0810
ENDCHAR
STARTCHAR U+3160
ENCODING 12640
SWIDTH 937 0
DWIDTH 15 0
BBX 13 5 1 4
BITMAP
FFF8
1040
1040
1040
1040
ENDCHAR
STARTCHAR U+3161
ENCODING 12641
SWIDTH 937 0
DWIDTH 15 0
BBX 13 1 1 6
BITMAP
FFF8
ENDCHAR
STARTCHAR U+3162
ENCODING 12642
SWIDTH 937 0
DWIDTH 15 0
BBX 12 14 1 0
BITMAP
0010
0010
0010
0010
0010
0010
0010
0010
0010
0010
0010
FFD0
0010
0010
ENDCHAR
STARTCHAR U+3163
ENCODING 12643
SWIDTH 937 0
DWIDTH 15 0
BBX 1 14 7 0
BITMAP
80
80
80
80
80
80
80
80
80
80
80
80
80
80
ENDCHAR
STARTCHAR U+3164
ENCODING 12644
SWIDTH 937 0
DWIDTH 15 0
BBX 0 0 0 0
BITMAP
ENDCHAR
STARTCHAR U+3165
ENCODING 12645
SWIDTH 937 0
DWIDTH 15 0
BBX 11 10 2 2
BITMAP
8200
8200
8200
8200
8200
8200
8200
8200
8200
FBE0
ENDCHAR
STARTCHAR U+3166
ENCODING 12646
SWIDTH 937 0
DWIDTH 15 0
BBX 11 10 2 2
BITMAP
83E0
8200
8200
8200
8200
8200
8200
8200
8200
FBE0
ENDCHAR
STARTCHAR U+3167
ENCODING 12647
SWIDTH 937 0
DWIDTH 15 0
BBX 11 10 2 2
BITMAP
8080
8080
8080
8080
8140
8140
8140
8220
8220
FA20
ENDCHAR
STARTCHAR U+3168
ENCODING 12648
SWIDTH 937 0
DWIDTH 15 0
BBX 11 10 2 2
BITMAP
8080
8080
8080
8140
8140
8140
8220
8220
8220
FBE0
ENDCHAR
STARTCHAR U+3169
ENCODING 12649
SWIDTH 937 0
DWIDTH 15 0
BBX 14 10 0 2
BITMAP
F790
1090
1090
1090
F0A8
80A8
80A8
80C4
80C4
F0C4
ENDCHAR
STARTCHAR U+316A
ENCODING 12650
SWIDTH 937 0
DWIDTH 15 0
BBX 11 10 2 2
BITMAP
FBE0
0A00
0A00
0A00
FA00
8200
8200
8200
8200
FBE0
ENDCHAR
STARTCHAR U+316B
ENCODING 12651
SWIDTH 937 0
DWIDTH 15 0
BBX 14 10 0 2
BITMAP
F490
1490
1490
1490
F7A8
84A8
84A8
84C4
84C4
F7C4
ENDCHAR
STARTCHAR U+316C
ENCODING 12652
SWIDTH 937 0
DWIDTH 15 0
BBX 11 10 2 2
BITMAP
F880
0880
0880
0940
F940
8140
8220
8220
8220
FBE0
ENDCHAR
STARTCHAR U+316D
ENCODING 12653
SWIDTH 937 0
DWIDTH 15 0
BBX 11 10 2 2
BITMAP
FBE0
0800
09C0
0A20
FA20
8220
8220
8220
8220
F9C0
ENDCHAR
STARTCHAR U+316E
ENCODING 12654
SWIDTH 937 0
DWIDTH 15 0
BBX 11 10 2 2
BITMAP
FA20
8A20
8A20
8A20
8BE0
8A20
8A20
8A20
8A20
FBE0
ENDCHAR
STARTCHAR U+316F
ENCODING 12655
SWIDTH 937 0
DWIDTH 15 0
BBX 11 10 2 2
BITMAP
F880
8880
8880
8880
8940
8940
8940
8A20
8A20
FA20
ENDCHAR
STARTCHAR U+3170
ENCODING 12656
SWIDTH 937 0
DWIDTH 15 0
BBX 11 10 2 2
BITMAP
F880
8880
8880
8940
8940
8940
8A20
8A20
8A20
FBE0
ENDCHAR
STARTCHAR U+3171
ENCODING 12657
SWIDTH 937 0
DWIDTH 15 0
BBX 11 12 2 1
BITMAP
FFE0
8020
8020
8020
FFE0
0400
0400
7FC0
8020
8020
8020
7FC0
ENDCHAR
STARTCHAR U+3172
ENCODING 12658
SWIDTH 937 0
DWIDTH 15 0
BBX 11 10 2 2
BITMAP
8BE0
8820
8820
8820
F820
8820
8820
8820
8820
F820
ENDCHAR
STARTCHAR U+3173
ENCODING 12659
SWIDTH 937 0
DWIDTH 15 0
BBX 11 10 2 2
BITMAP
8BE0
8A00
8A00
8A00
FA00
8A00
8A00
8A00
8A00
FBE0
ENDCHAR
STARTCHAR U+3174
ENCODING 12660
SWIDTH 937 0
DWIDTH 15 0
BBX 14 10 0 2
BITMAP
913C
9104
9104
9104
F284
9284
9284
9444
9444
F444
ENDCHAR
STARTCHAR U+3175
ENCODING 12661
SWIDTH 937 0
DWIDTH 15 0
BBX 13 10 1 2
BITMAP
9278
9240
9240
9240
F540
9540
9540
98C0
98C0
F8F8
ENDCHAR
STARTCHAR U+3176
ENCODING 12662
SWIDTH 937 0
DWIDTH 15 0
BBX 11 10 2 2
BITMAP
8BE0
8880
8880
8880
F940
8940
8940
8A20
8A20
FA20
ENDCHAR
STARTCHAR U+3177
ENCODING 12663
SWIDTH 937 0
DWIDTH 15 0
BBX 11 10 2 2
BITMAP
8BE0
8A00
8A00
8A00
FBE0
8A00
8A00
8A00
8A00
FBE0
ENDCHAR
STARTCHAR U+3178
ENCODING 12664
SWIDTH 937 0
DWIDTH 15 0
BBX 11 12 2 1
BITMAP
8020
FFE0
8020
8020
FFE0
0400
0400
7FC0
8020
8020
8020
7FC0
ENDCHAR
STARTCHAR U+3179
ENCODING 12665
SWIDTH 937 0
DWIDTH 15 0
BBX 11 12 2 1
BITMAP
8A20
FBE0
8A20
8A20
FBE0
0400
0400
7FC0
8020
8020
8020
7FC0
ENDCHAR
STARTCHAR U+317A
ENCODING 12666
SWIDTH 937 0
DWIDTH 15 0
BBX 10 10 2 2
BITMAP
27C0
2040
2040
2040
5040
5040
5040
8840
8840
8840
ENDCHAR
STARTCHAR U+317B
ENCODING 12667
SWIDTH 937 0
DWIDTH 15 0
BBX 11 10 2 2
BITMAP
2200
2200
2200
2200
5200
5200
5200
8A00
8A00
8BE0
ENDCHAR
STARTCHAR U+317C
ENCODING 12668
SWIDTH 937 0
DWIDTH 15 0
BBX 11 10 2 2
BITMAP
23E0
2200
2200
2200
5200
5200
5200
8A00
8A00
8BE0
ENDCHAR
STARTCHAR U+317D
ENCODING 12669
SWIDTH 937 0
DWIDTH 15 0
BBX 11 10 2 2
BITMAP
2220
2220
2220
2220
53E0
5220
5220
8A20
8A20
8BE0
ENDCHAR
STARTCHAR U+317E
ENCODING 12670
SWIDTH 937 0
DWIDTH 15 0
BBX 11 10 2 2
BITMAP
23E0
2080
2080
2080
5140
5140
5140
8A20
8A20
8A20
ENDCHAR
STARTCHAR U+317F
ENCODING 12671
SWIDTH 937 0
DWIDTH 15 0
BBX 11 11 2 2
BITMAP
0400
0A00
0A00
1100
1100
2080
2080
4040
4040
8020
FFE0
ENDCHAR
STARTCHAR U+3180
ENCODING 12672
SWIDTH 937 0
DWIDTH 15 0
BBX 11 10 2 2
BITMAP
2080
2080
71C0
8A20
8A20
8A20
8A20
8A20
8A20
71C0
ENDCHAR
STARTCHAR U+3181
ENCODING 12673
SWIDTH 937 0
DWIDTH 15 0
BBX 11 10 2 2
BITMAP
0400
0400
3F80
4040
8020
8020
8020
8020
4040
3F80
ENDCHAR
STARTCHAR U+3182
ENCODING 12674
SWIDTH 937 0
DWIDTH 15 0
BBX 11 10 2 2
BITMAP
2080
2080
7080
8880
8940
8940
8940
8A20
8A20
7220
ENDCHAR
STARTCHAR U+3183
ENCODING 12675
SWIDTH 937 0
DWIDTH 15 0
BBX 11 10 2 2
BITMAP
2080
2080
7080
8940
8940
8940
8A20
8A20
8A20
73E0
ENDCHAR
STARTCHAR U+3184
ENCODING 12676
SWIDTH 937 0
DWIDTH 15 0
BBX 11 12 2 1
BITMAP
FFE0
2080
2080
2080
FFE0
0400
0400
7FC0
8020
8020
8020
7FC0
ENDCHAR
STARTCHAR U+3185
ENCODING 12677
SWIDTH 937 0
DWIDTH 15 0
BBX 13 10 1 2
BITMAP
38E0
0000
FFF8
0000
38E0
4510
4510
4510
4510
38E0
ENDCHAR
STARTCHAR U+3186
ENCODING 12678
SWIDTH 937 0
DWIDTH 15 0
BBX 11 10 2 2
BITMAP
FFE0
0000
1F00
2080
4040
4040
4040
4040
2080
1F00
ENDCHAR
STARTCHAR U+3187
ENCODING 12679
SWIDTH 937 0
DWIDTH 15 0
BBX 14 14 1 0
BITMAP
0010
0010
0010
0010
001C
0010
0010
1210
121C
1210
1210
FFD0
0010
0010
ENDCHAR
STARTCHAR U+3188
ENCODING 12680
SWIDTH 937 0
DWIDTH 15 0
BBX 13 14 1 0
BITMAP
0048
0048
0048
0048
0078
0048
0048
2448
2478
2448
2448
FF48
0048
0048
ENDCHAR
STARTCHAR U+3189
ENCODING 12681
SWIDTH 937 0
DWIDTH 15 0
BBX 12 14 1 0
BITMAP
0010
0010
0010
0010
0010
0010
0010
1210
1210
1210
1210
FFD0
0010
0010
ENDCHAR
STARTCHAR U+318A
ENCODING 12682
SWIDTH 937 0
DWIDTH 15 0
BBX 12 14 1 0
BITMAP
0010
0010
0010
0010
0010
0010
0010
FFD0
2410
24F0
2410
24F0
2410
2410
ENDCHAR
STARTCHAR U+318B
ENCODING 12683
SWIDTH 937 0
DWIDTH 15 0
BBX 13 14 1 0
BITMAP
0048
0048
0048
0048
0048
0048
0048
FF48
2448
25C8
2448
25C8
2448
2448
ENDCHAR
STARTCHAR U+318C
ENCODING 12684
SWIDTH 937 0
DWIDTH 15 0
BBX 12 14 1 0
BITMAP
0010
0010
0010
0010
0010
0010
0010
FFD0
1210
1210
1210
1210
1210
1210
ENDCHAR
STARTCHAR U+318D
ENCODING 12685
SWIDTH 937 0
DWIDTH 15 0
BBX 2 2 6 6
BITMAP
C0
C0
ENDCHAR
STARTCHAR U+318E
ENCODING 12686
SWIDTH 937 0
DWIDTH 15 0
BBX 7 14 4 0
BITMAP
02
02
02
02
02
02
C2
C2
02
02
02
02
02
02
ENDCHAR
STARTCHAR U+3200
ENCODING 12800
SWIDTH 937 0
DWIDTH 15 0
BBX 13 14 1 0
BITMAP
2020
4010
4010
9FC8
8048
8048
8048
8048
8048
8048
8048
4010
4010
2020
ENDCHAR
STARTCHAR U+3201
ENCODING 12801
SWIDTH 937 0
DWIDTH 15 0
BBX 13 14 1 0
BITMAP
2020
4010
4010
9008
9008
9008
9008
9008
9008
9008
9FC8
4010
4010
2020
ENDCHAR
STARTCHAR U+3202
ENCODING 12802
SWIDTH 937 0
DWIDTH 15 0
BBX 13 14 1 0
BITMAP
2020
4010
4010
9FC8
9008
9008
9008
9008
9008
9008
9FC8
4010
4010
2020
ENDCHAR
STARTCHAR U+3203
ENCODING 12803
SWIDTH 937 0
DWIDTH 15 0
BBX 13 14 1 0
BITMAP
2020
4010
4010
9FC8
8048
8048
9FC8
9008
9008
9008
9FC8
4010
4010
2020
ENDCHAR
STARTCHAR U+3204
ENCODING 12804
SWIDTH 937 0
DWIDTH 15 0
BBX 13 14 1 0
BITMAP
2020
4010
4010
9FC8
9048
9048
9048
9048
9048
9048
9FC8
4010
4010
2020
ENDCHAR
STARTCHAR U+3205
ENCODING 12805
SWIDTH 937 0
DWIDTH 15 0
BBX 13 14 1 0
BITMAP
2020
4010
4010
9048
9048
9048
9FC8
9048
9048
9048
9FC8
4010
4010
2020
ENDCHAR
STARTCHAR U+3206
ENCODING 12806
SWIDTH 937 0
DWIDTH 15 0
BBX 13 14 1 0
BITMAP
2020
4010
4010
8208
8208
8208
8508
8508
8888
8888
9048
4010
4010
2020
ENDCHAR
STARTCHAR U+3207
ENCODING 12807
SWIDTH 937 0
DWIDTH 15 0
BBX 13 14 1 0
BITMAP
2020
4010
4010
8708
8888
9048
9048
9048
9048
8888
8708
4010
4010
2020
ENDCHAR
STARTCHAR U+3208
ENCODING 12808
SWIDTH 937 0
DWIDTH 15 0
BBX 13 14 1 0
BITMAP
2020
4010
4010
9FC8
8208
8208
8508
8508
8888
8888
9048
4010
4010
2020
ENDCHAR
STARTCHAR U+3209
ENCODING 12809
SWIDTH 937 0
DWIDTH 15 0
BBX 13 14 1 0
BITMAP
2020
4010
4010
8F88
8008
9FC8
8208
8208
8508
8888
9048
4010
4010
2020
ENDCHAR
STARTCHAR U+320A
ENCODING 12810
SWIDTH 937 0
DWIDTH 15 0
BBX 13 14 1 0
BITMAP
2020
4010
4010
9FC8
8048
8048
8048
9FC8
8048
8048
8048
4010
4010
2020
ENDCHAR
STARTCHAR U+320B
ENCODING 12811
SWIDTH 937 0
DWIDTH 15 0
BBX 13 14 1 0
BITMAP
2020
4010
4010
9FC8
9008
9008
9FC8
9008
9008
9008
9FC8
4010
4010
2020
ENDCHAR
STARTCHAR U+320C
ENCODING 12812
SWIDTH 937 0
DWIDTH 15 0
BBX 13 14 1 0
BITMAP
2020
4010
4010
9FC8
8888
8888
8888
8888
8888
8888
9FC8
4010
4010
2020
ENDCHAR
STARTCHAR U+320D
ENCODING 12813
SWIDTH 937 0
DWIDTH 15 0
BBX 13 14 1 0
BITMAP
2020
4010
4010
8F88
8008
BFE8
8008
8F88
9048
9048
8F88
4010
4010
2020
ENDCHAR
STARTCHAR U+320E
ENCODING 12814
SWIDTH 937 0
DWIDTH 15 0
BBX 13 14 1 0
BITMAP
2020
4010
7E50
8248
8248
8248
8268
8448
8448
8848
B048
4050
4010
2020
ENDCHAR
STARTCHAR U+320F
ENCODING 12815
SWIDTH 937 0
DWIDTH 15 0
BBX 13 14 1 0
BITMAP
2020
4010
6050
A048
A048
A048
A068
A048
A048
A048
BF48
4050
4010
2020
ENDCHAR
STARTCHAR U+3210
ENCODING 12816
SWIDTH 937 0
DWIDTH 15 0
BBX 13 14 1 0
BITMAP
2020
4010
7E50
A048
A048
A048
A068
A048
A048
A048
BE48
4050
4010
2020
ENDCHAR
STARTCHAR U+3211
ENCODING 12817
SWIDTH 937 0
DWIDTH 15 0
BBX 13 14 1 0
BITMAP
2020
4010
7E50
8248
8248
8248
BE68
A048
A048
A048
BE48
4050
4010
2020
ENDCHAR
STARTCHAR U+3212
ENCODING 12818
SWIDTH 937 0
DWIDTH 15 0
BBX 13 14 1 0
BITMAP
2020
4010
7E50
A248
A248
A248
A268
A248
A248
A248
BE48
4050
4010
2020
ENDCHAR
STARTCHAR U+3213
ENCODING 12819
SWIDTH 937 0
DWIDTH 15 0
BBX 13 14 1 0
BITMAP
2020
4010
6250
A248
A248
BE48
A268
A248
A248
A248
BE48
4050
4010
2020
ENDCHAR
STARTCHAR U+3214
ENCODING 12820
SWIDTH 937 0
DWIDTH 15 0
BBX 13 14 1 0
BITMAP
2020
4010
4850
8848
8848
8848
9468
9448
9448
A248
A248
4050
4010
2020
ENDCHAR
STARTCHAR U+3215
ENCODING 12821
SWIDTH 937 0
DWIDTH 15 0
BBX 13 14 1 0
BITMAP
2020
4010
5C50
A248
A248
A248
A268
A248
A248
A248
9C48
4050
4010
2020
ENDCHAR
STARTCHAR U+3216
ENCODING 12822
SWIDTH 937 0
DWIDTH 15 0
BBX 13 14 1 0
BITMAP
2020
4010
7E50
8848
8848
8848
9468
9448
9448
A248
A248
4050
4010
2020
ENDCHAR
STARTCHAR U+3217
ENCODING 12823
SWIDTH 937 0
DWIDTH 15 0
BBX 13 14 1 0
BITMAP
2020
4010
5C50
8048
BE48
8848
8868
9448
9448
A248
A248
4050
4010
2020
ENDCHAR
STARTCHAR U+3218
ENCODING 12824
SWIDTH 937 0
DWIDTH 15 0
BBX 13 14 1 0
BITMAP
2020
4010
7E50
8248
8248
BE48
8268
8448
8448
8848
B048
4050
4010
2020
ENDCHAR
STARTCHAR U+3219
ENCODING 12825
SWIDTH 937 0
DWIDTH 15 0
BBX 13 14 1 0
BITMAP
2020
4010
7E50
A048
A048
A048
BE68
A048
A048
A048
BE48
4050
4010
2020
ENDCHAR
STARTCHAR U+321A
ENCODING 12826
SWIDTH 937 0
DWIDTH 15 0
BBX 13 14 1 0
BITMAP
2020
4010
7F50
9248
9248
9248
9268
9248
9248
9248
BF48
4050
4010
2020
ENDCHAR
STARTCHAR U+321B
ENCODING 12827
SWIDTH 937 0
DWIDTH 15 0
BBX 13 14 1 0
BITMAP
2020
4010
5E50
8048
BF48
8048
9C68
A248
A248
A248
9C48
4050
4010
2020
ENDCHAR
STARTCHAR U+321C
ENCODING 12828
SWIDTH 937 0
DWIDTH 15 0
BBX 13 14 1 0
BITMAP
2020
4010
5FD0
8208
8508
98C8
8008
BFE8
8208
8208
8208
4210
4010
2020
ENDCHAR
STARTCHAR U+321D
ENCODING 12829
SWIDTH 937 0
DWIDTH 15 0
BBX 13 14 1 0
BITMAP
2020
4010
5BB0
A528
A568
A528
9AA8
82A8
9028
9108
BD08
41F0
4010
2020
ENDCHAR
STARTCHAR U+321E
ENCODING 12830
SWIDTH 937 0
DWIDTH 15 0
BBX 13 14 1 0
BITMAP
2020
4010
5890
A5E8
A408
A4C8
9928
80C8
9008
91E8
BC48
4050
4010
2020
ENDCHAR
STARTCHAR U+3231
ENCODING 12849
SWIDTH 937 0
DWIDTH 15 0
BBX 14 14 0 0
BITMAP
2010
5088
5288
9284
BFE4
9484
9084
9BF4
B484
B1C4
92A4
5498
5088
2010
ENDCHAR
STARTCHAR U+3232
ENCODING 12850
SWIDTH 937 0
DWIDTH 15 0
BBX 14 14 0 0
BITMAP
2010
4208
4208
BFF4
8404
8804
9FE4
A824
8FE4
8824
8FE4
4828
48C8
2010
ENDCHAR
STARTCHAR U+3239
ENCODING 12857
SWIDTH 937 0
DWIDTH 15 0
BBX 14 14 0 0
BITMAP
2010
4488
44A8
8494
8884
9BF4
A884
8884
8884
8894
8894
4858
4828
2010
ENDCHAR
STARTCHAR U+3244
ENCODING 12868
SWIDTH 937 0
DWIDTH 15 0
BBX 13 13 1 1
BITMAP
0F80
3060
4010
5DD0
9548
9DC8
9048
9748
9548
5750
4010
3060
0F80
ENDCHAR
STARTCHAR U+3245
ENCODING 12869
SWIDTH 937 0
DWIDTH 15 0
BBX 13 13 1 1
BITMAP
0F80
3060
4010
4910
97C8
9548
8948
8948
9248
5CD0
4010
3060
0F80
ENDCHAR
STARTCHAR U+3246
ENCODING 12870
SWIDTH 937 0
DWIDTH 15 0
BBX 13 13 1 1
BITMAP
0F80
3060
4010
4210
9FC8
8888
8508
8208
8508
58D0
4010
3060
0F80
ENDCHAR
STARTCHAR U+3247
ENCODING 12871
SWIDTH 937 0
DWIDTH 15 0
BBX 13 13 1 1
BITMAP
0F80
3060
4010
5DD0
9548
8A88
9FC8
8248
9FC8
4210
4010
3060
0F80
ENDCHAR
STARTCHAR U+3251
ENCODING 12881
SWIDTH 937 0
DWIDTH 15 0
BBX 13 13 1 1
BITMAP
0F80
3060
4010
5890
8588
8488
8888
8888
9088
5C90
4010
3060
0F80
ENDCHAR
STARTCHAR U+3252
ENCODING 12882
SWIDTH 937 0
DWIDTH 15 0
BBX 13 13 1 1
BITMAP
0F80
3060
4010
5990
8448
8448
8888
8888
9108
5DD0
4010
3060
0F80
ENDCHAR
STARTCHAR U+3253
ENCODING 12883
SWIDTH 937 0
DWIDTH 15 0
BBX 13 13 1 1
BITMAP
0F80
3060
4010
5990
8448
8448
8988
8848
9048
5D90
4010
3060
0F80
ENDCHAR
STARTCHAR U+3254
ENCODING 12884
SWIDTH 937 0
DWIDTH 15 0
BBX 13 13 1 1
BITMAP
0F80
3060
4010
5850
84C8
8548
8948
89C8
9048
5C50
4010
3060
0F80
ENDCHAR
STARTCHAR U+3255
ENCODING 12885
SWIDTH 937 0
DWIDTH 15 0
BBX 13 13 1 1
BITMAP
0F80
3060
4010
59D0
8508
8508
8988
8848
9048
5D90
4010
3060
0F80
ENDCHAR
STARTCHAR U+3256
ENCODING 12886
SWIDTH 937 0
DWIDTH 15 0
BBX 13 13 1 1
BITMAP
0F80
3060
4010
58D0
8508
8508
8988
8948
9148
5C90
4010
3060
0F80
ENDCHAR
STARTCHAR U+3257
ENCODING 12887
SWIDTH 937 0
DWIDTH 15 0
BBX 13 13 1 1
BITMAP
0F80
3060
4010
59D0
8448
8448
8888
8888
9088
5C90
4010
3060
0F80
ENDCHAR
STARTCHAR U+3258
ENCODING 12888
SWIDTH 937 0
DWIDTH 15 0
BBX 13 13 1 1
BITMAP
0F80
3060
4010
5890
8548
8548
8888
8948
9148
5C90
4010
3060
0F80
ENDCHAR
STARTCHAR U+3259
ENCODING 12889
SWIDTH 937 0
DWIDTH 15 0
BBX 13 13 1 1
BITMAP
0F80
3060
4010
5890
8548
8548
88C8
8848
9048
5D90
4010
3060
0F80
ENDCHAR
STARTCHAR U+325A
ENCODING 12890
SWIDTH 937 0
DWIDTH 15 0
BBX 13 13 1 1
BITMAP
0F80
3060
4010
5890
8548
8548
9948
8548
8548
5890
4010
3060
0F80
ENDCHAR
STARTCHAR U+325B
ENCODING 12891
SWIDTH 937 0
DWIDTH 15 0
BBX 13 13 1 1
BITMAP
0F80
3060
4010
5890
8588
8488
9888
8488
8488
5890
4010
3060
0F80
ENDCHAR
STARTCHAR U+325C
ENCODING 12892
SWIDTH 937 0
DWIDTH 15 0
BBX 13 13 1 1
BITMAP
0F80
3060
4010
5990
8448
8448
9888
8488
8508
59D0
4010
3060
0F80
ENDCHAR
STARTCHAR U+325D
ENCODING 12893
SWIDTH 937 0
DWIDTH 15 0
BBX 13 13 1 1
BITMAP
0F80
3060
4010
5990
8448
8448
9988
8448
8448
5990
4010
3060
0F80
ENDCHAR
STARTCHAR U+325E
ENCODING 12894
SWIDTH 937 0
DWIDTH 15 0
BBX 13 13 1 1
BITMAP
0F80
3060
4010
5850
84C8
8548
9948
85C8
8448
5850
4010
3060
0F80
ENDCHAR
STARTCHAR U+325F
ENCODING 12895
SWIDTH 937 0
DWIDTH 15 0
BBX 13 13 1 1
BITMAP
0F80
3060
4010
59D0
8508
8508
9988
8448
8448
5990
4010
3060
0F80
ENDCHAR
STARTCHAR U+3260
ENCODING 12896
SWIDTH 937 0
DWIDTH 15 0
BBX 13 13 1 1
BITMAP
0F80
3060
4010
5FD0
8048
8048
8048
8048
8048
4050
4010
3060
0F80
ENDCHAR
STARTCHAR U+3261
ENCODING 12897
SWIDTH 937 0
DWIDTH 15 0
BBX 13 13 1 1
BITMAP
0F80
3060
4010
5010
9008
9008
9008
9008
9008
5FD0
4010
3060
0F80
ENDCHAR
STARTCHAR U+3262
ENCODING 12898
SWIDTH 937 0
DWIDTH 15 0
BBX 13 13 1 1
BITMAP
0F80
3060
4010
5FD0
9008
9008
9008
9008
9008
5FD0
4010
3060
0F80
ENDCHAR
STARTCHAR U+3263
ENCODING 12899
SWIDTH 937 0
DWIDTH 15 0
BBX 13 13 1 1
BITMAP
0F80
3060
4010
5FD0
8048
8048
9FC8
9008
9008
5FD0
4010
3060
0F80
ENDCHAR
STARTCHAR U+3264
ENCODING 12900
SWIDTH 937 0
DWIDTH 15 0
BBX 13 13 1 1
BITMAP
0F80
3060
4010
5FD0
9048
9048
9048
9048
9048
5FD0
4010
3060
0F80
ENDCHAR
STARTCHAR U+3265
ENCODING 12901
SWIDTH 937 0
DWIDTH 15 0
BBX 13 13 1 1
BITMAP
0F80
3060
4010
5050
9048
9FC8
9048
9048
9048
5FD0
4010
3060
0F80
ENDCHAR
STARTCHAR U+3266
ENCODING 12902
SWIDTH 937 0
DWIDTH 15 0
BBX 13 13 1 1
BITMAP
0F80
3060
4010
4210
8208
8208
8508
8508
8888
5050
4010
3060
0F80
ENDCHAR
STARTCHAR U+3267
ENCODING 12903
SWIDTH 937 0
DWIDTH 15 0
BBX 13 13 1 1
BITMAP
0F80
3060
4010
4710
8888
9048
9048
9048
8888
4710
4010
3060
0F80
ENDCHAR
STARTCHAR U+3268
ENCODING 12904
SWIDTH 937 0
DWIDTH 15 0
BBX 13 13 1 1
BITMAP
0F80
3060
4010
5FD0
8208
8208
8508
8508
8888
5050
4010
3060
0F80
ENDCHAR
STARTCHAR U+3269
ENCODING 12905
SWIDTH 937 0
DWIDTH 15 0
BBX 13 13 1 1
BITMAP
0F80
3060
4010
4F90
8008
9FC8
8208
8508
8888
5050
4010
3060
0F80
ENDCHAR
STARTCHAR U+326A
ENCODING 12906
SWIDTH 937 0
DWIDTH 15 0
BBX 13 13 1 1
BITMAP
0F80
3060
4010
5FD0
8048
8048
9FC8
8048
8048
4050
4010
3060
0F80
ENDCHAR
STARTCHAR U+326B
ENCODING 12907
SWIDTH 937 0
DWIDTH 15 0
BBX 13 13 1 1
BITMAP
0F80
3060
4010
5FD0
9008
9008
9FC8
9008
9008
5FD0
4010
3060
0F80
ENDCHAR
STARTCHAR U+326C
ENCODING 12908
SWIDTH 937 0
DWIDTH 15 0
BBX 13 13 1 1
BITMAP
0F80
3060
4010
5FD0
8888
8888
8888
8888
8888
5FD0
4010
3060
0F80
ENDCHAR
STARTCHAR U+326D
ENCODING 12909
SWIDTH 937 0
DWIDTH 15 0
BBX 13 13 1 1
BITMAP
0F80
3060
4F90
4010
BFE8
8008
8F88
9048
9048
4F90
4010
3060
0F80
ENDCHAR
STARTCHAR U+326E
ENCODING 12910
SWIDTH 937 0
DWIDTH 15 0
BBX 13 13 1 1
BITMAP
0F80
3060
4010
5C90
8488
8488
88C8
8888
9088
4090
4010
3060
0F80
ENDCHAR
STARTCHAR U+326F
ENCODING 12911
SWIDTH 937 0
DWIDTH 15 0
BBX 13 13 1 1
BITMAP
0F80
3060
4010
5090
9088
9088
90C8
9088
9E88
4090
4010
3060
0F80
ENDCHAR
STARTCHAR U+3270
ENCODING 12912
SWIDTH 937 0
DWIDTH 15 0
BBX 13 13 1 1
BITMAP
0F80
3060
4010
5E90
9088
9088
90C8
9088
9E88
4090
4010
3060
0F80
ENDCHAR
STARTCHAR U+3271
ENCODING 12913
SWIDTH 937 0
DWIDTH 15 0
BBX 13 13 1 1
BITMAP
0F80
3060
4010
5E90
8288
9E88
90C8
9088
9E88
4090
4010
3060
0F80
ENDCHAR
STARTCHAR U+3272
ENCODING 12914
SWIDTH 937 0
DWIDTH 15 0
BBX 13 13 1 1
BITMAP
0F80
3060
4010
5E90
9288
9288
92C8
9288
9E88
4090
4010
3060
0F80
ENDCHAR
STARTCHAR U+3273
ENCODING 12915
SWIDTH 937 0
DWIDTH 15 0
BBX 13 13 1 1
BITMAP
0F80
3060
4010
5290
9288
9E88
92C8
9288
9E88
4090
4010
3060
0F80
ENDCHAR
STARTCHAR U+3274
ENCODING 12916
SWIDTH 937 0
DWIDTH 15 0
BBX 13 13 1 1
BITMAP
0F80
3060
4010
4490
8488
8488
8AC8
8A88
9188
4090
4010
3060
0F80
ENDCHAR
STARTCHAR U+3275
ENCODING 12917
SWIDTH 937 0
DWIDTH 15 0
BBX 13 13 1 1
BITMAP
0F80
3060
4010
4C90
9288
9288
92C8
9288
8C88
4090
4010
3060
0F80
ENDCHAR
STARTCHAR U+3276
ENCODING 12918
SWIDTH 937 0
DWIDTH 15 0
BBX 13 13 1 1
BITMAP
0F80
3060
4010
5F90
8488
8488
8AC8
8A88
9188
4090
4010
3060
0F80
ENDCHAR
STARTCHAR U+3277
ENCODING 12919
SWIDTH 937 0
DWIDTH 15 0
BBX 13 13 1 1
BITMAP
0F80
3060
4010
4E90
8088
9F88
84C8
8A88
9188
4090
4010
3060
0F80
ENDCHAR
STARTCHAR U+3278
ENCODING 12920
SWIDTH 937 0
DWIDTH 15 0
BBX 13 13 1 1
BITMAP
0F80
3060
4010
5C90
8488
9C88
84C8
8888
9088
4090
4010
3060
0F80
ENDCHAR
STARTCHAR U+3279
ENCODING 12921
SWIDTH 937 0
DWIDTH 15 0
BBX 13 13 1 1
BITMAP
0F80
3060
4010
5E90
9088
9E88
90C8
9088
9E88
4090
4010
3060
0F80
ENDCHAR
STARTCHAR U+327A
ENCODING 12922
SWIDTH 937 0
DWIDTH 15 0
BBX 13 13 1 1
BITMAP
0F80
3060
4010
5E90
8C88
8C88
8CC8
8C88
9E88
4090
4010
3060
0F80
ENDCHAR
STARTCHAR U+327B
ENCODING 12923
SWIDTH 937 0
DWIDTH 15 0
BBX 13 13 1 1
BITMAP
0F80
3060
4010
4890
9E88
8088
8CC8
9288
8C88
4090
4010
3060
0F80
ENDCHAR
STARTCHAR U+327C
ENCODING 12924
SWIDTH 937 0
DWIDTH 15 0
BBX 13 13 1 1
BITMAP
0F80
3060
4010
55D0
BC48
9648
AC88
9C88
95C8
5C10
4010
3060
0F80
ENDCHAR
STARTCHAR U+327D
ENCODING 12925
SWIDTH 937 0
DWIDTH 15 0
BBX 13 13 1 1
BITMAP
0F80
3060
4010
5D50
8AC8
96C8
8148
BC48
8BC8
4850
4010
3060
0F80
ENDCHAR
STARTCHAR U+327E
ENCODING 12926
SWIDTH 937 0
DWIDTH 15 0
BBX 13 13 1 1
BITMAP
0F80
3060
4710
4890
8888
8708
8008
9FC8
8208
4210
4210
3060
0F80
ENDCHAR
STARTCHAR U+327F
ENCODING 12927
SWIDTH 937 0
DWIDTH 15 0
BBX 13 13 1 1
BITMAP
0F80
3060
4010
4890
8908
8A00
EC38
0A08
8908
4890
4010
3060
0F80
ENDCHAR
STARTCHAR U+3280
ENCODING 12928
SWIDTH 937 0
DWIDTH 15 0
BBX 13 13 1 1
BITMAP
0F80
3060
4010
4010
8008
8008
9FC8
8008
8008
4010
4010
3060
0F80
ENDCHAR
STARTCHAR U+3281
ENCODING 12929
SWIDTH 937 0
DWIDTH 15 0
BBX 13 13 1 1
BITMAP
0F80
3060
4010
4F90
8008
8008
8008
8008
8008
5FD0
4010
3060
0F80
ENDCHAR
STARTCHAR U+3282
ENCODING 12930
SWIDTH 937 0
DWIDTH 15 0
BBX 13 13 1 1
BITMAP
0F80
3060
4010
5FD0
8008
8008
8F88
8008
8008
5FD0
4010
3060
0F80
ENDCHAR
STARTCHAR U+3283
ENCODING 12931
SWIDTH 937 0
DWIDTH 15 0
BBX 13 13 1 1
BITMAP
0F80
3060
4010
5FD0
9548
9548
9548
99C8
9048
5FD0
4010
3060
0F80
ENDCHAR
STARTCHAR U+3284
ENCODING 12932
SWIDTH 937 0
DWIDTH 15 0
BBX 13 13 1 1
BITMAP
0F80
3060
4010
5FD0
8208
8208
8F88
8488
8488
5FD0
4010
3060
0F80
ENDCHAR
STARTCHAR U+3285
ENCODING 12933
SWIDTH 937 0
DWIDTH 15 0
BBX 13 13 1 1
BITMAP
0F80
3060
4010
4210
9FC8
8008
8888
8888
8888
5050
4010
3060
0F80
ENDCHAR
STARTCHAR U+3286
ENCODING 12934
SWIDTH 937 0
DWIDTH 15 0
BBX 13 13 1 1
BITMAP
0F80
3060
4010
4410
8408
9FC8
8408
8408
8448
47D0
4010
3060
0F80
ENDCHAR
STARTCHAR U+3287
ENCODING 12935
SWIDTH 937 0
DWIDTH 15 0
BBX 13 13 1 1
BITMAP
0F80
3060
4010
4510
8508
8508
8888
8888
9048
5050
4010
3060
0F80
ENDCHAR
STARTCHAR U+3288
ENCODING 12936
SWIDTH 937 0
DWIDTH 15 0
BBX 13 13 1 1
BITMAP
0F80
3060
4010
4410
9F08
8508
8508
8508
8948
51D0
4010
3060
0F80
ENDCHAR
STARTCHAR U+3289
ENCODING 12937
SWIDTH 937 0
DWIDTH 15 0
BBX 13 13 1 1
BITMAP
0F80
3060
4010
4210
8208
8208
9FC8
8208
8208
4210
4010
3060
0F80
ENDCHAR
STARTCHAR U+328A
ENCODING 12938
SWIDTH 937 0
DWIDTH 15 0
BBX 13 13 1 1
BITMAP
0F80
3060
4010
4FD0
8848
8FC8
8848
8FC8
8848
50D0
4010
3060
0F80
ENDCHAR
STARTCHAR U+328B
ENCODING 12939
SWIDTH 937 0
DWIDTH 15 0
BBX 13 13 1 1
BITMAP
0F80
3060
4010
4210
9248
8A88
8208
8508
8508
58D0
4010
3060
0F80
ENDCHAR
STARTCHAR U+328C
ENCODING 12940
SWIDTH 937 0
DWIDTH 15 0
BBX 13 13 1 1
BITMAP
0F80
3060
4010
4210
9A48
8B88
8B08
8A88
9248
4610
4010
3060
0F80
ENDCHAR
STARTCHAR U+328D
ENCODING 12941
SWIDTH 937 0
DWIDTH 15 0
BBX 13 13 1 1
BITMAP
0F80
3060
4010
4210
9FC8
8208
8708
8A88
9248
4210
4010
3060
0F80
ENDCHAR
STARTCHAR U+328E
ENCODING 12942
SWIDTH 937 0
DWIDTH 15 0
BBX 13 13 1 1
BITMAP
0F80
3060
4010
4210
8D88
9048
8F88
9248
8A88
5FD0
4010
3060
0F80
ENDCHAR
STARTCHAR U+328F
ENCODING 12943
SWIDTH 937 0
DWIDTH 15 0
BBX 13 13 1 1
BITMAP
0F80
3060
4010
4210
8208
8F88
8208
8208
8208
5FD0
4010
3060
0F80
ENDCHAR
STARTCHAR U+3290
ENCODING 12944
SWIDTH 937 0
DWIDTH 15 0
BBX 13 13 1 1
BITMAP
0F80
3060
4010
5FD0
9048
9048
9FC8
9048
9048
5FD0
4010
3060
0F80
ENDCHAR
STARTCHAR U+3291
ENCODING 12945
SWIDTH 937 0
DWIDTH 15 0
BBX 13 13 1 1
BITMAP
0F80
3060
4010
4A10
9FC8
8908
9FC8
9B88
8D48
4910
4010
3060
0F80
ENDCHAR
STARTCHAR U+3292
ENCODING 12946
SWIDTH 937 0
DWIDTH 15 0
BBX 13 13 1 1
BITMAP
0F80
3060
4010
4410
9FC8
8808
9788
8488
8788
4490
4010
3060
0F80
ENDCHAR
STARTCHAR U+3293
ENCODING 12947
SWIDTH 937 0
DWIDTH 15 0
BBX 13 13 1 1
BITMAP
0F80
3060
4010
4890
9C88
85C8
8888
9C88
8888
49D0
4010
3060
0F80
ENDCHAR
STARTCHAR U+3294
ENCODING 12948
SWIDTH 937 0
DWIDTH 15 0
BBX 13 13 1 1
BITMAP
0F80
3060
4010
4790
8888
9508
8208
9FC8
8448
47D0
4010
3060
0F80
ENDCHAR
STARTCHAR U+3295
ENCODING 12949
SWIDTH 937 0
DWIDTH 15 0
BBX 13 13 1 1
BITMAP
0F80
3060
4010
53D0
9D08
8BC8
8C88
9BC8
8888
4990
4010
3060
0F80
ENDCHAR
STARTCHAR U+3296
ENCODING 12950
SWIDTH 937 0
DWIDTH 15 0
BBX 13 13 1 1
BITMAP
0F80
3060
4010
5C50
95C8
9C48
94C8
9D48
8A48
54D0
4010
3060
0F80
ENDCHAR
STARTCHAR U+3297
ENCODING 12951
SWIDTH 937 0
DWIDTH 15 0
BBX 13 13 1 1
BITMAP
0F80
3060
4010
4BD0
9E48
87C8
8988
9D88
8A88
4CD0
4010
3060
0F80
ENDCHAR
STARTCHAR U+3298
ENCODING 12952
SWIDTH 937 0
DWIDTH 15 0
BBX 13 13 1 1
BITMAP
0F80
3060
4010
4A90
9FC8
9448
8F88
8488
8488
5990
4010
3060
0F80
ENDCHAR
STARTCHAR U+3299
ENCODING 12953
SWIDTH 937 0
DWIDTH 15 0
BBX 13 13 1 1
BITMAP
0F80
3060
4010
5A10
8948
9D88
8B08
9948
8B48
4D90
4010
3060
0F80
ENDCHAR
STARTCHAR U+329A
ENCODING 12954
SWIDTH 937 0
DWIDTH 15 0
BBX 13 13 1 1
BITMAP
0F80
3060
4010
5FD0
9248
9FC8
8208
9FC8
8448
58D0
4010
3060
0F80
ENDCHAR
STARTCHAR U+329B
ENCODING 12955
SWIDTH 937 0
DWIDTH 15 0
BBX 13 13 1 1
BITMAP
0F80
3060
4010
4410
9FC8
8488
8888
8508
8388
5C50
4010
3060
0F80
ENDCHAR
STARTCHAR U+329C
ENCODING 12956
SWIDTH 937 0
DWIDTH 15 0
BBX 13 13 1 1
BITMAP
0F80
3060
4010
57D0
8288
9BC8
8A48
8BC8
8A48
57D0
4010
3060
0F80
ENDCHAR
STARTCHAR U+329D
ENCODING 12957
SWIDTH 937 0
DWIDTH 15 0
BBX 13 13 1 1
BITMAP
0F80
3060
4010
4BD0
8908
9BC8
8A48
8BC8
8A88
4D50
4010
3060
0F80
ENDCHAR
STARTCHAR U+329E
ENCODING 12958
SWIDTH 937 0
DWIDTH 15 0
BBX 13 13 1 1
BITMAP
0F80
3060
4010
4DD0
9148
9D48
9148
9148
9DC8
4110
4010
3060
0F80
ENDCHAR
STARTCHAR U+329F
ENCODING 12959
SWIDTH 937 0
DWIDTH 15 0
BBX 13 13 1 1
BITMAP
0F80
3060
4010
5210
8908
97C8
8908
87C8
8908
57D0
4010
3060
0F80
ENDCHAR
STARTCHAR U+32A0
ENCODING 12960
SWIDTH 937 0
DWIDTH 15 0
BBX 13 13 1 1
BITMAP
0F80
3060
4010
5BD0
8908
8BC8
8A48
8FC8
9188
4250
4010
3060
0F80
ENDCHAR
STARTCHAR U+32A1
ENCODING 12961
SWIDTH 937 0
DWIDTH 15 0
BBX 13 13 1 1
BITMAP
0F80
3060
4010
4910
8FC8
9908
8B88
8B88
8D48
4910
4010
3060
0F80
ENDCHAR
STARTCHAR U+32A2
ENCODING 12962
SWIDTH 937 0
DWIDTH 15 0
BBX 13 13 1 1
BITMAP
0F80
3060
4010
5FD0
9448
9748
8108
9FC8
8108
4710
4010
3060
0F80
ENDCHAR
STARTCHAR U+32A3
ENCODING 12963
SWIDTH 937 0
DWIDTH 15 0
BBX 13 13 1 1
BITMAP
0F80
3060
4010
5FD0
8208
8A08
8B88
8A08
8A08
5FD0
4010
3060
0F80
ENDCHAR
STARTCHAR U+32A4
ENCODING 12964
SWIDTH 937 0
DWIDTH 15 0
BBX 13 13 1 1
BITMAP
0F80
3060
4010
4210
8208
8388
8208
8208
8208
5FD0
4010
3060
0F80
ENDCHAR
STARTCHAR U+32A5
ENCODING 12965
SWIDTH 937 0
DWIDTH 15 0
BBX 13 13 1 1
BITMAP
0F80
3060
4010
4210
9FC8
9248
9248
9FC8
8208
4210
4010
3060
0F80
ENDCHAR
STARTCHAR U+32A6
ENCODING 12966
SWIDTH 937 0
DWIDTH 15 0
BBX 13 13 1 1
BITMAP
0F80
3060
4010
5FD0
8208
8308
8288
8208
8208
4210
4010
3060
0F80
ENDCHAR
STARTCHAR U+32A7
ENCODING 12967
SWIDTH 937 0
DWIDTH 15 0
BBX 13 13 1 1
BITMAP
0F80
3060
4010
4410
9FC8
8408
8FC8
9108
8108
4FD0
4010
3060
0F80
ENDCHAR
STARTCHAR U+32A8
ENCODING 12968
SWIDTH 937 0
DWIDTH 15 0
BBX 13 13 1 1
BITMAP
0F80
3060
4010
4410
9FC8
8408
8808
97C8
8448
47D0
4010
3060
0F80
ENDCHAR
STARTCHAR U+32A9
ENCODING 12969
SWIDTH 937 0
DWIDTH 15 0
BBX 13 13 1 1
BITMAP
0F80
3060
4010
5FD0
9208
9788
9108
97C8
9288
5FD0
4010
3060
0F80
ENDCHAR
STARTCHAR U+32AA
ENCODING 12970
SWIDTH 937 0
DWIDTH 15 0
BBX 13 13 1 1
BITMAP
0F80
3060
4010
4210
9FC8
9048
9FC8
8208
8A88
5650
4010
3060
0F80
ENDCHAR
STARTCHAR U+32AB
ENCODING 12971
SWIDTH 937 0
DWIDTH 15 0
BBX 13 13 1 1
BITMAP
0F80
3060
4010
4A90
9FC8
9148
8208
9FC8
8208
4610
4010
3060
0F80
ENDCHAR
STARTCHAR U+32AC
ENCODING 12972
SWIDTH 937 0
DWIDTH 15 0
BBX 13 13 1 1
BITMAP
0F80
3060
4010
5DD0
9208
9DC8
8008
8F88
8A88
5FD0
4010
3060
0F80
ENDCHAR
STARTCHAR U+32AD
ENCODING 12973
SWIDTH 937 0
DWIDTH 15 0
BBX 13 13 1 1
BITMAP
0F80
3060
4010
4210
8508
98C8
8208
8B88
8A08
5FD0
4010
3060
0F80
ENDCHAR
STARTCHAR U+32AE
ENCODING 12974
SWIDTH 937 0
DWIDTH 15 0
BBX 13 13 1 1
BITMAP
0F80
3060
4010
5BD0
8D48
9288
8F88
8888
8F88
5050
4010
3060
0F80
ENDCHAR
STARTCHAR U+32AF
ENCODING 12975
SWIDTH 937 0
DWIDTH 15 0
BBX 13 13 1 1
BITMAP
0F80
3060
4010
4910
9FC8
8948
8A48
8FC8
8A48
4CD0
4010
3060
0F80
ENDCHAR
STARTCHAR U+32B0
ENCODING 12976
SWIDTH 937 0
DWIDTH 15 0
BBX 13 13 1 1
BITMAP
0F80
3060
4210
5FD0
8908
9BC8
8A48
8D88
8908
4AD0
4010
3060
0F80
ENDCHAR
STARTCHAR U+32B1
ENCODING 12977
SWIDTH 937 0
DWIDTH 15 0
BBX 13 13 1 1
BITMAP
0F80
3060
4010
58D0
8508
8508
9988
8548
8548
5890
4010
3060
0F80
ENDCHAR
STARTCHAR U+32B2
ENCODING 12978
SWIDTH 937 0
DWIDTH 15 0
BBX 13 13 1 1
BITMAP
0F80
3060
4010
59D0
8448
8448
9888
8488
8488
5890
4010
3060
0F80
ENDCHAR
STARTCHAR U+32B3
ENCODING 12979
SWIDTH 937 0
DWIDTH 15 0
BBX 13 13 1 1
BITMAP
0F80
3060
4010
5890
8548
8548
9888
8548
8548
5890
4010
3060
0F80
ENDCHAR
STARTCHAR U+32B4
ENCODING 12980
SWIDTH 937 0
DWIDTH 15 0
BBX 13 13 1 1
BITMAP
0F80
3060
4010
5890
8548
8548
98C8
8448
8448
5990
4010
3060
0F80
ENDCHAR
STARTCHAR U+32B5
ENCODING 12981
SWIDTH 937 0
DWIDTH 15 0
BBX 13 13 1 1
BITMAP
0F80
3060
4010
4490
8D48
9548
9548
9D48
8548
4490
4010
3060
0F80
ENDCHAR
STARTCHAR U+32B6
ENCODING 12982
SWIDTH 937 0
DWIDTH 15 0
BBX 13 13 1 1
BITMAP
0F80
3060
4010
4490
8D88
9488
9488
9C88
8488
4490
4010
3060
0F80
ENDCHAR
STARTCHAR U+32B7
ENCODING 12983
SWIDTH 937 0
DWIDTH 15 0
BBX 13 13 1 1
BITMAP
0F80
3060
4010
4590
8C48
9448
9488
9C88
8508
45D0
4010
3060
0F80
ENDCHAR
STARTCHAR U+32B8
ENCODING 12984
SWIDTH 937 0
DWIDTH 15 0
BBX 13 13 1 1
BITMAP
0F80
3060
4010
4590
8C48
9448
9588
9C48
8448
4590
4010
3060
0F80
ENDCHAR
STARTCHAR U+32B9
ENCODING 12985
SWIDTH 937 0
DWIDTH 15 0
BBX 13 13 1 1
BITMAP
0F80
3060
4010
4450
8CC8
9548
9548
9DC8
8448
4450
4010
3060
0F80
ENDCHAR
STARTCHAR U+32BA
ENCODING 12986
SWIDTH 937 0
DWIDTH 15 0
BBX 13 13 1 1
BITMAP
0F80
3060
4010
45D0
8D08
9508
9588
9C48
8448
4590
4010
3060
0F80
ENDCHAR
STARTCHAR U+32BB
ENCODING 12987
SWIDTH 937 0
DWIDTH 15 0
BBX 13 13 1 1
BITMAP
0F80
3060
4010
44D0
8D08
9508
9588
9D48
8548
4490
4010
3060
0F80
ENDCHAR
STARTCHAR U+32BC
ENCODING 12988
SWIDTH 937 0
DWIDTH 15 0
BBX 13 13 1 1
BITMAP
0F80
3060
4010
45D0
8C48
9448
9488
9C88
8488
4490
4010
3060
0F80
ENDCHAR
STARTCHAR U+32BD
ENCODING 12989
SWIDTH 937 0
DWIDTH 15 0
BBX 13 13 1 1
BITMAP
0F80
3060
4010
4490
8D48
9548
9488
9D48
8548
4490
4010
3060
0F80
ENDCHAR
STARTCHAR U+32BE
ENCODING 12990
SWIDTH 937 0
DWIDTH 15 0
BBX 13 13 1 1
BITMAP
0F80
3060
4010
4490
8D48
9548
94C8
9C48
8448
4590
4010
3060
0F80
ENDCHAR
STARTCHAR U+32BF
ENCODING 12991
SWIDTH 937 0
DWIDTH 15 0
BBX 13 13 1 1
BITMAP
0F80
3060
4010
5C90
9148
9148
9948
8548
8548
5890
4010
3060
0F80
ENDCHAR
STARTCHAR U+32D0
ENCODING 13008
SWIDTH 937 0
DWIDTH 15 0
BBX 13 13 1 1
BITMAP
0F80
3060
4010
5FD0
8048
8248
8288
8208
8208
4C10
4010
3060
0F80
ENDCHAR
STARTCHAR U+32D1
ENCODING 13009
SWIDTH 937 0
DWIDTH 15 0
BBX 13 13 1 1
BITMAP
0F80
3060
4010
4090
8108
8608
9A08
8208
8208
4210
4010
3060
0F80
ENDCHAR
STARTCHAR U+32D2
ENCODING 13010
SWIDTH 937 0
DWIDTH 15 0
BBX 13 13 1 1
BITMAP
0F80
3060
4010
4410
9F88
9088
9088
8088
8108
4610
4010
3060
0F80
ENDCHAR
STARTCHAR U+32D3
ENCODING 13011
SWIDTH 937 0
DWIDTH 15 0
BBX 13 13 1 1
BITMAP
0F80
3060
4010
4010
8F88
8208
8208
8208
8208
5FD0
4010
3060
0F80
ENDCHAR
STARTCHAR U+32D4
ENCODING 13012
SWIDTH 937 0
DWIDTH 15 0
BBX 13 13 1 1
BITMAP
0F80
3060
4010
4110
9FC8
8308
8508
8908
9108
4310
4010
3060
0F80
ENDCHAR
STARTCHAR U+32D5
ENCODING 13013
SWIDTH 937 0
DWIDTH 15 0
BBX 13 13 1 1
BITMAP
0F80
3060
4010
4410
9F88
8488
8488
8488
8888
5110
4010
3060
0F80
ENDCHAR
STARTCHAR U+32D6
ENCODING 13014
SWIDTH 937 0
DWIDTH 15 0
BBX 13 13 1 1
BITMAP
0F80
3060
4010
4410
8588
9E08
83C8
9E08
8108
4110
4010
3060
0F80
ENDCHAR
STARTCHAR U+32D7
ENCODING 13015
SWIDTH 937 0
DWIDTH 15 0
BBX 13 13 1 1
BITMAP
0F80
3060
4010
4410
8788
8888
9088
8108
8208
4C10
4010
3060
0F80
ENDCHAR
STARTCHAR U+32D8
ENCODING 13016
SWIDTH 937 0
DWIDTH 15 0
BBX 13 13 1 1
BITMAP
0F80
3060
4010
4810
8FC8
8908
9108
8108
8208
4C10
4010
3060
0F80
ENDCHAR
STARTCHAR U+32D9
ENCODING 13017
SWIDTH 937 0
DWIDTH 15 0
BBX 13 13 1 1
BITMAP
0F80
3060
4010
4010
9F88
8088
8088
8088
8088
5F90
4010
3060
0F80
ENDCHAR
STARTCHAR U+32DA
ENCODING 13018
SWIDTH 937 0
DWIDTH 15 0
BBX 13 13 1 1
BITMAP
0F80
3060
4010
4910
9FC8
8908
8908
8108
8108
4610
4010
3060
0F80
ENDCHAR
STARTCHAR U+32DB
ENCODING 13019
SWIDTH 937 0
DWIDTH 15 0
BBX 13 13 1 1
BITMAP
0F80
3060
4010
4810
8408
9048
8848
8088
8308
5C10
4010
3060
0F80
ENDCHAR
STARTCHAR U+32DC
ENCODING 13020
SWIDTH 937 0
DWIDTH 15 0
BBX 13 13 1 1
BITMAP
0F80
3060
4010
5F90
8088
8108
8208
8508
8888
5050
4010
3060
0F80
ENDCHAR
STARTCHAR U+32DD
ENCODING 13021
SWIDTH 937 0
DWIDTH 15 0
BBX 13 13 1 1
BITMAP
0F80
3060
4010
4810
8BC8
9C48
8888
8808
8808
47D0
4010
3060
0F80
ENDCHAR
STARTCHAR U+32DE
ENCODING 13022
SWIDTH 937 0
DWIDTH 15 0
BBX 13 13 1 1
BITMAP
0F80
3060
4010
5090
8888
8888
8088
8108
8208
4C10
4010
3060
0F80
ENDCHAR
STARTCHAR U+32DF
ENCODING 13023
SWIDTH 937 0
DWIDTH 15 0
BBX 13 13 1 1
BITMAP
0F80
3060
4010
4410
8788
8888
9488
8288
8108
5E10
4010
3060
0F80
ENDCHAR
STARTCHAR U+32E0
ENCODING 13024
SWIDTH 937 0
DWIDTH 15 0
BBX 13 13 1 1
BITMAP
0F80
3060
4010
4090
8F08
8208
9FC8
8208
8208
4C10
4010
3060
0F80
ENDCHAR
STARTCHAR U+32E1
ENCODING 13025
SWIDTH 937 0
DWIDTH 15 0
BBX 13 13 1 1
BITMAP
0F80
3060
4010
5490
8A88
8A88
8088
8108
8208
4C10
4010
3060
0F80
ENDCHAR
STARTCHAR U+32E2
ENCODING 13026
SWIDTH 937 0
DWIDTH 15 0
BBX 13 13 1 1
BITMAP
0F80
3060
4010
4F90
8008
9FC8
8208
8208
8208
4C10
4010
3060
0F80
ENDCHAR
STARTCHAR U+32E3
ENCODING 13027
SWIDTH 937 0
DWIDTH 15 0
BBX 13 13 1 1
BITMAP
0F80
3060
4010
4410
8408
8608
8508
8488
8408
4410
4010
3060
0F80
ENDCHAR
STARTCHAR U+32E4
ENCODING 13028
SWIDTH 937 0
DWIDTH 15 0
BBX 13 13 1 1
BITMAP
0F80
3060
4010
4210
8208
9FC8
8208
8208
8208
4C10
4010
3060
0F80
ENDCHAR
STARTCHAR U+32E5
ENCODING 13029
SWIDTH 937 0
DWIDTH 15 0
BBX 13 13 1 1
BITMAP
0F80
3060
4010
4010
8F88
8008
8008
8008
9FC8
4010
4010
3060
0F80
ENDCHAR
STARTCHAR U+32E6
ENCODING 13030
SWIDTH 937 0
DWIDTH 15 0
BBX 13 13 1 1
BITMAP
0F80
3060
4010
5F90
8088
8088
8D08
8208
8508
5890
4010
3060
0F80
ENDCHAR
STARTCHAR U+32E7
ENCODING 13031
SWIDTH 937 0
DWIDTH 15 0
BBX 13 13 1 1
BITMAP
0F80
3060
4010
4210
8F88
8108
8708
9AC8
8208
4210
4010
3060
0F80
ENDCHAR
STARTCHAR U+32E8
ENCODING 13032
SWIDTH 937 0
DWIDTH 15 0
BBX 13 13 1 1
BITMAP
0F80
3060
4010
4110
8108
8208
8208
8408
8808
5010
4010
3060
0F80
ENDCHAR
STARTCHAR U+32E9
ENCODING 13033
SWIDTH 937 0
DWIDTH 15 0
BBX 13 13 1 1
BITMAP
0F80
3060
4010
4510
8508
8508
8508
8888
8888
5050
4010
3060
0F80
ENDCHAR
STARTCHAR U+32EA
ENCODING 13034
SWIDTH 937 0
DWIDTH 15 0
BBX 13 13 1 1
BITMAP
0F80
3060
4010
5010
9188
9E08
9008
9008
9008
4FD0
4010
3060
0F80
ENDCHAR
STARTCHAR U+32EB
ENCODING 13035
SWIDTH 937 0
DWIDTH 15 0
BBX 13 13 1 1
BITMAP
0F80
3060
4010
4010
9F88
8088
8088
8108
8208
4C10
4010
3060
0F80
ENDCHAR
STARTCHAR U+32EC
ENCODING 13036
SWIDTH 937 0
DWIDTH 15 0
BBX 13 13 1 1
BITMAP
0F80
3060
4010
4010
8408
8A08
9108
9088
8048
4010
4010
3060
0F80
ENDCHAR
STARTCHAR U+32ED
ENCODING 13037
SWIDTH 937 0
DWIDTH 15 0
BBX 13 13 1 1
BITMAP
0F80
3060
4010
4210
9FC8
8208
8A88
8A88
9248
4210
4010
3060
0F80
ENDCHAR
STARTCHAR U+32EE
ENCODING 13038
SWIDTH 937 0
DWIDTH 15 0
BBX 13 13 1 1
BITMAP
0F80
3060
4010
5FD0
8048
8048
8888
8508
8208
4110
4010
3060
0F80
ENDCHAR
STARTCHAR U+32EF
ENCODING 13039
SWIDTH 937 0
DWIDTH 15 0
BBX 13 13 1 1
BITMAP
0F80
3060
4010
5E10
8188
9C08
8388
8008
9E08
4190
4010
3060
0F80
ENDCHAR
STARTCHAR U+32F0
ENCODING 13040
SWIDTH 937 0
DWIDTH 15 0
BBX 13 13 1 1
BITMAP
0F80
3060
4010
4210
8208
8408
8488
8888
8848
5FD0
4010
3060
0F80
ENDCHAR
STARTCHAR U+32F1
ENCODING 13041
SWIDTH 937 0
DWIDTH 15 0
BBX 13 13 1 1
BITMAP
0F80
3060
4010
4090
8088
8C88
8308
8308
8488
5810
4010
3060
0F80
ENDCHAR
STARTCHAR U+32F2
ENCODING 13042
SWIDTH 937 0
DWIDTH 15 0
BBX 13 13 1 1
BITMAP
0F80
3060
4010
5F90
8408
8408
9FC8
8408
8408
4390
4010
3060
0F80
ENDCHAR
STARTCHAR U+32F3
ENCODING 13043
SWIDTH 937 0
DWIDTH 15 0
BBX 13 13 1 1
BITMAP
0F80
3060
4010
4810
9FC8
8448
8448
8488
8208
4210
4010
3060
0F80
ENDCHAR
STARTCHAR U+32F4
ENCODING 13044
SWIDTH 937 0
DWIDTH 15 0
BBX 13 13 1 1
BITMAP
0F80
3060
4010
4F90
8088
8088
8088
8108
8108
5FD0
4010
3060
0F80
ENDCHAR
STARTCHAR U+32F5
ENCODING 13045
SWIDTH 937 0
DWIDTH 15 0
BBX 13 13 1 1
BITMAP
0F80
3060
4010
5F90
8088
8088
9F88
8088
8088
5F90
4010
3060
0F80
ENDCHAR
STARTCHAR U+32F6
ENCODING 13046
SWIDTH 937 0
DWIDTH 15 0
BBX 13 13 1 1
BITMAP
0F80
3060
4010
4F90
8008
9FC8
8048
8048
8188
4E10
4010
3060
0F80
ENDCHAR
STARTCHAR U+32F7
ENCODING 13047
SWIDTH 937 0
DWIDTH 15 0
BBX 13 13 1 1
BITMAP
0F80
3060
4010
5090
9088
9088
9088
8088
8108
4610
4010
3060
0F80
ENDCHAR
STARTCHAR U+32F8
ENCODING 13048
SWIDTH 937 0
DWIDTH 15 0
BBX 13 13 1 1
BITMAP
0F80
3060
4010
4A10
8A08
8A08
8A48
8A48
8A88
5310
4010
3060
0F80
ENDCHAR
STARTCHAR U+32F9
ENCODING 13049
SWIDTH 937 0
DWIDTH 15 0
BBX 13 13 1 1
BITMAP
0F80
3060
4010
4810
8808
8848
8848
8888
8908
4E10
4010
3060
0F80
ENDCHAR
STARTCHAR U+32FA
ENCODING 13050
SWIDTH 937 0
DWIDTH 15 0
BBX 13 13 1 1
BITMAP
0F80
3060
4010
5F90
9088
9088
9088
9088
9088
5F90
4010
3060
0F80
ENDCHAR
STARTCHAR U+32FB
ENCODING 13051
SWIDTH 937 0
DWIDTH 15 0
BBX 13 13 1 1
BITMAP
0F80
3060
4010
5F90
9088
9088
8088
8088
8108
4E10
4010
3060
0F80
ENDCHAR
STARTCHAR U+32FC
ENCODING 13052
SWIDTH 937 0
DWIDTH 15 0
BBX 13 13 1 1
BITMAP
0F80
3060
4010
4110
9FC8
8908
8908
9FC8
8108
4110
4010
3060
0F80
ENDCHAR
STARTCHAR U+32FD
ENCODING 13053
SWIDTH 937 0
DWIDTH 15 0
BBX 13 13 1 1
BITMAP
0F80
3060
4010
4F90
8088
8308
8208
8208
8208
5FD0
4010
3060
0F80
ENDCHAR
STARTCHAR U+32FE
ENCODING 13054
SWIDTH 937 0
DWIDTH 15 0
BBX 13 13 1 1
BITMAP
0F80
3060
4010
5F90
8088
9F88
8088
8088
8108
4E10
4010
3060
0F80
ENDCHAR
STARTCHAR U+3303
ENCODING 13059
SWIDTH 937 0
DWIDTH 15 0
BBX 14 13 0 0
BITMAP
FE00
0200
2400
28FC
2000
4000
8000
2800
2800
2800
2900
4900
8E00
ENDCHAR
STARTCHAR U+330D
ENCODING 13069
SWIDTH 937 0
DWIDTH 15 0
BBX 14 14 0 0
BITMAP
2000
FE7C
2244
2244
2244
4244
8C7C
0000
4200
4200
427C
0200
0400
3800
ENDCHAR
STARTCHAR U+3314
ENCODING 13076
SWIDTH 937 0
DWIDTH 15 0
BBX 13 14 0 0
BITMAP
2000
2000
FC00
1000
1000
FE00
0800
09F8
0108
0108
0108
0108
0108
01F8
ENDCHAR
STARTCHAR U+3318
ENCODING 13080
SWIDTH 937 0
DWIDTH 15 0
BBX 14 14 0 0
BITMAP
0500
2578
3E00
42FC
8204
0404
0808
7030
0000
1000
2000
4400
8600
F900
ENDCHAR
STARTCHAR U+3322
ENCODING 13090
SWIDTH 937 0
DWIDTH 15 0
BBX 14 14 0 0
BITMAP
4080
4040
FE04
4404
4808
4030
3CC0
0000
7C00
1000
FE00
1000
1000
6000
ENDCHAR
STARTCHAR U+3323
ENCODING 13091
SWIDTH 937 0
DWIDTH 15 0
BBX 14 14 0 0
BITMAP
4080
4040
FE04
4404
4804
4018
3CE0
0000
2000
2000
3800
2600
2000
2000
ENDCHAR
STARTCHAR U+3326
ENCODING 13094
SWIDTH 937 0
DWIDTH 15 0
BBX 13 14 1 0
BITMAP
8000
9400
9400
E000
9800
8000
8000
8140
0140
0140
0140
0148
0248
0470
ENDCHAR
STARTCHAR U+3327
ENCODING 13095
SWIDTH 937 0
DWIDTH 15 0
BBX 12 13 1 0
BITMAP
8000
8000
8000
C000
A000
9000
8200
8100
0010
0010
0010
0060
0380
ENDCHAR
STARTCHAR U+332B
ENCODING 13099
SWIDTH 937 0
DWIDTH 15 0
BBX 14 14 0 0
BITMAP
0200
2500
2600
247C
4200
8100
0000
4210
F910
4810
485C
5050
4090
3B10
ENDCHAR
STARTCHAR U+3336
ENCODING 13110
SWIDTH 937 0
DWIDTH 15 0
BBX 14 14 0 0
BITMAP
0020
203C
5044
8884
0404
0208
0030
4000
7850
C850
2B50
1854
1054
E098
ENDCHAR
STARTCHAR U+333B
ENCODING 13115
SWIDTH 937 0
DWIDTH 15 0
BBX 14 14 0 0
BITMAP
0200
3500
4A00
847C
0200
0100
0000
4500
2500
8000
4200
0200
0C00
F000
ENDCHAR
STARTCHAR U+3349
ENCODING 13129
SWIDTH 937 0
DWIDTH 15 0
BBX 12 14 1 0
BITMAP
E000
1800
0000
E000
1800
0000
E000
1A10
0210
0210
0210
0010
0020
00C0
ENDCHAR
STARTCHAR U+334A
ENCODING 13130
SWIDTH 937 0
DWIDTH 15 0
BBX 14 14 0 0
BITMAP
E108
1908
E108
1808
E010
1860
0000
0A50
5A50
5050
5750
5054
8854
8898
ENDCHAR
STARTCHAR U+334D
ENCODING 13133
SWIDTH 937 0
DWIDTH 15 0
BBX 14 13 0 0
BITMAP
0200
2200
1400
08FC
3400
C000
0000
20A0
20A0
30A0
2CA4
2128
2230
ENDCHAR
STARTCHAR U+3351
ENCODING 13137
SWIDTH 937 0
DWIDTH 15 0
BBX 14 14 0 0
BITMAP
8400
84A8
84A8
0408
0810
3060
0000
40A0
40A0
60A0
50A0
48A4
4124
4238
ENDCHAR
STARTCHAR U+3357
ENCODING 13143
SWIDTH 937 0
DWIDTH 15 0
BBX 14 13 0 0
BITMAP
FE00
8254
8254
0204
0408
1830
4000
4000
4000
7000
4C00
4000
4000
ENDCHAR
STARTCHAR U+337B
ENCODING 13179
SWIDTH 937 0
DWIDTH 15 0
BBX 14 14 0 0
BITMAP
0010
FE14
11FC
5510
5510
5514
5514
55D4
1154
FF54
1158
1148
124C
12D4
ENDCHAR
STARTCHAR U+337C
ENCODING 13180
SWIDTH 937 0
DWIDTH 15 0
BBX 14 13 0 0
BITMAP
1E30
EAC0
AA5C
AA54
B2F4
B654
E054
AEF4
AAD4
AA54
AA54
EA5C
0E40
ENDCHAR
STARTCHAR U+337D
ENCODING 13181
SWIDTH 937 0
DWIDTH 15 0
BBX 14 14 0 0
BITMAP
1000
10FC
1010
FE10
1010
1010
105C
2850
2850
2850
4450
4450
4450
82FC
ENDCHAR
STARTCHAR U+337E
ENCODING 13182
SWIDTH 937 0
DWIDTH 15 0
BBX 14 14 0 0
BITMAP
0E88
EA48
AA48
AA10
AA90
AE54
EA54
AA1C
AA00
AE5C
AA54
EA54
1294
169C
ENDCHAR
STARTCHAR U+3380
ENCODING 13184
SWIDTH 937 0
DWIDTH 15 0
BBX 13 16 1 -2
BITMAP
0040
0040
0040
00A0
B0A0
C8A0
8910
8910
8910
89F0
8A08
CA08
B208
8208
8000
8000
ENDCHAR
STARTCHAR U+3381
ENCODING 13185
SWIDTH 937 0
DWIDTH 15 0
BBX 13 14 1 0
BITMAP
0040
0040
0040
00A0
B0A0
C8A0
8910
8910
8910
89F0
8A08
8A08
8A08
8A08
ENDCHAR
STARTCHAR U+3382
ENCODING 13186
SWIDTH 937 0
DWIDTH 15 0
BBX 13 16 1 -2
BITMAP
0040
0040
0040
00A0
88A0
88A0
8910
8910
8910
89F0
8A08
9A08
E608
8208
8000
8000
ENDCHAR
STARTCHAR U+3383
ENCODING 13187
SWIDTH 937 0
DWIDTH 15 0
BBX 13 14 1 0
BITMAP
0040
0040
0040
00A0
D0A0
A8A0
A910
A910
A910
A9F0
AA08
AA08
AA08
AA08
ENDCHAR
STARTCHAR U+3384
ENCODING 13188
SWIDTH 937 0
DWIDTH 15 0
BBX 13 14 1 0
BITMAP
8040
8040
8040
80A0
84A0
88A0
9110
A110
C110
C1F0
A208
9208
8A08
8608
ENDCHAR
STARTCHAR U+3388
ENCODING 13192
SWIDTH 937 0
DWIDTH 15 0
BBX 11 14 1 0
BITMAP
0020
0020
0020
0020
6320
94A0
94A0
80A0
83A0
84A0
84A0
94A0
94A0
63A0
ENDCHAR
STARTCHAR U+3389
ENCODING 13193
SWIDTH 937 0
DWIDTH 15 0
BBX 13 14 1 0
BITMAP
8008
8008
8008
8008
A6C8
A828
A828
C828
C868
C8A8
A8A8
A8A8
A8A8
A668
ENDCHAR
STARTCHAR U+338A
ENCODING 13194
SWIDTH 937 0
DWIDTH 15 0
BBX 13 16 1 -2
BITMAP
01F8
0100
0100
0100
B900
C500
85F8
8500
8500
8500
8500
C500
B900
8100
8000
8000
ENDCHAR
STARTCHAR U+338B
ENCODING 13195
SWIDTH 937 0
DWIDTH 15 0
BBX 13 14 1 0
BITMAP
01F8
0100
0100
0100
B900
C500
85F8
8500
8500
8500
8500
8500
8500
8500
ENDCHAR
STARTCHAR U+338C
ENCODING 13196
SWIDTH 937 0
DWIDTH 15 0
BBX 13 16 1 -2
BITMAP
01F8
0100
0100
0100
8500
8500
85F8
8500
8500
8500
8500
8D00
F300
8100
8000
8000
ENDCHAR
STARTCHAR U+338D
ENCODING 13197
SWIDTH 937 0
DWIDTH 15 0
BBX 13 12 1 -2
BITMAP
84E8
8518
8508
8508
8508
8508
8508
8D18
F2E8
8008
8108
80F0
ENDCHAR
STARTCHAR U+338E
ENCODING 13198
SWIDTH 937 0
DWIDTH 15 0
BBX 13 12 1 -2
BITMAP
A8E8
D518
9508
9508
9508
9508
9508
9518
94E8
9408
0108
00F0
ENDCHAR
STARTCHAR U+338F
ENCODING 13199
SWIDTH 937 0
DWIDTH 15 0
BBX 13 16 1 -2
BITMAP
8000
8000
8000
8000
84E8
8918
9108
A108
C108
C108
A108
9118
88E8
8408
0108
00F0
ENDCHAR
STARTCHAR U+3390
ENCODING 13200
SWIDTH 937 0
DWIDTH 15 0
BBX 13 14 1 0
BITMAP
8400
8400
8400
8400
85F8
8410
FC10
8420
8420
8440
8440
8480
8480
85F8
ENDCHAR
STARTCHAR U+3391
ENCODING 13201
SWIDTH 937 0
DWIDTH 15 0
BBX 13 14 1 0
BITMAP
8480
8480
8480
8480
94F8
9488
A788
A490
C490
C4A0
A4A0
A4C0
94C0
94F8
ENDCHAR
STARTCHAR U+3392
ENCODING 13202
SWIDTH 937 0
DWIDTH 15 0
BBX 13 14 1 0
BITMAP
8900
8900
D900
D900
D978
A908
AF08
A910
A910
8920
8920
8940
8940
8978
ENDCHAR
STARTCHAR U+3393
ENCODING 13203
SWIDTH 937 0
DWIDTH 15 0
BBX 13 14 1 0
BITMAP
6480
9480
9480
8480
84F8
8488
B788
9490
9490
94A0
94A0
94C0
94C0
64F8
ENDCHAR
STARTCHAR U+3394
ENCODING 13204
SWIDTH 937 0
DWIDTH 15 0
BBX 13 14 1 0
BITMAP
FC80
2480
2480
2480
24F8
2488
2788
2490
2490
24A0
24A0
24C0
24C0
24F8
ENDCHAR
STARTCHAR U+3395
ENCODING 13205
SWIDTH 937 0
DWIDTH 15 0
BBX 13 16 1 -2
BITMAP
0060
0090
0090
0090
8890
8890
8890
8890
88A0
88A0
88C0
9880
E548
8030
8000
8000
ENDCHAR
STARTCHAR U+3396
ENCODING 13206
SWIDTH 937 0
DWIDTH 15 0
BBX 13 14 1 0
BITMAP
0060
0090
0090
0090
A890
D490
9490
9490
94A0
94A0
94C0
9480
9548
9430
ENDCHAR
STARTCHAR U+3397
ENCODING 13207
SWIDTH 937 0
DWIDTH 15 0
BBX 13 14 1 0
BITMAP
0460
0490
0490
0490
7490
8C90
8490
8490
84A0
84A0
84C0
8480
8D48
7430
ENDCHAR
STARTCHAR U+3398
ENCODING 13208
SWIDTH 937 0
DWIDTH 15 0
BBX 13 14 1 0
BITMAP
8060
8090
8090
8090
8490
8890
9090
A090
C0A0
C0A0
A0C0
9080
8948
8430
ENDCHAR
STARTCHAR U+3399
ENCODING 13209
SWIDTH 937 0
DWIDTH 15 0
BBX 13 14 1 0
BITMAP
1800
2000
2000
2000
FA90
2368
2248
2248
2248
2248
2248
2248
2248
2248
ENDCHAR
STARTCHAR U+339A
ENCODING 13210
SWIDTH 937 0
DWIDTH 15 0
BBX 13 10 1 0
BITMAP
B950
C5A8
8528
8528
8528
8528
8528
8528
8528
8528
ENDCHAR
STARTCHAR U+339B
ENCODING 13211
SWIDTH 937 0
DWIDTH 15 0
BBX 13 12 1 -2
BITMAP
8550
85A8
8528
8528
8528
8528
8528
8D28
F328
8128
8000
8000
ENDCHAR
STARTCHAR U+339C
ENCODING 13212
SWIDTH 937 0
DWIDTH 15 0
BBX 13 10 1 0
BITMAP
A950
D5A8
9528
9528
9528
9528
9528
9528
9528
9528
ENDCHAR
STARTCHAR U+339D
ENCODING 13213
SWIDTH 937 0
DWIDTH 15 0
BBX 13 10 1 0
BITMAP
7950
85A8
8528
8128
8128
8128
8128
8528
8528
7928
ENDCHAR
STARTCHAR U+339E
ENCODING 13214
SWIDTH 937 0
DWIDTH 15 0
BBX 13 14 1 0
BITMAP
8000
8000
8000
8000
8550
89A8
9128
A128
C128
C128
A128
9128
8928
8528
ENDCHAR
STARTCHAR U+339F
ENCODING 13215
SWIDTH 937 0
DWIDTH 15 0
BBX 13 15 1 0
BITMAP
0030
0008
0010
0038
0000
A950
D5A8
9528
9528
9528
9528
9528
9528
9528
9528
ENDCHAR
STARTCHAR U+33A0
ENCODING 13216
SWIDTH 937 0
DWIDTH 15 0
BBX 13 15 1 0
BITMAP
0030
0008
0010
0038
0000
7950
85A8
8528
8128
8128
8128
8128
8528
8528
7928
ENDCHAR
STARTCHAR U+33A1
ENCODING 13217
SWIDTH 937 0
DWIDTH 15 0
BBX 13 15 1 0
BITMAP
0030
0008
0010
0038
0000
B300
CC80
8880
8880
8880
8880
8880
8880
8880
8880
ENDCHAR
STARTCHAR U+33A2
ENCODING 13218
SWIDTH 937 0
DWIDTH 15 0
BBX 13 15 1 0
BITMAP
0030
8008
8010
8038
8000
8550
89A8
9128
A128
C128
C128
A128
9128
8928
8528
ENDCHAR
STARTCHAR U+33A3
ENCODING 13219
SWIDTH 937 0
DWIDTH 15 0
BBX 13 15 1 0
BITMAP
0038
0010
0008
0030
0000
A950
D5A8
9528
9528
9528
9528
9528
9528
9528
9528
ENDCHAR
STARTCHAR U+33A4
ENCODING 13220
SWIDTH 937 0
DWIDTH 15 0
BBX 13 15 1 0
BITMAP
0038
0010
0008
0030
0000
7950
85A8
8528
8128
8128
8128
8128
8528
8528
7928
ENDCHAR
STARTCHAR U+33A5
ENCODING 13221
SWIDTH 937 0
DWIDTH 15 0
BBX 13 15 1 0
BITMAP
0038
0010
0008
0030
0000
B300
CC80
8880
8880
8880
8880
8880
8880
8880
8880
ENDCHAR
STARTCHAR U+33A6
ENCODING 13222
SWIDTH 937 0
DWIDTH 15 0
BBX 13 15 1 0
BITMAP
0038
8010
8008
8030
8000
8550
89A8
9128
A128
C128
C128
A128
9128
8928
8528
ENDCHAR
STARTCHAR U+33A7
ENCODING 13223
SWIDTH 937 0
DWIDTH 15 0
BBX 13 14 1 0
BITMAP
0100
0100
0100
0100
D270
AA88
AA88
AA80
AA70
AA08
AC08
AC88
AC88
AC70
ENDCHAR
STARTCHAR U+33A8
ENCODING 13224
SWIDTH 937 0
DWIDTH 15 0
BBX 13 15 1 0
BITMAP
0030
0108
0110
0138
0100
D270
AA88
AA88
AA80
AA70
AA08
AC08
AC88
AC88
AC70
ENDCHAR
STARTCHAR U+33A9
ENCODING 13225
SWIDTH 937 0
DWIDTH 15 0
BBX 13 14 1 0
BITMAP
F800
8400
8400
8400
84F0
8508
8508
F808
80F8
8108
8108
8108
8118
80E8
ENDCHAR
STARTCHAR U+33AA
ENCODING 13226
SWIDTH 937 0
DWIDTH 15 0
BBX 13 14 1 0
BITMAP
8700
8480
8480
8480
94F0
9488
A488
A738
C448
C448
A448
A448
9448
9438
ENDCHAR
STARTCHAR U+33AB
ENCODING 13227
SWIDTH 937 0
DWIDTH 15 0
BBX 13 14 1 0
BITMAP
8E00
8900
D900
D900
D970
A908
A908
AE38
A848
8848
8848
8848
8848
8838
ENDCHAR
STARTCHAR U+33AC
ENCODING 13228
SWIDTH 937 0
DWIDTH 15 0
BBX 13 14 1 0
BITMAP
6700
9480
9480
8480
84F0
8488
B488
9738
9448
9448
9448
9448
9448
6438
ENDCHAR
STARTCHAR U+33AD
ENCODING 13229
SWIDTH 937 0
DWIDTH 15 0
BBX 13 14 1 0
BITMAP
0008
0008
0008
0008
B638
C948
8948
8148
8748
8948
8948
8948
8948
8738
ENDCHAR
STARTCHAR U+33AE
ENCODING 13230
SWIDTH 937 0
DWIDTH 15 0
BBX 13 14 1 0
BITMAP
00A0
00A0
00A0
00C0
B1C0
CAC0
9AC0
AA98
AAA0
AAA0
9990
0108
0108
0130
ENDCHAR
STARTCHAR U+33AF
ENCODING 13231
SWIDTH 937 0
DWIDTH 15 0
BBX 13 14 1 0
BITMAP
00A0
00A0
00A0
00C0
B1F0
CAC8
9AD0
AAB8
AA80
AA98
99A0
0110
0108
0130
ENDCHAR
STARTCHAR U+33B0
ENCODING 13232
SWIDTH 937 0
DWIDTH 15 0
BBX 13 12 1 -2
BITMAP
B8F0
C508
8508
8500
84F0
8408
8408
C508
B908
80F0
8000
8000
ENDCHAR
STARTCHAR U+33B1
ENCODING 13233
SWIDTH 937 0
DWIDTH 15 0
BBX 13 10 1 0
BITMAP
B8F0
C508
8508
8500
84F0
8408
8408
8508
8508
84F0
ENDCHAR
STARTCHAR U+33B2
ENCODING 13234
SWIDTH 937 0
DWIDTH 15 0
BBX 13 12 1 -2
BITMAP
84F0
8508
8508
8500
84F0
8408
8408
8D08
F308
80F0
8000
8000
ENDCHAR
STARTCHAR U+33B3
ENCODING 13235
SWIDTH 937 0
DWIDTH 15 0
BBX 13 10 1 0
BITMAP
A8F0
D508
9508
9500
94F0
9408
9408
9508
9508
94F0
ENDCHAR
STARTCHAR U+33B4
ENCODING 13236
SWIDTH 937 0
DWIDTH 15 0
BBX 13 16 1 -2
BITMAP
0208
0208
0208
0208
B910
C510
8510
8510
84A0
84A0
84A0
C440
B840
8040
8000
8000
ENDCHAR
STARTCHAR U+33B5
ENCODING 13237
SWIDTH 937 0
DWIDTH 15 0
BBX 13 14 1 0
BITMAP
0208
0208
0208
0208
B910
C510
8510
8510
84A0
84A0
84A0
8440
8440
8440
ENDCHAR
STARTCHAR U+33B6
ENCODING 13238
SWIDTH 937 0
DWIDTH 15 0
BBX 13 16 1 -2
BITMAP
0208
0208
0208
0208
8510
8510
8510
8510
84A0
84A0
84A0
8C40
F240
8040
8000
8000
ENDCHAR
STARTCHAR U+33B7
ENCODING 13239
SWIDTH 937 0
DWIDTH 15 0
BBX 13 14 1 0
BITMAP
0208
0208
0208
0208
A910
D510
9510
9510
94A0
94A0
94A0
9440
9440
9440
ENDCHAR
STARTCHAR U+33B8
ENCODING 13240
SWIDTH 937 0
DWIDTH 15 0
BBX 13 14 1 0
BITMAP
8208
8208
8208
8208
8510
8910
9110
A110
C0A0
C0A0
A0A0
9040
8840
8440
ENDCHAR
STARTCHAR U+33B9
ENCODING 13241
SWIDTH 937 0
DWIDTH 15 0
BBX 13 14 1 0
BITMAP
8A08
8A08
DA08
DA08
D910
A910
A910
A910
A8A0
88A0
88A0
8840
8840
8840
ENDCHAR
STARTCHAR U+33BA
ENCODING 13242
SWIDTH 937 0
DWIDTH 15 0
BBX 13 16 1 -2
BITMAP
0888
0888
0888
0888
E888
9888
9550
9550
9550
9550
9550
9220
E220
8220
8000
8000
ENDCHAR
STARTCHAR U+33BB
ENCODING 13243
SWIDTH 937 0
DWIDTH 15 0
BBX 13 14 1 0
BITMAP
0888
0888
0888
0888
E888
9888
9550
9550
9550
9550
9550
9220
9220
9220
ENDCHAR
STARTCHAR U+33BC
ENCODING 13244
SWIDTH 937 0
DWIDTH 15 0
BBX 13 16 1 -2
BITMAP
0888
0888
0888
0888
9888
9888
9550
9550
9550
9550
9550
9220
EA20
8220
8000
8000
ENDCHAR
STARTCHAR U+33BD
ENCODING 13245
SWIDTH 937 0
DWIDTH 15 0
BBX 13 14 1 0
BITMAP
0888
0888
0888
0888
D888
A888
AD50
AD50
AD50
AD50
AD50
AA20
AA20
AA20
ENDCHAR
STARTCHAR U+33BE
ENCODING 13246
SWIDTH 937 0
DWIDTH 15 0
BBX 13 14 1 0
BITMAP
8888
8888
8888
8888
9888
9888
A550
A550
C550
C550
A550
A220
9220
9220
ENDCHAR
STARTCHAR U+33BF
ENCODING 13247
SWIDTH 937 0
DWIDTH 15 0
BBX 13 14 1 0
BITMAP
8888
8888
D888
D888
D888
A888
AD50
AD50
AD50
8D50
8D50
8A20
8A20
8A20
ENDCHAR
STARTCHAR U+33C0
ENCODING 13248
SWIDTH 937 0
DWIDTH 15 0
BBX 13 14 1 0
BITMAP
81E0
8210
8408
8408
9408
9408
A408
A408
C408
C408
A210
A120
9120
9738
ENDCHAR
STARTCHAR U+33C1
ENCODING 13249
SWIDTH 937 0
DWIDTH 15 0
BBX 13 14 1 0
BITMAP
88E0
8910
DA08
DA08
DA08
AA08
AA08
AA08
AA08
8A08
8910
88A0
88A0
8BB8
ENDCHAR
STARTCHAR U+33C2
ENCODING 13250
SWIDTH 937 0
DWIDTH 15 0
BBX 12 10 1 0
BITMAP
E1E0
1150
1150
7150
9150
9150
9150
9150
9150
7550
ENDCHAR
STARTCHAR U+33C3
ENCODING 13251
SWIDTH 937 0
DWIDTH 15 0
BBX 13 16 1 -2
BITMAP
F800
8400
8400
8400
84E8
8518
F908
8508
8508
8508
8508
8518
84E8
F808
0008
0008
ENDCHAR
STARTCHAR U+33C4
ENCODING 13252
SWIDTH 937 0
DWIDTH 15 0
BBX 13 10 1 0
BITMAP
78F0
8508
8508
8100
8100
8100
8100
8508
8508
78F0
ENDCHAR
STARTCHAR U+33C5
ENCODING 13253
SWIDTH 937 0
DWIDTH 15 0
BBX 13 14 1 0
BITMAP
0008
0008
0008
0008
78E8
8518
8508
8108
8108
8108
8108
8508
8518
78E8
ENDCHAR
STARTCHAR U+33C6
ENCODING 13254
SWIDTH 937 0
DWIDTH 15 0
BBX 13 16 1 -2
BITMAP
6400
8400
8400
8800
8938
8948
6A48
1A48
1C48
1C48
1A48
2A48
2938
2908
0048
0030
ENDCHAR
STARTCHAR U+33C7
ENCODING 13255
SWIDTH 937 0
DWIDTH 15 0
BBX 13 14 1 0
BITMAP
7800
8400
8400
8000
80E0
8110
8110
8110
8110
8110
8110
8510
8510
78E8
ENDCHAR
STARTCHAR U+33C8
ENCODING 13256
SWIDTH 937 0
DWIDTH 15 0
BBX 13 14 1 0
BITMAP
05F0
0508
0508
0508
7508
8D08
85F0
8508
8508
8508
8508
8508
8D08
75F0
ENDCHAR
STARTCHAR U+33C9
ENCODING 13257
SWIDTH 937 0
DWIDTH 15 0
BBX 12 16 1 -2
BITMAP
7800
8400
8400
8000
8110
8110
9D10
8510
84A0
84A0
84A0
84A0
8440
7840
0040
0180
ENDCHAR
STARTCHAR U+33CA
ENCODING 13258
SWIDTH 937 0
DWIDTH 15 0
BBX 13 14 1 0
BITMAP
8000
8000
8000
8000
B8F0
C508
8508
8408
84F8
8508
8508
8508
8518
84E8
ENDCHAR
STARTCHAR U+33CD
ENCODING 13261
SWIDTH 937 0
DWIDTH 15 0
BBX 13 14 1 0
BITMAP
8A20
8A20
8A20
9240
9240
A280
E380
A280
A280
9240
9240
8A20
8A20
8A28
ENDCHAR
STARTCHAR U+33CF
ENCODING 13263
SWIDTH 937 0
DWIDTH 15 0
BBX 12 14 1 0
BITMAP
8000
8040
8040
8040
85F0
8840
9040
A040
C040
C040
A040
9040
8840
8430
ENDCHAR
STARTCHAR U+33D0
ENCODING 13264
SWIDTH 937 0
DWIDTH 15 0
BBX 10 14 3 0
BITMAP
8000
8000
8000
8000
9480
9B40
9240
9240
9240
9240
9240
9240
9240
9240
ENDCHAR
STARTCHAR U+33D3
ENCODING 13267
SWIDTH 937 0
DWIDTH 15 0
BBX 10 14 3 0
BITMAP
8000
8000
8000
8000
9040
9040
8880
8500
8200
8500
8880
8880
9040
9040
ENDCHAR
STARTCHAR U+33D6
ENCODING 13270
SWIDTH 937 0
DWIDTH 15 0
BBX 12 14 1 0
BITMAP
8810
8810
D810
D810
D990
AA50
AA50
AA50
AA50
8A50
8A50
8A50
8A50
8990
ENDCHAR
STARTCHAR U+33D8
ENCODING 13272
SWIDTH 937 0
DWIDTH 15 0
BBX 12 12 1 -2
BITMAP
E1E0
9150
9150
9150
9150
9150
9150
9150
E150
8550
8000
8000
ENDCHAR
STARTCHAR U+33DB
ENCODING 13275
SWIDTH 937 0
DWIDTH 15 0
BBX 11 10 2 0
BITMAP
7960
8580
8500
8100
7900
0500
0500
8500
8500
7900
ENDCHAR
STARTCHAR U+33DC
ENCODING 13276
SWIDTH 937 0
DWIDTH 15 0
BBX 12 14 1 0
BITMAP
7800
8400
8400
8000
8110
8110
7910
0510
04A0
04A0
04A0
8440
8440
7840
ENDCHAR
STARTCHAR U+33DD
ENCODING 13277
SWIDTH 937 0
DWIDTH 15 0
BBX 13 14 1 0
BITMAP
8880
8880
8880
8880
88B0
88C8
5588
5588
5588
5588
5588
2288
22C8
22B0
ENDCHAR
STARTCHAR U+4E00
ENCODING 19968
SWIDTH 937 0
DWIDTH 15 0
BBX 13 1 1 7
BITMAP
FFF8
ENDCHAR
STARTCHAR U+4E01
ENCODING 19969
SWIDTH 937 0
DWIDTH 15 0
BBX 13 13 1 1
BITMAP
FFF8
0200
0200
0200
0200
0200
0200
0200
0200
0200
0200
0200
1E00
ENDCHAR
STARTCHAR U+4E03
ENCODING 19971
SWIDTH 937 0
DWIDTH 15 0
BBX 13 13 1 1
BITMAP
2000
2000
2000
2018
21E0
FE00
2000
2000
2000
2010
2010
2010
3FF0
ENDCHAR
STARTCHAR U+4E07
ENCODING 19975
SWIDTH 937 0
DWIDTH 15 0
BBX 13 13 1 1
BITMAP
FFF8
1000
1000
1000
1000
1FF0
1010
1010
1010
2010
2010
4010
81E0
ENDCHAR
STARTCHAR U+4E08
ENCODING 19976
SWIDTH 937 0
DWIDTH 15 0
BBX 13 13 1 1
BITMAP
0100
0100
FFF8
0100
0100
0100
2100
1200
0A00
0600
0980
3060
C018
ENDCHAR
STARTCHAR U+4E09
ENCODING 19977
SWIDTH 937 0
DWIDTH 15 0
BBX 13 11 1 2
BITMAP
FFF8
0000
0000
0000
0000
7FF0
0000
0000
0000
0000
FFF8
ENDCHAR
STARTCHAR U+4E0A
ENCODING 19978
SWIDTH 937 0
DWIDTH 15 0
BBX 13 13 1 1
BITMAP
0400
0400
0400
0400
0400
07F0
0400
0400
0400
0400
0400
0400
FFF8
ENDCHAR
STARTCHAR U+4E0B
ENCODING 19979
SWIDTH 937 0
DWIDTH 15 0
BBX 13 13 1 1
BITMAP
FFF8
0400
0400
0400
0500
0480
0440
0420
0410
0400
0400
0400
0400
ENDCHAR
STARTCHAR U+4E0D
ENCODING 19981
SWIDTH 937 0
DWIDTH 15 0
BBX 13 13 1 1
BITMAP
FFF8
0100
0100
0200
0600
0A80
1240
2220
C210
0208
0200
0200
0200
ENDCHAR
STARTCHAR U+4E0E
ENCODING 19982
SWIDTH 937 0
DWIDTH 15 0
BBX 13 13 1 1
BITMAP
2000
2000
3FF0
4000
4000
7FE0
0020
0020
FFF8
0020
0020
0020
07C0
ENDCHAR
STARTCHAR U+4E10
ENCODING 19984
SWIDTH 937 0
DWIDTH 15 0
BBX 13 13 1 1
BITMAP
FFF0
0200
4200
4200
43F0
4200
4200
4200
7FF8
0008
0008
0008
00F0
ENDCHAR
STARTCHAR U+4E11
ENCODING 19985
SWIDTH 937 0
DWIDTH 15 0
BBX 13 13 1 1
BITMAP
7FE0
0820
0820
0820
0820
FFF8
1020
1020
1020
1020
1020
1020
FFF8
ENDCHAR
STARTCHAR U+4E14
ENCODING 19988
SWIDTH 937 0
DWIDTH 15 0
BBX 13 13 1 1
BITMAP
7FF0
4010
4010
4010
7FF0
4010
4010
4010
7FF0
4010
4010
4010
FFF8
ENDCHAR
STARTCHAR U+4E15
ENCODING 19989
SWIDTH 937 0
DWIDTH 15 0
BBX 13 13 1 1
BITMAP
FFF0
0200
0400
0D00
1480
2440
4420
8410
0400
0400
0400
0000
FFF8
ENDCHAR
STARTCHAR U+4E16
ENCODING 19990
SWIDTH 937 0
DWIDTH 15 0
BBX 13 13 1 1
BITMAP
2220
2220
2220
FFF8
2220
2220
2220
2220
2220
23E0
2000
2000
3FF8
ENDCHAR
STARTCHAR U+4E17
ENCODING 19991
SWIDTH 937 0
DWIDTH 15 0
BBX 13 13 1 1
BITMAP
2220
2220
2220
2220
FFF8
2220
2220
2220
2220
2220
2220
2220
3FE0
ENDCHAR
STARTCHAR U+4E18
ENCODING 19992
SWIDTH 937 0
DWIDTH 15 0
BBX 13 13 1 1
BITMAP
00E0
7F00
4000
4000
4000
7FF0
4080
4080
4080
4080
4080
4080
FFF8
ENDCHAR
STARTCHAR U+4E19
ENCODING 19993
SWIDTH 937 0
DWIDTH 15 0
BBX 13 13 1 1
BITMAP
FFF8
0200
0200
FFF8
8208
8508
8488
8888
8848
9048
8008
8008
8078
ENDCHAR
STARTCHAR U+4E1E
ENCODING 19998
SWIDTH 937 0
DWIDTH 15 0
BBX 13 13 1 1
BITMAP
7FE0
0040
0180
FA08
0A90
0AA0
1240
2220
4210
8208
0E00
0000
FFF8
ENDCHAR
STARTCHAR U+4E21
ENCODING 20001
SWIDTH 937 0
DWIDTH 15 0
BBX 13 13 1 1
BITMAP
FFF8
0200
0200
FFF8
8208
8208
9248
9248
9248
9248
9FC8
8008
8038
ENDCHAR
STARTCHAR U+4E26
ENCODING 20006
SWIDTH 937 0
DWIDTH 15 0
BBX 13 13 1 1
BITMAP
2020
1040
0000
FFF8
0880
4890
4890
2890
28A0
28A0
0880
0880
FFF8
ENDCHAR
STARTCHAR U+4E2A
ENCODING 20010
SWIDTH 937 0
DWIDTH 15 0
BBX 13 13 1 1
BITMAP
0200
0500
0880
1040
2020
4010
8208
0200
0200
0200
0200
0200
0200
ENDCHAR
STARTCHAR U+4E2D
ENCODING 20013
SWIDTH 937 0
DWIDTH 15 0
BBX 13 13 1 1
BITMAP
0200
0200
FFF8
8208
8208
8208
8208
8208
FFF8
0200
0200
0200
0200
ENDCHAR
STARTCHAR U+4E31
ENCODING 20017
SWIDTH 937 0
DWIDTH 15 0
BBX 12 13 1 1
BITMAP
0900
8910
8910
8910
8910
8910
8910
8910
F9F0
0900
0900
1100
6100
ENDCHAR
STARTCHAR U+4E32
ENCODING 20018
SWIDTH 937 0
DWIDTH 15 0
BBX 13 13 1 1
BITMAP
0200
7FF0
4210
4210
7FF0
0200
0200
FFF8
8208
8208
FFF8
0200
0200
ENDCHAR
STARTCHAR U+4E36
ENCODING 20022
SWIDTH 937 0
DWIDTH 15 0
BBX 6 6 4 5
BITMAP
80
40
20
10
08
04
ENDCHAR
STARTCHAR U+4E38
ENCODING 20024
SWIDTH 937 0
DWIDTH 15 0
BBX 13 13 1 1
BITMAP
0800
0800
0800
FFC0
0840
0840
6840
1840
0840
1448
2248
4048
8078
ENDCHAR
STARTCHAR U+4E39
ENCODING 20025
SWIDTH 937 0
DWIDTH 15 0
BBX 13 13 1 1
BITMAP
7FF0
4010
4410
4210
4110
4110
4010
FFF8
4010
4010
4010
4010
8070
ENDCHAR
STARTCHAR U+4E3B
ENCODING 20027
SWIDTH 937 0
DWIDTH 15 0
BBX 13 13 1 1
BITMAP
0800
0400
0200
FFF8
0200
0200
0200
7FF0
0200
0200
0200
0200
FFF8
ENDCHAR
STARTCHAR U+4E3C
ENCODING 20028
SWIDTH 937 0
DWIDTH 15 0
BBX 13 13 1 1
BITMAP
2040
2040
FFF0
2040
2440
2240
2040
2040
FFF8
2040
2040
4040
8040
ENDCHAR
STARTCHAR U+4E3F
ENCODING 20031
SWIDTH 937 0
DWIDTH 15 0
BBX 3 13 5 1
BITMAP
20
20
20
20
20
20
20
20
20
20
40
40
80
ENDCHAR
STARTCHAR U+4E42
ENCODING 20034
SWIDTH 937 0
DWIDTH 15 0
BBX 13 13 1 1
BITMAP
4020
4020
2020
2040
1040
1080
0880
0500
0200
0700
0880
3060
C018
ENDCHAR
STARTCHAR U+4E43
ENCODING 20035
SWIDTH 937 0
DWIDTH 15 0
BBX 13 13 1 1
BITMAP
FFE0
1020
1020
1040
1040
1078
1008
1008
2008
2008
4008
4008
80F0
ENDCHAR
STARTCHAR U+4E45
ENCODING 20037
SWIDTH 937 0
DWIDTH 15 0
BBX 13 13 1 1
BITMAP
1000
1000
1FC0
2040
4040
8080
0080
0100
0200
0500
0880
3060
C018
ENDCHAR
STARTCHAR U+4E4B
ENCODING 20043
SWIDTH 937 0
DWIDTH 15 0
BBX 13 13 1 1
BITMAP
0200
0200
FFF0
0010
0020
0040
0180
0600
1800
2000
5800
8700
00F8
ENDCHAR
STARTCHAR U+4E4D
ENCODING 20045
SWIDTH 937 0
DWIDTH 15 0
BBX 13 13 1 1
BITMAP
2000
3FF8
2400
4400
4400
87F8
0400
0400
0400
07F8
0400
0400
0400
ENDCHAR
STARTCHAR U+4E4E
ENCODING 20046
SWIDTH 937 0
DWIDTH 15 0
BBX 13 13 1 1
BITMAP
0030
7FC0
0200
4210
2210
1220
1240
0200
FFF8
0200
0200
0200
1E00
ENDCHAR
STARTCHAR U+4E4F
ENCODING 20047
SWIDTH 937 0
DWIDTH 15 0
BBX 13 13 1 1
BITMAP
0070
7F80
0200
0200
FFF0
0010
0020
00C0
0300
0C00
1800
6600
81F8
ENDCHAR
STARTCHAR U+4E55
ENCODING 20053
SWIDTH 937 0
DWIDTH 15 0
BBX 13 13 1 1
BITMAP
0070
7F80
4100
7FF8
4100
7FF8
4100
5FF0
5110
5110
5110
9170
8100
ENDCHAR
STARTCHAR U+4E56
ENCODING 20054
SWIDTH 937 0
DWIDTH 15 0
BBX 13 13 1 1
BITMAP
0030
7FC0
0200
0200
FFF8
0200
1248
F250
1260
3240
D248
1278
0200
ENDCHAR
STARTCHAR U+4E57
ENCODING 20055
SWIDTH 937 0
DWIDTH 15 0
BBX 13 13 1 1
BITMAP
0030
7FC0
0200
7FF0
2220
FFF8
2220
2220
7FF0
0A80
3260
C218
0200
ENDCHAR
STARTCHAR U+4E58
ENCODING 20056
SWIDTH 937 0
DWIDTH 15 0
BBX 13 13 1 1
BITMAP
0030
7FC0
0200
FFF8
0200
1250
F260
1248
F778
1A80
3260
C218
0200
ENDCHAR
STARTCHAR U+4E59
ENCODING 20057
SWIDTH 937 0
DWIDTH 15 0
BBX 13 13 1 1
BITMAP
FFE0
0040
0080
0100
0200
0400
0800
1000
2008
4008
8008
8008
7FF0
ENDCHAR
STARTCHAR U+4E5D
ENCODING 20061
SWIDTH 937 0
DWIDTH 15 0
BBX 13 13 1 1
BITMAP
1000
1000
1000
FF80
1080
1080
1080
1080
1088
2088
2088
4088
80F8
ENDCHAR
STARTCHAR U+4E5E
ENCODING 20062
SWIDTH 937 0
DWIDTH 15 0
BBX 13 13 1 1
BITMAP
2000
3FF8
2000
4000
BFF0
0020
00C0
0300
0C00
3008
4008
4008
3FF0
ENDCHAR
STARTCHAR U+4E5F
ENCODING 20063
SWIDTH 937 0
DWIDTH 15 0
BBX 13 13 1 1
BITMAP
0200
2200
2200
22F0
2F10
F210
2210
2210
2270
2200
2008
2008
3FF8
ENDCHAR
STARTCHAR U+4E62
ENCODING 20066
SWIDTH 937 0
DWIDTH 15 0
BBX 13 13 1 1
BITMAP
2100
2100
A900
A900
A900
A900
A900
A908
A908
A908
A908
F908
01F8
ENDCHAR
STARTCHAR U+4E71
ENCODING 20081
SWIDTH 937 0
DWIDTH 15 0
BBX 13 13 1 1
BITMAP
0680
F880
1080
1080
FE80
1080
1080
FE80
8288
8288
8288
8288
FEF8
ENDCHAR
STARTCHAR U+4E73
ENCODING 20083
SWIDTH 937 0
DWIDTH 15 0
BBX 13 13 1 1
BITMAP
0680
F880
0080
A280
5480
0080
FC80
0880
1088
FE88
1088
1088
70F8
ENDCHAR
STARTCHAR U+4E7E
ENCODING 20094
SWIDTH 937 0
DWIDTH 15 0
BBX 13 13 1 1
BITMAP
2100
2100
F9F8
2200
F800
89F0
F820
8840
F880
2108
FA08
2208
21F0
ENDCHAR
STARTCHAR U+4E80
ENCODING 20096
SWIDTH 937 0
DWIDTH 15 0
BBX 13 13 1 1
BITMAP
7FC0
4040
BFE0
2220
3FE0
2220
7FF0
4210
7FF0
4210
7FF0
0208
03F8
ENDCHAR
STARTCHAR U+4E82
ENCODING 20098
SWIDTH 937 0
DWIDTH 15 0
BBX 13 13 1 1
BITMAP
FFA0
4920
FFA0
2220
1420
FFA0
94A0
A2A0
BEA0
A2A8
94A8
88A8
B7B8
ENDCHAR
STARTCHAR U+4E85
ENCODING 20101
SWIDTH 937 0
DWIDTH 15 0
BBX 3 13 5 1
BITMAP
20
20
20
20
20
20
20
20
20
20
20
20
C0
ENDCHAR
STARTCHAR U+4E86
ENCODING 20102
SWIDTH 937 0
DWIDTH 15 0
BBX 13 13 1 1
BITMAP
FFF8
0010
0020
00C0
0300
0200
0200
0200
0200
0200
0200
0200
1E00
ENDCHAR
STARTCHAR U+4E88
ENCODING 20104
SWIDTH 937 0
DWIDTH 15 0
BBX 13 13 1 1
BITMAP
7FF0
0020
18C0
0700
0100
FFF8
0208
0208
0210
0220
0200
0200
1E00
ENDCHAR
STARTCHAR U+4E89
ENCODING 20105
SWIDTH 937 0
DWIDTH 15 0
BBX 13 13 1 1
BITMAP
2000
3FC0
4040
BFF0
0210
0210
FFF8
0210
0210
7FF0
0200
0200
1E00
ENDCHAR
STARTCHAR U+4E8A
ENCODING 20106
SWIDTH 937 0
DWIDTH 15 0
BBX 13 13 1 1
BITMAP
0200
FFF8
2220
1240
7FF0
0210
FFF8
0210
0210
7FF0
0200
0200
1C00
ENDCHAR
STARTCHAR U+4E8B
ENCODING 20107
SWIDTH 937 0
DWIDTH 15 0
BBX 13 13 1 1
BITMAP
0200
FFF8
0200
7FF0
4210
7FF0
0200
7FF0
0210
FFF8
0210
7FF0
0600
ENDCHAR
STARTCHAR U+4E8C
ENCODING 20108
SWIDTH 937 0
DWIDTH 15 0
BBX 13 11 1 2
BITMAP
7FF0
0000
0000
0000
0000
0000
0000
0000
0000
0000
FFF8
ENDCHAR
STARTCHAR U+4E8E
ENCODING 20110
SWIDTH 937 0
DWIDTH 15 0
BBX 13 13 1 1
BITMAP
7FF0
0200
0200
0200
0200
0200
FFF8
0200
0200
0200
0200
0200
1C00
ENDCHAR
STARTCHAR U+4E91
ENCODING 20113
SWIDTH 937 0
DWIDTH 15 0
BBX 13 13 1 1
BITMAP
7FF0
0000
0000
0000
0000
FFF8
0800
0800
1040
1020
2030
41C8
FE08
ENDCHAR
STARTCHAR U+4E92
ENCODING 20114
SWIDTH 937 0
DWIDTH 15 0
BBX 13 13 1 1
BITMAP
FFF8
1000
1000
1000
3FE0
2020
2020
2020
3FE0
0040
0040
0040
FFF8
ENDCHAR
STARTCHAR U+4E94
ENCODING 20116
SWIDTH 937 0
DWIDTH 15 0
BBX 13 13 1 1
BITMAP
7FF0
0400
0400
0400
0400
7FE0
0820
0820
0820
0820
0820
0820
FFF8
ENDCHAR
STARTCHAR U+4E95
ENCODING 20117
SWIDTH 937 0
DWIDTH 15 0
BBX 13 13 1 1
BITMAP
1040
1040
1040
7FF0
1040
1040
1040
1040
FFF8
1040
1040
2040
4040
ENDCHAR
STARTCHAR U+4E98
ENCODING 20120
SWIDTH 937 0
DWIDTH 15 0
BBX 13 13 1 1
BITMAP
FFF8
0000
0000
7FF0
4010
4010
7FF0
4010
4010
7FF0
0000
0000
FFF8
ENDCHAR
STARTCHAR U+4E99
ENCODING 20121
SWIDTH 937 0
DWIDTH 15 0
BBX 13 13 1 1
BITMAP
FFF8
2000
2000
3FE0
2020
2020
2620
4120
4C20
4220
0120
0020
FFF8
ENDCHAR
STARTCHAR U+4E9B
ENCODING 20123
SWIDTH 937 0
DWIDTH 15 0
BBX 13 13 1 1
BITMAP
0880
4880
4898
4EE0
4880
4888
4E88
F0F8
0000
7FF0
0000
0000
FFF8
ENDCHAR
STARTCHAR U+4E9C
ENCODING 20124
SWIDTH 937 0
DWIDTH 15 0
BBX 13 13 1 1
BITMAP
FFF8
0880
0880
7FF0
4890
4890
4890
4890
7FF0
0880
0880
0880
FFF8
ENDCHAR
STARTCHAR U+4E9E
ENCODING 20126
SWIDTH 937 0
DWIDTH 15 0
BBX 13 13 1 1
BITMAP
FFF8
0880
0880
0880
78F0
4010
4010
4010
78F0
0880
0880
0880
FFF8
ENDCHAR
STARTCHAR U+4E9F
ENCODING 20127
SWIDTH 937 0
DWIDTH 15 0
BBX 13 13 1 1
BITMAP
FFF0
1000
2000
3EF0
0210
7A90
4A90
4A60
7A20
0250
0C88
0000
FFF8
ENDCHAR
STARTCHAR U+4EA0
ENCODING 20128
SWIDTH 937 0
DWIDTH 15 0
BBX 13 4 1 7
BITMAP
0200
0200
0200
FFF8
ENDCHAR
STARTCHAR U+4EA1
ENCODING 20129
SWIDTH 937 0
DWIDTH 15 0
BBX 13 13 1 1
BITMAP
0200
0200
FFF8
2000
2000
2000
2000
2000
2000
2000
2000
2000
3FF0
ENDCHAR
STARTCHAR U+4EA2
ENCODING 20130
SWIDTH 937 0
DWIDTH 15 0
BBX 13 13 1 1
BITMAP
0200
0200
FFF8
0000
0000
1F80
1080
1080
1080
1088
2088
4088
80F8
ENDCHAR
STARTCHAR U+4EA4
ENCODING 20132
SWIDTH 937 0
DWIDTH 15 0
BBX 13 13 1 1
BITMAP
0200
FFF8
0000
1040
1040
2020
D058
0880
0500
0200
0D80
3060
C018
ENDCHAR
STARTCHAR U+4EA5
ENCODING 20133
SWIDTH 937 0
DWIDTH 15 0
BBX 13 13 1 1
BITMAP
0200
0200
FFF8
0400
4800
3100
1120
0A20
0440
08C0
1120
6210
0C08
ENDCHAR
STARTCHAR U+4EA6
ENCODING 20134
SWIDTH 937 0
DWIDTH 15 0
BBX 13 13 1 1
BITMAP
0200
0200
FFF8
0880
0880
28A0
2890
4890
4888
8888
1080
1080
2380
ENDCHAR
STARTCHAR U+4EA8
ENCODING 20136
SWIDTH 937 0
DWIDTH 15 0
BBX 13 13 1 1
BITMAP
0200
FFF8
0000
7FF0
4010
7FF0
0000
FFF0
0020
03C0
0200
0200
1E00
ENDCHAR
STARTCHAR U+4EAB
ENCODING 20139
SWIDTH 937 0
DWIDTH 15 0
BBX 13 13 1 1
BITMAP
0200
FFF8
0000
7FF0
4010
7FF0
0000
7FE0
0080
0300
FFF8
0200
0E00
ENDCHAR
STARTCHAR U+4EAC
ENCODING 20140
SWIDTH 937 0
DWIDTH 15 0
BBX 13 13 1 1
BITMAP
0200
FFF8
0000
7FF0
4010
4010
4010
7FF0
0200
1240
2220
C218
0C00
ENDCHAR
STARTCHAR U+4EAD
ENCODING 20141
SWIDTH 937 0
DWIDTH 15 0
BBX 13 13 1 1
BITMAP
0200
FFF8
0000
7FF0
4010
7FF0
0000
FFF8
8008
3FE0
0200
0200
0E00
ENDCHAR
STARTCHAR U+4EAE
ENCODING 20142
SWIDTH 937 0
DWIDTH 15 0
BBX 13 13 1 1
BITMAP
0200
FFF8
0000
7FF0
4010
7FF0
0000
FFF8
8008
0880
0888
1088
E0F8
ENDCHAR
STARTCHAR U+4EB0
ENCODING 20144
SWIDTH 937 0
DWIDTH 15 0
BBX 13 13 1 1
BITMAP
0200
FFF8
0000
7FF0
4010
7FF0
4010
7FF0
0200
1240
2220
C218
0C00
ENDCHAR
STARTCHAR U+4EB3
ENCODING 20147
SWIDTH 937 0
DWIDTH 15 0
BBX 13 13 1 1
BITMAP
0200
FFF8
0000
7FF0
4010
FFF8
8008
BFC8
0800
0FF8
F800
0808
0FF8
ENDCHAR
STARTCHAR U+4EB6
ENCODING 20150
SWIDTH 937 0
DWIDTH 15 0
BBX 13 13 1 1
BITMAP
0200
FFF8
4010
5FD0
5050
5FD0
4010
7FF0
2020
3FE0
2020
2020
FFF8
ENDCHAR
STARTCHAR U+4EBA
ENCODING 20154
SWIDTH 937 0
DWIDTH 15 0
BBX 13 13 1 1
BITMAP
0200
0200
0200
0200
0200
0200
0200
0500
0500
0880
1040
2020
C018
ENDCHAR
STARTCHAR U+4EC0
ENCODING 20160
SWIDTH 937 0
DWIDTH 15 0
BBX 13 13 1 1
BITMAP
1080
1080
2080
2080
6080
AFF8
2080
2080
2080
2080
2080
2080
2080
ENDCHAR
STARTCHAR U+4EC1
ENCODING 20161
SWIDTH 937 0
DWIDTH 15 0
BBX 13 13 1 1
BITMAP
1000
17F0
2000
2000
6000
A000
2000
2000
2000
2000
2000
2FF8
2000
ENDCHAR
STARTCHAR U+4EC2
ENCODING 20162
SWIDTH 937 0
DWIDTH 15 0
BBX 13 13 1 1
BITMAP
1080
1080
2080
27F8
6088
A088
2088
2088
2108
2108
2208
2208
2430
ENDCHAR
STARTCHAR U+4EC4
ENCODING 20164
SWIDTH 937 0
DWIDTH 15 0
BBX 13 13 1 1
BITMAP
7FF8
4000
4100
4100
4100
4100
4100
4100
4280
4280
4440
8820
9010
ENDCHAR
STARTCHAR U+4EC6
ENCODING 20166
SWIDTH 937 0
DWIDTH 15 0
BBX 13 13 1 1
BITMAP
1100
1100
2100
2100
6180
A140
2120
2110
2108
2100
2100
2100
2100
ENDCHAR
STARTCHAR U+4EC7
ENCODING 20167
SWIDTH 937 0
DWIDTH 15 0
BBX 13 13 1 1
BITMAP
1200
1200
2200
2FC0
6240
A240
2240
2240
2248
2248
2448
2448
2878
ENDCHAR
STARTCHAR U+4ECA
ENCODING 20170
SWIDTH 937 0
DWIDTH 15 0
BBX 13 13 1 1
BITMAP
0200
0500
18C0
2020
DFD8
0000
0000
7FF0
0010
0020
0040
0080
0100
ENDCHAR
STARTCHAR U+4ECB
ENCODING 20171
SWIDTH 937 0
DWIDTH 15 0
BBX 13 13 1 1
BITMAP
0200
0500
0880
1040
2020
D058
1040
1040
1040
1040
2040
2040
4040
ENDCHAR
STARTCHAR U+4ECD
ENCODING 20173
SWIDTH 937 0
DWIDTH 15 0
BBX 13 13 1 1
BITMAP
17E0
1220
2220
2220
6220
A238
2208
2208
2208
2208
2408
2408
2870
ENDCHAR
STARTCHAR U+4ECE
ENCODING 20174
SWIDTH 937 0
DWIDTH 15 0
BBX 13 13 1 1
BITMAP
2040
2040
2040
2040
2040
2040
2040
2040
50A0
50A0
4910
8910
8608
ENDCHAR
STARTCHAR U+4ECF
ENCODING 20175
SWIDTH 937 0
DWIDTH 15 0
BBX 13 13 1 1
BITMAP
1080
1080
2080
2080
6100
A100
2100
2220
2220
2210
2410
2468
2F88
ENDCHAR
STARTCHAR U+4ED4
ENCODING 20180
SWIDTH 937 0
DWIDTH 15 0
BBX 13 13 1 1
BITMAP
17F8
1008
2010
2020
6040
A040
2FF8
2040
2040
2040
2040
2040
23C0
ENDCHAR
STARTCHAR U+4ED5
ENCODING 20181
SWIDTH 937 0
DWIDTH 15 0
BBX 13 13 1 1
BITMAP
1080
1080
2080
2080
6FF8
A080
2080
2080
2080
2080
2080
2080
27F8
ENDCHAR
STARTCHAR U+4ED6
ENCODING 20182
SWIDTH 937 0
DWIDTH 15 0
BBX 13 13 1 1
BITMAP
1240
1240
2240
2278
63C8
AE48
2248
2248
2258
2240
2208
2208
23F8
ENDCHAR
STARTCHAR U+4ED7
ENCODING 20183
SWIDTH 937 0
DWIDTH 15 0
BBX 13 13 1 1
BITMAP
1040
1040
27F8
2040
6040
A240
2240
2140
2140
20C0
2160
2210
2408
ENDCHAR
STARTCHAR U+4ED8
ENCODING 20184
SWIDTH 937 0
DWIDTH 15 0
BBX 13 13 1 1
BITMAP
1010
1010
2010
27F8
6010
A010
2210
2110
2110
2110
2010
2010
20F0
ENDCHAR
STARTCHAR U+4ED9
ENCODING 20185
SWIDTH 937 0
DWIDTH 15 0
BBX 13 13 1 1
BITMAP
2080
2080
4888
4888
C888
4888
4888
4888
4888
4888
4888
4888
4FF8
ENDCHAR
STARTCHAR U+4EDD
ENCODING 20189
SWIDTH 937 0
DWIDTH 15 0
BBX 13 13 1 1
BITMAP
0200
0500
0880
1040
2020
C018
0000
7FF0
0200
0200
0200
0200
FFF8
ENDCHAR
STARTCHAR U+4EDE
ENCODING 20190
SWIDTH 937 0
DWIDTH 15 0
BBX 13 13 1 1
BITMAP
17F8
1088
2088
2488
6488
A488
2488
2488
2888
2108
2108
2208
2470
ENDCHAR
STARTCHAR U+4EDF
ENCODING 20191
SWIDTH 937 0
DWIDTH 15 0
BBX 13 13 1 1
BITMAP
1010
17E0
2080
2080
6080
A080
2FF8
2080
2080
2080
2080
2080
2080
ENDCHAR
STARTCHAR U+4EE3
ENCODING 20195
SWIDTH 937 0
DWIDTH 15 0
BBX 13 13 1 1
BITMAP
1100
1120
2110
2100
6FF8
A100
2100
2100
2080
2088
2088
2048
2030
ENDCHAR
STARTCHAR U+4EE4
ENCODING 20196
SWIDTH 937 0
DWIDTH 15 0
BBX 13 13 1 1
BITMAP
0200
0500
18C0
E038
1FC0
0000
0000
FFF0
0410
0410
0410
0470
0400
ENDCHAR
STARTCHAR U+4EE5
ENCODING 20197
SWIDTH 937 0
DWIDTH 15 0
BBX 13 13 1 1
BITMAP
4010
4410
4410
4210
4210
4120
4120
4020
4040
4840
50A0
6110
C208
ENDCHAR
STARTCHAR U+4EED
ENCODING 20205
SWIDTH 937 0
DWIDTH 15 0
BBX 13 13 1 1
BITMAP
2FF0
2110
2110
6110
A910
2510
2310
2110
2190
2250
2230
2428
28C0
ENDCHAR
STARTCHAR U+4EEE
ENCODING 20206
SWIDTH 937 0
DWIDTH 15 0
BBX 13 13 1 1
BITMAP
17F8
1400
2400
2400
67F8
A508
2510
2490
24A0
2440
24A0
2910
2A08
ENDCHAR
STARTCHAR U+4EF0
ENCODING 20208
SWIDTH 937 0
DWIDTH 15 0
BBX 13 13 1 1
BITMAP
1100
1678
2448
2448
6448
A448
2448
2448
2448
2448
2758
2C40
2040
ENDCHAR
STARTCHAR U+4EF2
ENCODING 20210
SWIDTH 937 0
DWIDTH 15 0
BBX 13 13 1 1
BITMAP
2080
2080
2FF8
4888
4888
C888
4888
4888
4FF8
4080
4080
4080
4080
ENDCHAR
STARTCHAR U+4EF6
ENCODING 20214
SWIDTH 937 0
DWIDTH 15 0
BBX 13 13 1 1
BITMAP
1040
1240
2240
23F8
6440
A040
2040
2040
2FF8
2040
2040
2040
2040
ENDCHAR
ENDFONT
